<?xml version="1.0" encoding="UTF-8" standalone="no"?>
<!-- Created with Inkscape (http://www.inkscape.org/) -->

<svg
   width="210mm"
   height="297mm"
   viewBox="0 0 210 297"
   version="1.1"
   id="svg5"
   inkscape:version="1.2.2 (732a01da63, 2022-12-09)"
   sodipodi:docname="ALUnizar_logo_nuevo_1.svg"
   xmlns:inkscape="http://www.inkscape.org/namespaces/inkscape"
   xmlns:sodipodi="http://sodipodi.sourceforge.net/DTD/sodipodi-0.dtd"
   xmlns:xlink="http://www.w3.org/1999/xlink"
   xmlns="http://www.w3.org/2000/svg"
   xmlns:svg="http://www.w3.org/2000/svg">
  <sodipodi:namedview
     id="namedview7"
     pagecolor="#ffffff"
     bordercolor="#000000"
     borderopacity="0.25"
     inkscape:showpageshadow="2"
     inkscape:pageopacity="0.0"
     inkscape:pagecheckerboard="0"
     inkscape:deskcolor="#d1d1d1"
     inkscape:document-units="mm"
     showgrid="false"
     inkscape:zoom="1"
     inkscape:cx="338.5"
     inkscape:cy="546"
     inkscape:window-width="1680"
     inkscape:window-height="987"
     inkscape:window-x="-8"
     inkscape:window-y="-8"
     inkscape:window-maximized="1"
     inkscape:current-layer="layer1" />
  <defs
     id="defs2">
    <linearGradient
       inkscape:collect="always"
       id="linearGradient2372">
      <stop
         style="stop-color:#ffffff;stop-opacity:1;"
         offset="0"
         id="stop2368" />
      <stop
         style="stop-color:#ffffff;stop-opacity:0;"
         offset="1"
         id="stop2370" />
    </linearGradient>
    <linearGradient
       inkscape:collect="always"
       id="linearGradient51335">
      <stop
         style="stop-color:#ababab;stop-opacity:1;"
         offset="0.96681416"
         id="stop51331" />
      <stop
         style="stop-color:#6a6a6a;stop-opacity:0;"
         offset="1"
         id="stop51333" />
    </linearGradient>
    <inkscape:path-effect
       effect="spiro"
       id="path-effect49269"
       is_visible="true"
       lpeversion="1" />
    <inkscape:path-effect
       effect="spiro"
       id="path-effect43697"
       is_visible="true"
       lpeversion="1" />
    <inkscape:path-effect
       effect="spiro"
       id="path-effect43641"
       is_visible="true"
       lpeversion="1" />
    <inkscape:path-effect
       effect="spiro"
       id="path-effect43637"
       is_visible="true"
       lpeversion="1" />
    <inkscape:path-effect
       effect="spiro"
       id="path-effect42523"
       is_visible="true"
       lpeversion="1" />
    <inkscape:path-effect
       effect="spiro"
       id="path-effect42519"
       is_visible="true"
       lpeversion="1" />
    <inkscape:path-effect
       effect="spiro"
       id="path-effect42513"
       is_visible="true"
       lpeversion="1" />
    <inkscape:path-effect
       effect="spiro"
       id="path-effect42509"
       is_visible="true"
       lpeversion="1" />
    <linearGradient
       inkscape:collect="always"
       id="linearGradient42340">
      <stop
         style="stop-color:#ffffff;stop-opacity:1;"
         offset="0"
         id="stop42336" />
      <stop
         style="stop-color:#ffffff;stop-opacity:0.47666663;"
         offset="0.73451328"
         id="stop42338" />
    </linearGradient>
    <linearGradient
       inkscape:collect="always"
       id="linearGradient42274">
      <stop
         style="stop-color:#ffffff;stop-opacity:1;"
         offset="0.43805307"
         id="stop42270" />
      <stop
         style="stop-color:#ffffff;stop-opacity:0;"
         offset="1"
         id="stop42272" />
    </linearGradient>
    <linearGradient
       inkscape:collect="always"
       id="linearGradient35070">
      <stop
         style="stop-color:#ffffff;stop-opacity:1;"
         offset="0"
         id="stop35066" />
      <stop
         style="stop-color:#ffffff;stop-opacity:0;"
         offset="1"
         id="stop35068" />
    </linearGradient>
    <inkscape:path-effect
       effect="spiro"
       id="path-effect35056"
       is_visible="true"
       lpeversion="1" />
    <inkscape:path-effect
       effect="spiro"
       id="path-effect35041"
       is_visible="true"
       lpeversion="1" />
    <linearGradient
       inkscape:collect="always"
       id="linearGradient33407">
      <stop
         style="stop-color:#ffffff;stop-opacity:1;"
         offset="0"
         id="stop33405" />
      <stop
         style="stop-color:#ffffff;stop-opacity:0.73666674;"
         offset="1"
         id="stop33403" />
    </linearGradient>
    <inkscape:path-effect
       effect="spiro"
       id="path-effect33349"
       is_visible="true"
       lpeversion="1" />
    <inkscape:path-effect
       effect="spiro"
       id="path-effect32373"
       is_visible="true"
       lpeversion="1" />
    <linearGradient
       inkscape:collect="always"
       id="linearGradient31527">
      <stop
         style="stop-color:#02428b;stop-opacity:0.52333331;"
         offset="0"
         id="stop31525" />
      <stop
         style="stop-color:#000920;stop-opacity:1;"
         offset="1"
         id="stop31523" />
    </linearGradient>
    <inkscape:path-effect
       effect="spiro"
       id="path-effect31521"
       is_visible="true"
       lpeversion="1" />
    <linearGradient
       inkscape:collect="always"
       id="linearGradient31081">
      <stop
         style="stop-color:#002080;stop-opacity:0;"
         offset="0"
         id="stop31079" />
      <stop
         style="stop-color:#000a35;stop-opacity:1;"
         offset="1"
         id="stop31077" />
    </linearGradient>
    <inkscape:path-effect
       effect="spiro"
       id="path-effect30993"
       is_visible="true"
       lpeversion="1" />
    <inkscape:path-effect
       effect="spiro"
       id="path-effect27236"
       is_visible="true"
       lpeversion="1" />
    <inkscape:path-effect
       effect="spiro"
       id="path-effect27226"
       is_visible="true"
       lpeversion="1" />
    <inkscape:path-effect
       effect="spiro"
       id="path-effect27198"
       is_visible="true"
       lpeversion="1" />
    <inkscape:path-effect
       effect="spiro"
       id="path-effect26468"
       is_visible="true"
       lpeversion="1" />
    <inkscape:path-effect
       effect="spiro"
       id="path-effect26458"
       is_visible="true"
       lpeversion="1" />
    <inkscape:path-effect
       effect="spiro"
       id="path-effect26454"
       is_visible="true"
       lpeversion="1" />
    <inkscape:path-effect
       effect="spiro"
       id="path-effect26440"
       is_visible="true"
       lpeversion="1" />
    <inkscape:path-effect
       effect="spiro"
       id="path-effect26436"
       is_visible="true"
       lpeversion="1" />
    <inkscape:path-effect
       effect="spiro"
       id="path-effect26422"
       is_visible="true"
       lpeversion="1" />
    <inkscape:path-effect
       effect="spiro"
       id="path-effect26418"
       is_visible="true"
       lpeversion="1" />
    <inkscape:path-effect
       effect="spiro"
       id="path-effect26388"
       is_visible="true"
       lpeversion="1" />
    <inkscape:path-effect
       effect="spiro"
       id="path-effect26384"
       is_visible="true"
       lpeversion="1" />
    <inkscape:path-effect
       effect="spiro"
       id="path-effect26378"
       is_visible="true"
       lpeversion="1" />
    <inkscape:path-effect
       effect="spiro"
       id="path-effect26352"
       is_visible="true"
       lpeversion="1" />
    <inkscape:path-effect
       effect="spiro"
       id="path-effect26348"
       is_visible="true"
       lpeversion="1" />
    <inkscape:path-effect
       effect="spiro"
       id="path-effect26265"
       is_visible="true"
       lpeversion="1" />
    <inkscape:path-effect
       effect="spiro"
       id="path-effect26261"
       is_visible="true"
       lpeversion="1" />
    <inkscape:path-effect
       effect="spiro"
       id="path-effect26257"
       is_visible="true"
       lpeversion="1" />
    <inkscape:path-effect
       effect="spiro"
       id="path-effect26253"
       is_visible="true"
       lpeversion="1" />
    <inkscape:path-effect
       effect="spiro"
       id="path-effect26249"
       is_visible="true"
       lpeversion="1" />
    <inkscape:path-effect
       effect="spiro"
       id="path-effect26223"
       is_visible="true"
       lpeversion="1" />
    <inkscape:path-effect
       effect="spiro"
       id="path-effect26219"
       is_visible="true"
       lpeversion="1" />
    <inkscape:path-effect
       effect="spiro"
       id="path-effect26215"
       is_visible="true"
       lpeversion="1" />
    <inkscape:path-effect
       effect="spiro"
       id="path-effect26180"
       is_visible="true"
       lpeversion="1" />
    <inkscape:path-effect
       effect="spiro"
       id="path-effect26152"
       is_visible="true"
       lpeversion="1" />
    <inkscape:path-effect
       effect="spiro"
       id="path-effect26148"
       is_visible="true"
       lpeversion="1" />
    <inkscape:path-effect
       effect="spiro"
       id="path-effect25418"
       is_visible="true"
       lpeversion="1" />
    <inkscape:path-effect
       effect="spiro"
       id="path-effect25414"
       is_visible="true"
       lpeversion="1" />
    <inkscape:path-effect
       effect="spiro"
       id="path-effect25408"
       is_visible="true"
       lpeversion="1" />
    <inkscape:path-effect
       effect="spiro"
       id="path-effect24488"
       is_visible="true"
       lpeversion="1" />
    <inkscape:path-effect
       effect="spiro"
       id="path-effect24435"
       is_visible="true"
       lpeversion="1" />
    <inkscape:path-effect
       effect="spiro"
       id="path-effect24314"
       is_visible="true"
       lpeversion="1" />
    <inkscape:path-effect
       effect="spiro"
       id="path-effect20918"
       is_visible="true"
       lpeversion="1" />
    <inkscape:path-effect
       effect="spiro"
       id="path-effect20914"
       is_visible="true"
       lpeversion="1" />
    <rect
       x="328.19432"
       y="420.94488"
       width="582.10495"
       height="305.58642"
       id="rect6214" />
    <inkscape:path-effect
       effect="spiro"
       id="path-effect3180"
       is_visible="true"
       lpeversion="1" />
    <inkscape:path-effect
       effect="spiro"
       id="path-effect1724"
       is_visible="true"
       lpeversion="1" />
    <rect
       x="328.19431"
       y="420.94489"
       width="582.10498"
       height="305.58643"
       id="rect6214-4" />
    <inkscape:path-effect
       effect="spiro"
       id="path-effect10089-0-9-5-2-3-750-1"
       is_visible="true"
       lpeversion="1" />
    <inkscape:path-effect
       effect="spiro"
       id="path-effect32382-8-74-4"
       is_visible="true"
       lpeversion="1" />
    <inkscape:path-effect
       effect="spiro"
       id="path-effect20918-1"
       is_visible="true"
       lpeversion="1" />
    <inkscape:path-effect
       effect="spiro"
       id="path-effect10089-0-9-5-2-3-750-1-8"
       is_visible="true"
       lpeversion="1" />
    <inkscape:path-effect
       effect="spiro"
       id="path-effect32382-8-74-4-9"
       is_visible="true"
       lpeversion="1" />
    <inkscape:path-effect
       effect="spiro"
       id="path-effect10089-0-9-5-2-3-750-1-6"
       is_visible="true"
       lpeversion="1" />
    <inkscape:path-effect
       effect="spiro"
       id="path-effect32382-8-74-4-4"
       is_visible="true"
       lpeversion="1" />
    <inkscape:path-effect
       effect="spiro"
       id="path-effect26180-6"
       is_visible="true"
       lpeversion="1" />
    <inkscape:path-effect
       effect="spiro"
       id="path-effect26388-5"
       is_visible="true"
       lpeversion="1" />
    <inkscape:path-effect
       effect="spiro"
       id="path-effect23625"
       is_visible="true"
       lpeversion="1" />
    <inkscape:path-effect
       effect="spiro"
       id="path-effect2368"
       is_visible="true"
       lpeversion="1" />
    <inkscape:path-effect
       effect="spiro"
       id="path-effect2368-7"
       is_visible="true"
       lpeversion="1" />
    <radialGradient
       inkscape:collect="always"
       xlink:href="#linearGradient31081"
       id="radialGradient31083"
       cx="104.76964"
       cy="258.91986"
       fx="104.76964"
       fy="258.91986"
       r="83.292101"
       gradientTransform="matrix(1,0,0,2.0000001,-0.74835467,-296.61809)"
       gradientUnits="userSpaceOnUse" />
    <radialGradient
       inkscape:collect="always"
       xlink:href="#linearGradient31527"
       id="radialGradient31529"
       cx="104.60772"
       cy="122.12525"
       fx="104.60772"
       fy="122.12525"
       r="72.29499"
       gradientTransform="matrix(-1,0,-1.4919613e-8,-0.82425593,208.46721,262.29452)"
       gradientUnits="userSpaceOnUse" />
    <radialGradient
       inkscape:collect="always"
       xlink:href="#linearGradient33407"
       id="radialGradient33409"
       cx="103.98125"
       cy="171.97916"
       fx="103.98125"
       fy="171.97916"
       r="59.588009"
       gradientUnits="userSpaceOnUse" />
    <rect
       x="328.19431"
       y="420.94489"
       width="582.10498"
       height="305.58643"
       id="rect6214-0" />
    <radialGradient
       inkscape:collect="always"
       xlink:href="#linearGradient35070"
       id="radialGradient35072"
       cx="104.76964"
       cy="113.62895"
       fx="104.76964"
       fy="113.62895"
       r="2.5"
       gradientTransform="matrix(1,2.0465186e-8,-5.753906e-7,42.798481,-0.74828929,-4701.5129)"
       gradientUnits="userSpaceOnUse" />
    <inkscape:path-effect
       effect="spiro"
       id="path-effect23625-4"
       is_visible="true"
       lpeversion="1" />
    <inkscape:path-effect
       effect="spiro"
       id="path-effect2368-4"
       is_visible="true"
       lpeversion="1" />
    <inkscape:path-effect
       effect="spiro"
       id="path-effect2368-7-3"
       is_visible="true"
       lpeversion="1" />
    <inkscape:path-effect
       effect="spiro"
       id="path-effect10089-0-9-5-2-3-750-1-1"
       is_visible="true"
       lpeversion="1" />
    <inkscape:path-effect
       effect="spiro"
       id="path-effect32382-8-74-4-0"
       is_visible="true"
       lpeversion="1" />
    <inkscape:path-effect
       effect="spiro"
       id="path-effect10089-0-9-5-2-3-750-1-1-6"
       is_visible="true"
       lpeversion="1" />
    <inkscape:path-effect
       effect="spiro"
       id="path-effect32382-8-74-4-06"
       is_visible="true"
       lpeversion="1" />
    <radialGradient
       inkscape:collect="always"
       xlink:href="#linearGradient42274"
       id="radialGradient42276"
       cx="104.77021"
       cy="102.478"
       fx="104.77021"
       fy="102.478"
       r="0.82764232"
       gradientTransform="matrix(-1,-3.1567692e-5,5.4362772e-4,-17.221015,208.73635,1857.9751)"
       gradientUnits="userSpaceOnUse" />
    <radialGradient
       inkscape:collect="always"
       xlink:href="#linearGradient42340"
       id="radialGradient42342"
       cx="69.222809"
       cy="83.815727"
       fx="69.222809"
       fy="83.815727"
       r="7.2404037"
       gradientUnits="userSpaceOnUse" />
    <radialGradient
       inkscape:collect="always"
       xlink:href="#linearGradient42340"
       id="radialGradient42342-6"
       cx="69.222809"
       cy="83.815727"
       fx="69.222809"
       fy="83.815727"
       r="7.2404037"
       gradientUnits="userSpaceOnUse" />
    <radialGradient
       inkscape:collect="always"
       xlink:href="#linearGradient42340"
       id="radialGradient42342-9"
       cx="69.222809"
       cy="83.815727"
       fx="69.222809"
       fy="83.815727"
       r="7.2404037"
       gradientUnits="userSpaceOnUse" />
    <radialGradient
       inkscape:collect="always"
       xlink:href="#linearGradient42340"
       id="radialGradient42342-3"
       cx="69.222809"
       cy="83.815727"
       fx="69.222809"
       fy="83.815727"
       r="7.2404037"
       gradientUnits="userSpaceOnUse" />
    <radialGradient
       inkscape:collect="always"
       xlink:href="#linearGradient42340"
       id="radialGradient42342-1"
       cx="69.222809"
       cy="83.815727"
       fx="69.222809"
       fy="83.815727"
       r="7.2404037"
       gradientUnits="userSpaceOnUse" />
    <radialGradient
       inkscape:collect="always"
       xlink:href="#linearGradient42340"
       id="radialGradient42342-9-2"
       cx="69.222809"
       cy="83.815727"
       fx="69.222809"
       fy="83.815727"
       r="7.2404037"
       gradientUnits="userSpaceOnUse" />
    <radialGradient
       inkscape:collect="always"
       xlink:href="#linearGradient42340"
       id="radialGradient42342-3-0"
       cx="69.222809"
       cy="83.815727"
       fx="69.222809"
       fy="83.815727"
       r="7.2404037"
       gradientUnits="userSpaceOnUse" />
    <radialGradient
       inkscape:collect="always"
       xlink:href="#linearGradient42340"
       id="radialGradient42342-1-6"
       cx="69.222809"
       cy="83.815727"
       fx="69.222809"
       fy="83.815727"
       r="7.2404037"
       gradientUnits="userSpaceOnUse" />
    <radialGradient
       inkscape:collect="always"
       xlink:href="#linearGradient51335"
       id="radialGradient51337"
       cx="104.76964"
       cy="140.92296"
       fx="104.76964"
       fy="140.92296"
       r="86.814537"
       gradientUnits="userSpaceOnUse"
       gradientTransform="translate(-0.74835467,-2.9934187)" />
    <linearGradient
       inkscape:collect="always"
       xlink:href="#linearGradient2372"
       id="linearGradient2374"
       x1="54.130096"
       y1="119.77063"
       x2="176.15424"
       y2="179.57578"
       gradientUnits="userSpaceOnUse" />
  </defs>
  <g
     inkscape:label="Capa 1"
     inkscape:groupmode="layer"
     id="layer1">
    <path
       style="fill:url(#radialGradient31083);fill-opacity:1;stroke:none;stroke-width:0.1;stroke-dasharray:none;stroke-opacity:1"
       d="m 31.888324,179.57578 c -7.268679,-12.58964 -11.159139,-27.10895 -11.15914,-41.64624 -1e-6,-21.80582 8.976648,-43.477367 24.395693,-58.896411 15.419046,-15.419043 37.090591,-24.39569 58.896413,-24.39569 21.80582,0 43.47737,8.976646 58.89641,24.39569 15.41905,15.419043 24.39569,37.090591 24.39569,58.896411 0,14.53729 -3.89047,29.0566 -11.15915,41.64624 -22.10805,-11.72349 -47.10884,-17.94212 -72.13295,-17.94216 -25.024135,-4e-5 -50.024974,6.21853 -72.133077,17.94197"
       id="path30991"
       inkscape:path-effect="#path-effect30993"
       inkscape:original-d="m 31.888324,179.57578 c -3.719449,-13.88181 -7.439162,-27.7639 -11.15914,-41.64624 -3.719978,-13.88235 55.528331,-55.527803 83.292106,-83.292101 27.76376,-27.764297 55.52833,55.528331 83.2921,83.292101 27.76376,27.76376 -11.15915,41.64624 -11.15915,41.64624 0,0 -48.08837,-11.96118 -72.13295,-17.94216 -24.044588,-5.98099 -48.088456,11.96158 -72.133077,17.94197"
       sodipodi:nodetypes="cssscsc" />
    <path
       style="fill:none;fill-opacity:1;stroke:url(#linearGradient2374);stroke-width:0.35;stroke-dasharray:none;stroke-opacity:1"
       id="path49323-5"
       sodipodi:type="arc"
       sodipodi:cx="104.02129"
       sodipodi:cy="137.92953"
       sodipodi:rx="53.093102"
       sodipodi:ry="53.093102"
       sodipodi:start="3.4906585"
       sodipodi:end="0.60437323"
       sodipodi:arc-type="arc"
       d="M 54.130098,119.77062 A 53.093102,53.093102 0 0 1 99.279479,85.048606 53.093102,53.093102 0 0 1 149.88594,111.18423 53.093102,53.093102 0 0 1 147.7094,168.0995"
       sodipodi:open="true" />
    <path
       style="fill:url(#radialGradient31529);fill-opacity:1;stroke:none;stroke-width:0.1;stroke-dasharray:none;stroke-opacity:1"
       d="m 31.888451,179.5754 c 7.26856,12.58963 17.89735,23.21848 30.486929,30.48712 12.589579,7.26864 27.108815,11.15909 41.64603,11.15911 14.53722,2e-5 29.05646,-3.89039 41.64606,-11.159 12.5896,-7.2686 23.21842,-17.89743 30.48701,-30.48704 -22.10812,-11.72339 -47.10894,-17.94195 -72.13307,-17.94197 -25.024075,-2e-5 -50.024851,6.21847 -72.132959,17.94178 z"
       id="path31519"
       inkscape:path-effect="#path-effect31521"
       inkscape:original-d="m 31.888451,179.5754 c 0,0 47.98091,27.57578 72.132959,41.64623 24.15203,14.07046 72.13307,-41.64604 72.13307,-41.64604 0,0 -48.08845,-11.96105 -72.13307,-17.94197 C 79.976779,155.6527 31.888451,179.5754 31.888451,179.5754 Z"
       sodipodi:nodetypes="cscsc" />
    <path
       sodipodi:type="star"
       style="fill:url(#radialGradient33409);fill-opacity:1;stroke:none;stroke-width:0.1;stroke-dasharray:none;stroke-opacity:1"
       id="path32315"
       inkscape:flatsided="false"
       sodipodi:sides="80"
       sodipodi:cx="103.98125"
       sodipodi:cy="171.97916"
       sodipodi:r1="59.588009"
       sodipodi:r2="3.1038868"
       sodipodi:arg1="1.5707963"
       sodipodi:arg2="1.6100662"
       inkscape:rounded="0"
       inkscape:randomized="0"
       d="m 103.98125,231.56717 -0.12186,-56.48652 -4.553363,56.30283 4.310393,-56.32195 -8.95679,55.77201 8.71608,-55.81014 -13.305006,54.89734 13.068026,-54.95423 -17.571189,53.68421 17.339399,-53.75952 -21.729035,52.1401 21.503865,-52.23337 -25.752912,50.27453 25.535762,-50.38517 -29.618021,48.099 29.410221,-48.22635 -33.300525,45.62693 33.103355,-45.77018 -36.777718,42.87354 36.592398,-43.03182 -40.028167,39.85583 39.855827,-40.02816 -43.031819,36.59239 42.873539,-36.77772 -45.770174,33.10336 45.626924,-33.30053 -48.226342,29.41023 48.099002,-29.61803 -50.385177,25.53577 50.274527,-25.75292 -52.233364,21.50387 52.140104,-21.72904 -53.759527,17.33941 53.684207,-17.57119 -54.95423,13.06802 54.89734,-13.30501 -55.810134,8.71609 55.772004,-8.9568 -56.321942,4.3104 56.302822,-4.55337 -56.486512,-0.12185 56.486512,-0.12186 -56.302822,-4.55336 56.321942,4.31039 -55.772005,-8.95679 55.810135,8.71608 -54.897341,-13.30501 54.954231,13.06803 -53.684208,-17.57119 53.759528,17.3394 -52.140105,-21.72904 52.233365,21.50387 -50.274528,-25.75291 50.385178,25.53576 -48.099004,-29.61802 48.226344,29.41022 -45.626926,-33.30053 45.770176,33.10336 -42.873542,-36.77772 43.031822,36.5924 -39.855829,-40.02817 40.028169,39.85583 -36.5924,-43.03182 36.77772,42.87354 -33.103357,-45.77017 33.300527,45.62692 -29.410224,-48.22634 29.618024,48.099 -25.535764,-50.38518 25.752914,50.27453 -21.503868,-52.23336 21.729038,52.1401 -17.339402,-53.75953 17.571192,53.68421 -13.068029,-54.95423 13.305009,54.89734 -8.716083,-55.81013 8.956793,55.772 -4.310396,-56.32194 4.553366,56.30282 0.12186,-56.48651 0.12185,56.48651 4.55337,-56.30282 -4.3104,56.32194 8.95679,-55.77201 -8.71607,55.81014 13.305,-54.89734 -13.06802,54.95423 17.57118,-53.68421 -17.33939,53.75953 21.72903,-52.14011 -21.50387,52.23337 25.75292,-50.27453 -25.53577,50.38518 29.61802,-48.099 -29.41022,48.22634 33.30053,-45.62693 -33.10336,45.77018 36.77772,-42.87354 -36.59239,43.03182 40.02816,-39.85583 -39.85583,40.02817 43.03182,-36.5924 -42.87354,36.77772 45.77018,-33.10336 -45.62693,33.30053 48.22635,-29.41022 -48.099,29.61802 50.38517,-25.53576 -50.27453,25.75291 52.23337,-21.50387 -52.1401,21.72904 53.75952,-17.3394 -53.68421,17.57119 54.95423,-13.06803 -54.89734,13.30501 55.81014,-8.71608 -55.77201,8.95679 56.32195,-4.3104 -56.30283,4.55337 56.48652,0.12185 -56.48652,0.12186 56.30283,4.55337 -56.32195,-4.3104 55.77201,8.95679 -55.81014,-8.71608 54.89734,13.30501 -54.95423,-13.06802 53.68421,17.57118 -53.75952,-17.3394 52.1401,21.72904 -52.23337,-21.50387 50.27453,25.75292 -50.38517,-25.53577 48.099,29.61802 -48.22635,-29.41022 45.62693,33.30053 -45.77018,-33.10336 42.87355,36.77772 -43.03183,-36.59239 39.85583,40.02816 -40.02816,-39.85583 36.59239,43.03182 -36.77772,-42.87354 33.10336,45.77018 -33.30053,-45.62693 29.41023,48.22635 -29.61803,-48.099 25.53577,50.38517 -25.75292,-50.27453 21.50387,52.23337 -21.72903,-52.1401 17.3394,53.75952 -17.57119,-53.68421 13.06802,54.95423 -13.305,-54.89734 8.71608,55.81014 -8.9568,-55.77201 4.3104,56.32195 -4.55336,-56.30283 z"
       inkscape:transform-center-x="1.31e-06"
       inkscape:transform-center-y="-2.1666666e-06"
       transform="translate(0.04000432,-10.345532)" />
    <path
       style="fill:none;fill-opacity:1;stroke:url(#radialGradient35072);stroke-width:0.5;stroke-dasharray:none;stroke-opacity:1"
       d="M 104.02129,161.63362 V 54.637439"
       id="path35054"
       sodipodi:nodetypes="cc"
       inkscape:original-d="m 104.02129,161.63362 c 2.6e-4,-27.76377 2.6e-4,-79.231883 0,-106.996181"
       inkscape:path-effect="#path-effect35056" />
    <text
       xml:space="preserve"
       transform="matrix(0.26458333,0,0,0.26458333,-59.706555,11.44566)"
       id="text6212"
       style="font-weight:bold;font-size:96px;font-family:Aero;-inkscape-font-specification:'Aero Bold';text-align:center;white-space:pre;shape-inside:url(#rect6214);display:inline;fill:#000000;fill-opacity:1;stroke:#030303;stroke-width:3.77953;stroke-dasharray:none;stroke-opacity:1"><tspan
         x="388.60599"
         y="512.94531"
         id="tspan3693"><tspan
           style="font-family:Nasalization;-inkscape-font-specification:'Nasalization Bold';fill:#ffffff;stroke:none"
           id="tspan3691">ALUnizar</tspan></tspan></text>
    <g
       id="g2432">
      <path
         style="fill:#595959;fill-opacity:1;stroke:#000000;stroke-width:0.0242875;stroke-linecap:round;stroke-dasharray:none;stroke-opacity:1"
         d="m 106.34348,91.044385 v 1.160705 l -1.45706,0.592706 v -5.112058 l 0.58036,2.346112 z"
         id="path7963-3-1-6-5-1-3-3-9-1"
         sodipodi:nodetypes="cccccc" />
      <path
         style="fill:#595959;fill-opacity:1;stroke:#000000;stroke-width:0.0242875;stroke-linecap:round;stroke-dasharray:none;stroke-opacity:1"
         d="m 101.69907,91.044385 v 1.160705 l 1.45706,0.592706 v -5.112058 l -0.58035,2.346112 z"
         id="path7963-3-0-1-4-4-4-3-3-7-2"
         sodipodi:nodetypes="cccccc" />
      <path
         style="fill:#ffffff;fill-opacity:1;stroke:#000000;stroke-width:0.0242875;stroke-linecap:round;stroke-dasharray:none;stroke-opacity:1"
         d="M 103.15613,92.946061 V 72.439706 h 1.73029 v 20.506355 z"
         id="path8797-4-79-6-1-3-6-5-2"
         sodipodi:nodetypes="ccccc" />
      <path
         style="fill:#595959;fill-opacity:1;stroke:#000000;stroke-width:0.0242875;stroke-linecap:round;stroke-dasharray:none;stroke-opacity:1"
         d="m 103.15613,72.439706 c 0.005,-0.217549 0.0108,-0.435077 0.0176,-0.652575 0.0318,-1.012744 0.0842,-2.024879 0.16104,-3.035206 0.1438,-1.891646 0.37296,-3.776803 0.68652,-5.647814 0.31358,1.87101 0.54273,3.756167 0.68653,5.647814 0.0768,1.010327 0.12927,2.022462 0.16103,3.035206 0.007,0.217498 0.0127,0.435026 0.0176,0.652575 h -1.7303"
         id="path10087-0-2-5-6-0-24-5-6"
         sodipodi:nodetypes="csscsscc"
         inkscape:original-d="m 103.15613,72.439706 c 0.0265,-0.653794 0,0 0.0176,-0.652575 0.0176,-0.654149 0.0621,-2.377418 0.16104,-3.035206 0.0989,-0.657791 0.68652,-5.647814 0.68652,-5.647814 0,0 0.477,5.217098 0.68653,5.647814 0.20952,0.430717 0.11449,2.330906 0.16103,3.035206 0.0465,0.704296 0.0176,0.652575 0.0176,0.652575 h -1.7303"
         inkscape:path-effect="#path-effect10089-0-9-5-2-3-750-1-1-6" />
      <path
         style="fill:#595959;fill-opacity:1;stroke:#000000;stroke-width:0.0242875;stroke-linecap:round;stroke-dasharray:none;stroke-opacity:1"
         d="m 103.15613,92.946061 0.0993,0.238375 1.53203,-0.0043 0.0989,-0.234109 h -1.73029 l 0.06,0.173818"
         id="path11057-9-1-8-7-4-1-3-3"
         sodipodi:nodetypes="cccccc" />
      <text
         xml:space="preserve"
         id="text16623-2-9-9-6-9-3-8-6"
         style="font-style:italic;font-weight:bold;font-size:0.882744px;font-family:'BankGothic Md BT';-inkscape-font-specification:'BankGothic Md BT Bold Italic';text-align:center;text-anchor:middle;white-space:pre;fill:#4f95e4;fill-opacity:1;stroke:#000000;stroke-width:0.0242875;stroke-linecap:round;stroke-dasharray:none;stroke-opacity:1"
         x="80.857811"
         y="-103.74303"
         transform="rotate(90)"><tspan
           style="font-style:italic;font-variant:normal;font-weight:bold;font-stretch:normal;font-family:Nasalization;-inkscape-font-specification:'Nasalization Bold Italic';stroke:#000000;stroke-width:0.0242875;stroke-dasharray:none;stroke-opacity:1"
           id="tspan12821-0-9-7-9-2-0-4-7"><tspan
   style="fill:#000000;fill-opacity:1;stroke:#000000;stroke-width:0.0242875;stroke-dasharray:none;stroke-opacity:1"
   id="tspan13549-9-4-2-9-0-7-0-6">Ad</tspan> lunam<tspan
   style="fill:#000000;fill-opacity:1;stroke:#000000;stroke-width:0.0242875;stroke-dasharray:none;stroke-opacity:1"
   id="tspan14415-2-2-8-7-6-2-9-5">!</tspan></tspan></text>
    </g>
    <path
       style="fill:url(#radialGradient42276);fill-opacity:1;stroke:none;stroke-width:0.0242875;stroke-linecap:round;stroke-dasharray:none;stroke-dashoffset:0;stroke-opacity:1"
       d="m 104.64442,93.180628 c -0.0121,0.09246 -0.0211,0.185319 -0.0272,0.27837 -0.0261,0.401245 0.004,0.803783 0.0337,1.204773 0.0456,0.613912 0.0906,1.227918 0.12311,1.842663 0.19339,3.659416 -0.0599,7.342226 -0.75248,10.940706 -0.69315,-3.59839 -0.94645,-7.2813 -0.75248,-10.940706 0.0326,-0.614739 0.0777,-1.228736 0.12311,-1.842663 0.0296,-0.400993 0.0594,-0.803508 0.0337,-1.204773 -0.006,-0.09304 -0.0149,-0.185898 -0.0268,-0.27837 z"
       id="path32380-2-5-4-9"
       sodipodi:nodetypes="cssscssscc"
       inkscape:original-d="m 104.64442,93.180628 c 0,0 -0.0182,0.185609 -0.0272,0.27837 -0.009,0.09277 0.0224,0.803207 0.0337,1.204773 0.0112,0.401571 0.0821,1.228469 0.12311,1.842663 0.0411,0.614197 -0.75248,10.940706 -0.75248,10.940706 0,0 -0.50167,-7.29378 -0.75248,-10.940706 -0.2508,-3.64691 0.0821,-1.228418 0.12311,-1.842663 0.0411,-0.614239 0.0224,-0.803153 0.0337,-1.204773 0.0112,-0.401611 -0.0268,-0.27837 -0.0268,-0.27837 z"
       inkscape:path-effect="#path-effect32382-8-74-4-06" />
    <path
       sodipodi:type="star"
       style="fill:url(#radialGradient42342);fill-opacity:1;stroke:none;stroke-width:0.499999;stroke-dasharray:none;stroke-opacity:1"
       id="path42334"
       inkscape:flatsided="false"
       sodipodi:sides="16"
       sodipodi:cx="69.222809"
       sodipodi:cy="83.815727"
       sodipodi:r1="7.2404037"
       sodipodi:r2="0.8692444"
       sodipodi:arg1="0.78539816"
       sodipodi:arg2="0.9817477"
       inkscape:rounded="0"
       inkscape:randomized="0"
       d="m 74.342547,88.935466 -4.636812,-4.396988 2.287856,5.96651 -2.601201,-5.836719 -0.169581,6.387862 -0.169581,-6.387862 -2.601202,5.836719 2.287857,-5.96651 -4.636813,4.396988 4.396989,-4.636812 -5.966511,2.287856 5.836719,-2.601202 -6.387862,-0.169581 6.387862,-0.169581 -5.836719,-2.601201 5.966511,2.287856 -4.396989,-4.636812 4.636813,4.396988 -2.287857,-5.96651 2.601202,5.836718 0.169581,-6.387861 0.169581,6.387861 2.601201,-5.836719 -2.287856,5.966511 4.636812,-4.396988 -4.396988,4.636812 5.966511,-2.287856 -5.836719,2.601201 6.387861,0.169581 -6.387861,0.169581 5.836719,2.601202 -5.966511,-2.287856 z"
       transform="rotate(-135,74.026298,75.795798)" />
    <path
       sodipodi:type="star"
       style="fill:url(#radialGradient42342-6);fill-opacity:1;stroke:none;stroke-width:0.499999;stroke-dasharray:none;stroke-opacity:1"
       id="path42334-1"
       inkscape:flatsided="false"
       sodipodi:sides="16"
       sodipodi:cx="69.222809"
       sodipodi:cy="83.815727"
       sodipodi:r1="7.2404037"
       sodipodi:r2="0.8692444"
       sodipodi:arg1="0.78539816"
       sodipodi:arg2="0.9817477"
       inkscape:rounded="0"
       inkscape:randomized="0"
       d="m 74.342547,88.935466 -4.636812,-4.396988 2.287856,5.96651 -2.601201,-5.836719 -0.169581,6.387862 -0.169581,-6.387862 -2.601202,5.836719 2.287857,-5.96651 -4.636813,4.396988 4.396989,-4.636812 -5.966511,2.287856 5.836719,-2.601202 -6.387862,-0.169581 6.387862,-0.169581 -5.836719,-2.601201 5.966511,2.287856 -4.396989,-4.636812 4.636813,4.396988 -2.287857,-5.96651 2.601202,5.836718 0.169581,-6.387861 0.169581,6.387861 2.601201,-5.836719 -2.287856,5.966511 4.636812,-4.396988 -4.396988,4.636812 5.966511,-2.287856 -5.836719,2.601201 6.387861,0.169581 -6.387861,0.169581 5.836719,2.601202 -5.966511,-2.287856 z"
       transform="matrix(0.70710678,-0.70710678,-0.70710678,-0.70710678,135.26763,181.73602)" />
    <path
       sodipodi:type="star"
       style="fill:url(#radialGradient42342-9);fill-opacity:1;stroke:none;stroke-width:0.499999;stroke-dasharray:none;stroke-opacity:1"
       id="path42334-4"
       inkscape:flatsided="false"
       sodipodi:sides="16"
       sodipodi:cx="69.222809"
       sodipodi:cy="83.815727"
       sodipodi:r1="7.2404037"
       sodipodi:r2="0.8692444"
       sodipodi:arg1="0.78539816"
       sodipodi:arg2="0.9817477"
       inkscape:rounded="0"
       inkscape:randomized="0"
       d="m 74.342547,88.935466 -4.636812,-4.396988 2.287856,5.96651 -2.601201,-5.836719 -0.169581,6.387862 -0.169581,-6.387862 -2.601202,5.836719 2.287857,-5.96651 -4.636813,4.396988 4.396989,-4.636812 -5.966511,2.287856 5.836719,-2.601202 -6.387862,-0.169581 6.387862,-0.169581 -5.836719,-2.601201 5.966511,2.287856 -4.396989,-4.636812 4.636813,4.396988 -2.287857,-5.96651 2.601202,5.836718 0.169581,-6.387861 0.169581,6.387861 2.601201,-5.836719 -2.287856,5.966511 4.636812,-4.396988 -4.396988,4.636812 5.966511,-2.287856 -5.836719,2.601201 6.387861,0.169581 -6.387861,0.169581 5.836719,2.601202 -5.966511,-2.287856 z"
       transform="matrix(0.89100652,-0.4539905,-0.4539905,-0.89100652,120.20138,189.2476)" />
    <path
       sodipodi:type="star"
       style="fill:url(#radialGradient42342-3);fill-opacity:1;stroke:none;stroke-width:0.499999;stroke-dasharray:none;stroke-opacity:1"
       id="path42334-5"
       inkscape:flatsided="false"
       sodipodi:sides="16"
       sodipodi:cx="69.222809"
       sodipodi:cy="83.815727"
       sodipodi:r1="7.2404037"
       sodipodi:r2="0.8692444"
       sodipodi:arg1="0.78539816"
       sodipodi:arg2="0.9817477"
       inkscape:rounded="0"
       inkscape:randomized="0"
       d="m 74.342547,88.935466 -4.636812,-4.396988 2.287856,5.96651 -2.601201,-5.836719 -0.169581,6.387862 -0.169581,-6.387862 -2.601202,5.836719 2.287857,-5.96651 -4.636813,4.396988 4.396989,-4.636812 -5.966511,2.287856 5.836719,-2.601202 -6.387862,-0.169581 6.387862,-0.169581 -5.836719,-2.601201 5.966511,2.287856 -4.396989,-4.636812 4.636813,4.396988 -2.287857,-5.96651 2.601202,5.836718 0.169581,-6.387861 0.169581,6.387861 2.601201,-5.836719 -2.287856,5.966511 4.636812,-4.396988 -4.396988,4.636812 5.966511,-2.287856 -5.836719,2.601201 6.387861,0.169581 -6.387861,0.169581 5.836719,2.601202 -5.966511,-2.287856 z"
       transform="rotate(-63,125.68978,17.872817)" />
    <path
       sodipodi:type="star"
       style="fill:url(#radialGradient42342-1);fill-opacity:1;stroke:none;stroke-width:0.499999;stroke-dasharray:none;stroke-opacity:1"
       id="path42334-9"
       inkscape:flatsided="false"
       sodipodi:sides="16"
       sodipodi:cx="69.222809"
       sodipodi:cy="83.815727"
       sodipodi:r1="7.2404037"
       sodipodi:r2="0.8692444"
       sodipodi:arg1="0.78539816"
       sodipodi:arg2="0.9817477"
       inkscape:rounded="0"
       inkscape:randomized="0"
       d="m 74.342547,88.935466 -4.636812,-4.396988 2.287856,5.96651 -2.601201,-5.836719 -0.169581,6.387862 -0.169581,-6.387862 -2.601202,5.836719 2.287857,-5.96651 -4.636813,4.396988 4.396989,-4.636812 -5.966511,2.287856 5.836719,-2.601202 -6.387862,-0.169581 6.387862,-0.169581 -5.836719,-2.601201 5.966511,2.287856 -4.396989,-4.636812 4.636813,4.396988 -2.287857,-5.96651 2.601202,5.836718 0.169581,-6.387861 0.169581,6.387861 2.601201,-5.836719 -2.287856,5.966511 4.636812,-4.396988 -4.396988,4.636812 5.966511,-2.287856 -5.836719,2.601201 6.387861,0.169581 -6.387861,0.169581 5.836719,2.601202 -5.966511,-2.287856 z"
       transform="rotate(-45,158.88496,-19.3442)" />
    <path
       sodipodi:type="star"
       style="fill:url(#radialGradient42342-9-2);fill-opacity:1;stroke:none;stroke-width:0.499999;stroke-dasharray:none;stroke-opacity:1"
       id="path42334-4-2"
       inkscape:flatsided="false"
       sodipodi:sides="16"
       sodipodi:cx="69.222809"
       sodipodi:cy="83.815727"
       sodipodi:r1="7.2404037"
       sodipodi:r2="0.8692444"
       sodipodi:arg1="0.78539816"
       sodipodi:arg2="0.9817477"
       inkscape:rounded="0"
       inkscape:randomized="0"
       d="m 74.342547,88.935466 -4.636812,-4.396988 2.287856,5.96651 -2.601201,-5.836719 -0.169581,6.387862 -0.169581,-6.387862 -2.601202,5.836719 2.287857,-5.96651 -4.636813,4.396988 4.396989,-4.636812 -5.966511,2.287856 5.836719,-2.601202 -6.387862,-0.169581 6.387862,-0.169581 -5.836719,-2.601201 5.966511,2.287856 -4.396989,-4.636812 4.636813,4.396988 -2.287857,-5.96651 2.601202,5.836718 0.169581,-6.387861 0.169581,6.387861 2.601201,-5.836719 -2.287856,5.966511 4.636812,-4.396988 -4.396988,4.636812 5.966511,-2.287856 -5.836719,2.601201 6.387861,0.169581 -6.387861,0.169581 5.836719,2.601202 -5.966511,-2.287856 z"
       transform="rotate(-153,66.63782,84.079387)" />
    <path
       sodipodi:type="star"
       style="fill:url(#radialGradient42342-3-0);fill-opacity:1;stroke:none;stroke-width:0.499999;stroke-dasharray:none;stroke-opacity:1"
       id="path42334-5-8"
       inkscape:flatsided="false"
       sodipodi:sides="16"
       sodipodi:cx="69.222809"
       sodipodi:cy="83.815727"
       sodipodi:r1="7.2404037"
       sodipodi:r2="0.8692444"
       sodipodi:arg1="0.78539816"
       sodipodi:arg2="0.9817477"
       inkscape:rounded="0"
       inkscape:randomized="0"
       d="m 74.342547,88.935466 -4.636812,-4.396988 2.287856,5.96651 -2.601201,-5.836719 -0.169581,6.387862 -0.169581,-6.387862 -2.601202,5.836719 2.287857,-5.96651 -4.636813,4.396988 4.396989,-4.636812 -5.966511,2.287856 5.836719,-2.601202 -6.387862,-0.169581 6.387862,-0.169581 -5.836719,-2.601201 5.966511,2.287856 -4.396989,-4.636812 4.636813,4.396988 -2.287857,-5.96651 2.601202,5.836718 0.169581,-6.387861 0.169581,6.387861 2.601201,-5.836719 -2.287856,5.966511 4.636812,-4.396988 -4.396988,4.636812 5.966511,-2.287856 -5.836719,2.601201 6.387861,0.169581 -6.387861,0.169581 5.836719,2.601202 -5.966511,-2.287856 z"
       transform="matrix(-0.4539905,-0.89100652,-0.89100652,0.4539905,155.33967,121.74915)" />
    <path
       sodipodi:type="star"
       style="fill:url(#radialGradient42342-1-6);fill-opacity:1;stroke:none;stroke-width:0.499999;stroke-dasharray:none;stroke-opacity:1"
       id="path42334-9-8"
       inkscape:flatsided="false"
       sodipodi:sides="16"
       sodipodi:cx="69.222809"
       sodipodi:cy="83.815727"
       sodipodi:r1="7.2404037"
       sodipodi:r2="0.8692444"
       sodipodi:arg1="0.78539816"
       sodipodi:arg2="0.9817477"
       inkscape:rounded="0"
       inkscape:randomized="0"
       d="m 74.342547,88.935466 -4.636812,-4.396988 2.287856,5.96651 -2.601201,-5.836719 -0.169581,6.387862 -0.169581,-6.387862 -2.601202,5.836719 2.287857,-5.96651 -4.636813,4.396988 4.396989,-4.636812 -5.966511,2.287856 5.836719,-2.601202 -6.387862,-0.169581 6.387862,-0.169581 -5.836719,-2.601201 5.966511,2.287856 -4.396989,-4.636812 4.636813,4.396988 -2.287857,-5.96651 2.601202,5.836718 0.169581,-6.387861 0.169581,6.387861 2.601201,-5.836719 -2.287856,5.966511 4.636812,-4.396988 -4.396988,4.636812 5.966511,-2.287856 -5.836719,2.601201 6.387861,0.169581 -6.387861,0.169581 5.836719,2.601202 -5.966511,-2.287856 z"
       transform="matrix(-0.70710678,-0.70710678,-0.70710678,0.70710678,147.82795,106.68284)" />
    <circle
       style="fill:none;fill-opacity:1;stroke:#404040;stroke-width:5;stroke-dasharray:none;stroke-opacity:1"
       id="path49323"
       cx="104.02129"
       cy="137.92953"
       r="85.564537" />
    <circle
       style="fill:none;fill-opacity:1;stroke:url(#radialGradient51337);stroke-width:2.5;stroke-dasharray:none;stroke-opacity:1"
       id="path49323-1"
       cx="104.02129"
       cy="137.92953"
       r="85.564537" />
    <circle
       style="fill:none;stroke:#ffffff;stroke-width:0.35;stroke-dasharray:none;stroke-opacity:1"
       id="path2264"
       cx="91.82962"
       cy="95.811333"
       r="1.7773423"
       transform="rotate(20)" />
  </g>
</svg>
