<?xml version="1.0" encoding="UTF-8" standalone="no"?>
<!-- Created with Inkscape (http://www.inkscape.org/) -->

<svg
   width="209.42096mm"
   height="209.42096mm"
   viewBox="0 0 209.42097 209.42096"
   version="1.1"
   id="svg5"
   sodipodi:docname="LOGO_FINAL_REDONDO_6.svg"
   inkscape:version="1.2.2 (732a01da63, 2022-12-09)"
   xmlns:inkscape="http://www.inkscape.org/namespaces/inkscape"
   xmlns:sodipodi="http://sodipodi.sourceforge.net/DTD/sodipodi-0.dtd"
   xmlns:xlink="http://www.w3.org/1999/xlink"
   xmlns="http://www.w3.org/2000/svg"
   xmlns:svg="http://www.w3.org/2000/svg">
  <sodipodi:namedview
     id="namedview7"
     pagecolor="#000000"
     bordercolor="#000000"
     borderopacity="0.25"
     inkscape:showpageshadow="2"
     inkscape:pageopacity="0"
     inkscape:pagecheckerboard="0"
     inkscape:deskcolor="#d1d1d1"
     inkscape:document-units="mm"
     showgrid="false"
     inkscape:zoom="0.70710678"
     inkscape:cx="304.76302"
     inkscape:cy="496.38896"
     inkscape:window-width="1680"
     inkscape:window-height="987"
     inkscape:window-x="-8"
     inkscape:window-y="-8"
     inkscape:window-maximized="1"
     inkscape:current-layer="layer1" />
  <defs
     id="defs2">
    <linearGradient
       inkscape:collect="always"
       id="linearGradient2944">
      <stop
         style="stop-color:#ffffff;stop-opacity:1;"
         offset="0.96682465"
         id="stop2940" />
      <stop
         style="stop-color:#ffffff;stop-opacity:0;"
         offset="1"
         id="stop2942" />
    </linearGradient>
    <linearGradient
       inkscape:collect="always"
       id="linearGradient22967">
      <stop
         style="stop-color:#ffffff;stop-opacity:1;"
         offset="0"
         id="stop22963" />
      <stop
         style="stop-color:#ffffff;stop-opacity:0;"
         offset="1"
         id="stop22965" />
    </linearGradient>
    <linearGradient
       inkscape:collect="always"
       id="linearGradient22941">
      <stop
         style="stop-color:#ffffff;stop-opacity:1;"
         offset="0"
         id="stop22937" />
      <stop
         style="stop-color:#ffffff;stop-opacity:0;"
         offset="1"
         id="stop22939" />
    </linearGradient>
    <inkscape:path-effect
       effect="spiro"
       id="path-effect21262"
       is_visible="true"
       lpeversion="1" />
    <inkscape:path-effect
       effect="spiro"
       id="path-effect1944"
       is_visible="true"
       lpeversion="1" />
    <inkscape:path-effect
       effect="spiro"
       id="path-effect23913"
       is_visible="true"
       lpeversion="1" />
    <inkscape:path-effect
       effect="spiro"
       id="path-effect23909"
       is_visible="true"
       lpeversion="1" />
    <inkscape:path-effect
       effect="spiro"
       id="path-effect22408"
       is_visible="true"
       lpeversion="1" />
    <inkscape:path-effect
       effect="spiro"
       id="path-effect21678"
       is_visible="true"
       lpeversion="1" />
    <inkscape:path-effect
       effect="spiro"
       id="path-effect12128"
       is_visible="true"
       lpeversion="1" />
    <inkscape:path-effect
       effect="spiro"
       id="path-effect6953"
       is_visible="true"
       lpeversion="1" />
    <inkscape:path-effect
       effect="spiro"
       id="path-effect6949"
       is_visible="true"
       lpeversion="1" />
    <inkscape:path-effect
       effect="spiro"
       id="path-effect4005"
       is_visible="true"
       lpeversion="1" />
    <inkscape:path-effect
       effect="spiro"
       id="path-effect1597"
       is_visible="true"
       lpeversion="1" />
    <inkscape:path-effect
       effect="spiro"
       id="path-effect1593"
       is_visible="true"
       lpeversion="1" />
    <inkscape:path-effect
       effect="spiro"
       id="path-effect1589"
       is_visible="true"
       lpeversion="1" />
    <inkscape:path-effect
       effect="spiro"
       id="path-effect1435"
       is_visible="true"
       lpeversion="1" />
    <inkscape:path-effect
       effect="spiro"
       id="path-effect332"
       is_visible="true"
       lpeversion="1" />
    <inkscape:path-effect
       effect="spiro"
       id="path-effect11326"
       is_visible="true"
       lpeversion="1" />
    <inkscape:path-effect
       effect="spiro"
       id="path-effect4881"
       is_visible="true"
       lpeversion="1" />
    <rect
       x="143.88229"
       y="428.07953"
       width="577.90741"
       height="258.03683"
       id="rect236" />
    <rect
       x="143.88229"
       y="428.07953"
       width="577.90741"
       height="258.03683"
       id="rect236-8" />
    <inkscape:path-effect
       effect="spiro"
       id="path-effect4881-2"
       is_visible="true"
       lpeversion="1" />
    <inkscape:path-effect
       effect="spiro"
       id="path-effect12128-5"
       is_visible="true"
       lpeversion="1" />
    <inkscape:path-effect
       effect="spiro"
       id="path-effect11326-0"
       is_visible="true"
       lpeversion="1" />
    <radialGradient
       inkscape:collect="always"
       xlink:href="#linearGradient1467"
       id="radialGradient1469"
       cx="104.775"
       cy="150.28333"
       fx="104.775"
       fy="150.28333"
       r="94.287498"
       gradientUnits="userSpaceOnUse"
       gradientTransform="matrix(1.1105447,0,0,1.1105447,2.657128,-21.407625)" />
    <linearGradient
       inkscape:collect="always"
       id="linearGradient1467">
      <stop
         style="stop-color:#00aaff;stop-opacity:0;"
         offset="0.78436017"
         id="stop1465" />
      <stop
         style="stop-color:#00aaff;stop-opacity:0.60370368;"
         offset="1"
         id="stop1463" />
    </linearGradient>
    <linearGradient
       inkscape:collect="always"
       xlink:href="#linearGradient1933"
       id="linearGradient1927"
       x1="188.59592"
       y1="90.676155"
       x2="188.59592"
       y2="278.00116"
       gradientUnits="userSpaceOnUse"
       gradientTransform="matrix(1.1105447,0,0,1.1105447,-90.429732,-59.227595)" />
    <linearGradient
       inkscape:collect="always"
       id="linearGradient1933">
      <stop
         style="stop-color:#00aaff;stop-opacity:0;"
         offset="0.53286386"
         id="stop1929" />
      <stop
         style="stop-color:#00aaff;stop-opacity:0.60370368;"
         offset="1"
         id="stop1931" />
    </linearGradient>
    <inkscape:path-effect
       effect="spiro"
       id="path-effect10089-0-9-5-2-3-750-1-1-6"
       is_visible="true"
       lpeversion="1" />
    <inkscape:path-effect
       effect="spiro"
       id="path-effect32382-8-74-4-06"
       is_visible="true"
       lpeversion="1" />
    <inkscape:path-effect
       effect="spiro"
       id="path-effect10089-0-9-5-2-3-750-1-1-6-1"
       is_visible="true"
       lpeversion="1" />
    <inkscape:path-effect
       effect="spiro"
       id="path-effect32382-8-74-4-06-2"
       is_visible="true"
       lpeversion="1" />
    <inkscape:path-effect
       effect="spiro"
       id="path-effect10123"
       is_visible="true"
       lpeversion="1" />
    <inkscape:path-effect
       effect="spiro"
       id="path-effect10123-8"
       is_visible="true"
       lpeversion="1" />
    <radialGradient
       inkscape:collect="always"
       xlink:href="#linearGradient33407"
       id="radialGradient33409"
       cx="103.98125"
       cy="171.97916"
       fx="103.98125"
       fy="171.97916"
       r="59.588009"
       gradientUnits="userSpaceOnUse" />
    <linearGradient
       inkscape:collect="always"
       id="linearGradient33407">
      <stop
         style="stop-color:#ffffff;stop-opacity:1;"
         offset="0"
         id="stop33405" />
      <stop
         style="stop-color:#ffffff;stop-opacity:0.73666674;"
         offset="1"
         id="stop33403" />
    </linearGradient>
    <inkscape:path-effect
       effect="spiro"
       id="path-effect21262-1"
       is_visible="true"
       lpeversion="1" />
    <radialGradient
       inkscape:collect="always"
       xlink:href="#linearGradient22941"
       id="radialGradient22943"
       cx="283.47781"
       cy="512.35504"
       fx="283.47781"
       fy="512.35504"
       r="4.3036685"
       gradientTransform="matrix(1,0,0,99.519863,0,-50477.148)"
       gradientUnits="userSpaceOnUse" />
    <linearGradient
       inkscape:collect="always"
       xlink:href="#linearGradient22967"
       id="linearGradient22969"
       x1="40.241833"
       y1="235.24249"
       x2="72.581299"
       y2="243.66791"
       gradientUnits="userSpaceOnUse"
       gradientTransform="matrix(0.61470504,0,0,0.61470504,19.056597,95.112302)" />
    <linearGradient
       inkscape:collect="always"
       xlink:href="#linearGradient22967"
       id="linearGradient1925"
       gradientUnits="userSpaceOnUse"
       gradientTransform="matrix(0.61470504,0,0,0.61470504,-103.75899,-377.11399)"
       x1="40.241833"
       y1="235.24249"
       x2="72.581299"
       y2="243.66791" />
    <linearGradient
       inkscape:collect="always"
       xlink:href="#linearGradient22967"
       id="linearGradient1984"
       gradientUnits="userSpaceOnUse"
       gradientTransform="matrix(0.45033313,0,0,0.45033313,-93.867121,-340.08536)"
       x1="40.241833"
       y1="235.24249"
       x2="72.581299"
       y2="243.66791" />
    <linearGradient
       inkscape:collect="always"
       xlink:href="#linearGradient22967"
       id="linearGradient2020"
       gradientUnits="userSpaceOnUse"
       gradientTransform="matrix(0.45033313,0,0,0.45033313,28.948479,132.14093)"
       x1="40.241833"
       y1="235.24249"
       x2="72.581299"
       y2="243.66791" />
    <radialGradient
       inkscape:collect="always"
       xlink:href="#linearGradient2944"
       id="radialGradient2946"
       cx="170.22112"
       cy="173.87682"
       fx="170.22112"
       fy="173.87682"
       r="9.0913118"
       gradientTransform="matrix(1,0,0,0.50619182,0,85.861794)"
       gradientUnits="userSpaceOnUse" />
    <radialGradient
       inkscape:collect="always"
       xlink:href="#linearGradient22967"
       id="radialGradient22943-1"
       cx="283.47781"
       cy="512.35504"
       fx="283.47781"
       fy="512.35504"
       r="4.3036685"
       gradientTransform="matrix(1,0,0,99.519863,0,-50477.148)"
       gradientUnits="userSpaceOnUse" />
    <inkscape:path-effect
       effect="spiro"
       id="path-effect11326-8"
       is_visible="true"
       lpeversion="1" />
    <rect
       x="143.88229"
       y="428.07953"
       width="577.90741"
       height="258.03683"
       id="rect236-2" />
    <rect
       x="143.88229"
       y="428.07953"
       width="577.90741"
       height="258.03683"
       id="rect236-8-1" />
    <inkscape:path-effect
       effect="spiro"
       id="path-effect23909-8"
       is_visible="true"
       lpeversion="1" />
    <inkscape:path-effect
       effect="spiro"
       id="path-effect23913-0"
       is_visible="true"
       lpeversion="1" />
    <inkscape:path-effect
       effect="spiro"
       id="path-effect1944-9"
       is_visible="true"
       lpeversion="1" />
  </defs>
  <g
     inkscape:label="Capa 1"
     inkscape:groupmode="layer"
     id="layer1"
     transform="translate(-14.303995,-40.778398)">
    <circle
       style="fill:#000000;fill-opacity:1;stroke:#00aaff;stroke-width:1.38818;stroke-dasharray:none;stroke-dashoffset:0;stroke-opacity:1"
       id="path18053"
       cx="119.01447"
       cy="145.48888"
       r="104.01639" />
    <circle
       style="fill:none;fill-opacity:1;stroke:#006699;stroke-width:3.33163;stroke-dasharray:none;stroke-dashoffset:0;stroke-opacity:1"
       id="path18833"
       cx="119.01447"
       cy="145.48888"
       r="101.10327" />
    <path
       style="fill:none;fill-opacity:1;stroke:none;stroke-width:0.277636;stroke-dasharray:none;stroke-opacity:1"
       id="path33174"
       sodipodi:type="arc"
       sodipodi:cx="-182.33879"
       sodipodi:cy="45.502945"
       sodipodi:rx="93.881393"
       sodipodi:ry="93.881393"
       sodipodi:start="1.6244034"
       sodipodi:end="0.66530446"
       sodipodi:open="true"
       sodipodi:arc-type="arc"
       d="m -187.36909,139.24948 a 93.881393,93.881393 0 0 1 -87.2289,-76.369639 93.881393,93.881393 0 0 1 53.46936,-102.869964 93.881393,93.881393 0 0 1 112.62512,27.509732 93.881393,93.881393 0 0 1 0.0239,115.936201"
       transform="matrix(-0.80154473,-0.59793482,-0.59793482,0.80154473,0,0)" />
    <path
       style="fill:none;fill-opacity:1;stroke:none;stroke-width:0.333163;stroke-dasharray:none;stroke-dashoffset:0;stroke-opacity:1"
       id="path82908"
       sodipodi:type="arc"
       sodipodi:cx="187.58214"
       sodipodi:cy="14.213766"
       sodipodi:rx="86.637184"
       sodipodi:ry="86.637184"
       sodipodi:start="1.6244034"
       sodipodi:end="0.66530446"
       sodipodi:open="true"
       sodipodi:arc-type="arc"
       d="m 182.94,100.72649 a 86.637184,86.637184 0 0 1 -80.49802,-70.476688 86.637184,86.637184 0 0 1 49.34348,-94.932167 86.637184,86.637184 0 0 1 103.93458,25.386988 86.637184,86.637184 0 0 1 0.0221,106.990163"
       transform="rotate(46.421775)" />
    <path
       style="fill:none;fill-opacity:1;stroke:none;stroke-width:0.333163;stroke-dasharray:none;stroke-dashoffset:0;stroke-opacity:1"
       id="path82908-3"
       sodipodi:type="arc"
       sodipodi:cx="-186.75087"
       sodipodi:cy="19.036758"
       sodipodi:rx="93.291534"
       sodipodi:ry="93.291534"
       sodipodi:start="1.6244034"
       sodipodi:end="0.66530446"
       sodipodi:open="true"
       sodipodi:arc-type="arc"
       d="m -191.74956,112.19428 a 93.291534,93.291534 0 0 1 -86.68084,-75.889805 93.291534,93.291534 0 0 1 53.13341,-102.22363 93.291534,93.291534 0 0 1 111.91749,27.336888 93.291534,93.291534 0 0 1 0.0238,115.207767"
       transform="matrix(-0.70605934,-0.70815267,-0.70815267,0.70605934,0,0)" />
    <path
       style="fill:none;fill-opacity:1;stroke:none;stroke-width:0.333163;stroke-dasharray:none;stroke-dashoffset:0;stroke-opacity:1"
       id="path82908-3-7"
       sodipodi:type="arc"
       sodipodi:cx="182.26392"
       sodipodi:cy="45.201851"
       sodipodi:rx="87.854118"
       sodipodi:ry="87.854118"
       sodipodi:start="1.6244034"
       sodipodi:end="0.66530446"
       sodipodi:open="true"
       sodipodi:arc-type="arc"
       d="M 177.55657,132.92977 A 87.854118,87.854118 0 0 1 95.927847,61.463134 87.854118,87.854118 0 0 1 145.96443,-34.802481 87.854118,87.854118 0 0 1 251.3589,-9.0588993 87.854118,87.854118 0 0 1 251.38129,99.434083"
       transform="rotate(36.972915)" />
    <circle
       style="fill:url(#radialGradient1469);fill-opacity:1;stroke:#00aaff;stroke-width:1.38818;stroke-dasharray:none;stroke-dashoffset:0;stroke-opacity:1"
       id="path18053-0"
       cx="119.01447"
       cy="145.48888"
       r="104.01639" />
    <g
       id="g6888"
       transform="translate(-1.2209345,-4.6154041)">
      <path
         style="fill:none;fill-opacity:1;stroke:#ffffff;stroke-width:0.5;stroke-dasharray:none;stroke-opacity:1"
         d="m 49.926516,172.59644 c -7.528571,-6.06487 -12.10774,-15.63396 -12.10774,-25.30153 0,-9.66758 4.579169,-19.23667 12.10774,-25.30154 6.40181,-5.15718 14.72633,-7.73864 22.945471,-7.57943 8.219141,0.15921 16.29946,2.98016 23.113149,7.57943 9.506364,6.41683 16.371734,15.9622 23.029314,25.30154 6.65758,9.33933 13.52295,18.8847 23.02931,25.30153 6.81369,4.59927 14.89401,7.42022 23.11315,7.57943 8.21914,0.15921 16.54366,-2.42225 22.94547,-7.57943 7.52857,-6.06487 12.10774,-15.63396 12.10774,-25.30154 0,-9.66757 -4.57917,-19.23666 -12.10774,-25.30153 -6.40181,-5.15718 -14.72633,-7.73864 -22.94547,-7.57943 -8.21914,0.15921 -16.29946,2.98016 -23.11315,7.57943 -9.50636,6.41683 -16.37173,15.9622 -23.02931,25.30154 -6.65758,9.33933 -13.52295,18.8847 -23.029314,25.30153 -6.813689,4.59927 -14.894008,7.42022 -23.113149,7.57943 -8.219141,0.15921 -16.543661,-2.42225 -22.945471,-7.57943 z"
         id="path11324"
         inkscape:path-effect="#path-effect11326-8"
         inkscape:original-d="m 49.926516,172.59644 c -22.763541,-11.46383 -6.87774,-33.57127 0,-50.60307 6.87774,-17.03181 25.588471,-4.7488 46.05862,0 20.470134,4.7488 32.630324,29.15033 46.058624,50.60307 13.4283,21.45273 18.21908,-2.78364 46.05862,0 27.83953,2.78364 -2.94742,-23.25414 0,-50.60307 2.9474,-27.348951 -21.00238,-3.93 -46.05862,0 -25.05624,3.92998 -22.31251,27.67646 -46.058624,50.60307 -23.746122,22.92661 -23.295078,11.46382 -46.05862,0 z"
         sodipodi:nodetypes="sssssssss" />
      <path
         id="rect11328-3"
         style="stroke-width:0.598121"
         d="m 131.37089,94.60836 40.99851,29.17011 -31.6075,40.30874 -78.154357,22.46299 z"
         sodipodi:nodetypes="ccccc" />
      <text
         xml:space="preserve"
         transform="matrix(0.26458333,0,0,0.26458333,13.268312,12.806156)"
         id="text234"
         style="font-size:106.667px;font-family:Nasalization;-inkscape-font-specification:Nasalization;white-space:pre;shape-inside:url(#rect236-2);display:inline;fill:#ffffff;fill-opacity:1;stroke:none;stroke-width:2.45669"><tspan
           x="143.88281"
           y="519.57834"
           id="tspan7131">ALUnizar</tspan></text>
      <text
         xml:space="preserve"
         transform="matrix(0.26458333,0,0,0.26458333,42.85252,39.129913)"
         id="text234-3"
         style="font-size:53.3333px;font-family:Nasalization;-inkscape-font-specification:Nasalization;white-space:pre;shape-inside:url(#rect236-8-1);display:inline;fill:#ffffff;fill-opacity:1;stroke:none;stroke-width:2.45669"><tspan
           x="143.88281"
           y="473.82904"
           id="tspan7137"><tspan
   style="fill:#808080"
   id="tspan7133">Ad</tspan> <tspan
   style="fill:#00a9ff"
   id="tspan7135">Lunam</tspan></tspan></text>
      <path
         id="rect6373-6-9"
         style="fill:#2e75b6;fill-opacity:1;stroke-width:0.119187"
         d="m 141.55086,122.74392 0.006,-9.5e-4 c -1.8e-4,1.8e-4 -3.2e-4,3.6e-4 -3.8e-4,5.7e-4 l -4.8e-4,3.3e-4 9.5e-4,-3.4e-4 -5.2e-4,2.5e-4 9.5e-4,-3.3e-4 c 1.59114,-0.0764 3.17465,-0.31086 4.71964,-0.69882 1.01113,-0.25388 2.00792,-0.57422 2.957,-1.00563 0.0323,-0.0146 0.0641,-0.03 0.0962,-0.0446 l 0.72316,0.50699 1.00124,-0.45926 0.58283,0.42839 2.10198,-0.9607 -1.68357,-1.19947 c 0.14505,-0.1155 0.28803,-0.23347 0.42823,-0.35481 l 5.4e-4,-1.6e-4 -1.5e-4,-3.2e-4 c 7e-5,-8e-5 1.4e-4,-1.4e-4 2.9e-4,-2.5e-4 l -3.3e-4,1.5e-4 -0.0927,-0.20371 a 1.0370195,1.3644994 65.387833 0 0 0.22359,-1.07362 1.0370195,1.3644994 65.387833 0 0 -0.95971,-0.53194 l -0.0936,-0.203 3.4e-4,-1.6e-4 c -1.3e-4,3e-5 -1.9e-4,5e-5 -3.7e-4,9e-5 l -1.5e-4,-3.3e-4 -4.8e-4,3.1e-4 c -0.18342,0.0269 -0.36618,0.058 -0.54832,0.0924 l 0.19114,-2.05817 -2.10032,0.96434 -0.0563,0.72115 -1.00172,0.45826 -0.0884,0.87876 c -0.0322,0.0145 -0.0647,0.0289 -0.0967,0.0436 -0.94656,0.43691 -1.84014,0.98254 -2.69275,1.58247 -1.30059,0.91505 -2.51046,1.959 -3.60599,3.11167 z" />
      <path
         id="path6566"
         style="fill:#00b0f0;fill-opacity:1;stroke:none;stroke-width:0.0586168"
         d="m 151.97873,117.97019 a 1.3017672,2.108338 65.387833 0 0 2.4589,0.30534 1.3017672,2.108338 65.387833 0 0 0.78607,-0.50627 l 3.63071,-2.94892 -4.60432,0.82356 a 1.3017672,2.108338 65.387833 0 0 -0.89676,0.26465 1.3017672,2.108338 65.387833 0 0 -1.37464,2.06156 z" />
      <path
         style="fill:none;fill-opacity:1;stroke:#808080;stroke-width:0.499999;stroke-dasharray:none;stroke-opacity:1"
         d="m 67.90777,179.06283 c -6.622428,-0.95509 -12.929402,-3.99073 -17.807069,-8.57081 -4.871121,-4.57393 -8.304361,-10.69642 -9.486153,-17.27305 -1.181708,-6.57616 -0.08455,-13.53945 3.060371,-19.43451 3.981221,-7.46267 11.214021,-13.06948 19.380868,-15.27043 6.938202,-1.86983 14.526069,-1.31558 21.066279,1.66109 4.745681,2.15992 8.917764,5.56556 11.984217,9.78262"
         id="path23907"
         inkscape:path-effect="#path-effect23909-8"
         inkscape:original-d="m 67.90777,179.06283 c -4.178049,-3.18024 -17.434008,14.26152 -17.807069,-8.57081 -0.08498,-5.20128 -2.002341,-12.78265 -9.486153,-17.27305 -7.483811,-4.49039 0.877934,-9.20673 3.060371,-19.43451 2.182436,-10.22778 8.027912,-14.84961 19.380868,-15.27043 7.122259,-0.26401 13.770084,3.0957 21.066279,1.66109 7.296198,-1.43461 5.498737,6.10347 11.984217,9.78262"
         sodipodi:nodetypes="csssssc" />
      <path
         style="fill:none;fill-opacity:1;stroke:#808080;stroke-width:0.499999;stroke-dasharray:none;stroke-opacity:1"
         d="m 125.25399,166.35003 c 4.59456,4.63026 9.93245,8.52135 15.74659,11.47857 5.74974,2.92446 11.98057,4.93845 18.38251,5.73038 7.95863,0.9845 16.26184,0.021 23.46034,-3.51319 4.91072,-2.41098 9.23985,-5.98837 12.55925,-10.33688 6.32,-8.27939 8.77412,-19.44085 6.29911,-29.5584 -1.38426,-5.65871 -4.24272,-10.94493 -8.1898,-15.22952 -3.94708,-4.28459 -8.9719,-7.56181 -14.47063,-9.48565 -6.29582,-2.20272 -13.20541,-2.62025 -19.72066,-1.19167"
         id="path23911"
         inkscape:path-effect="#path-effect23913-0"
         inkscape:original-d="m 125.25399,166.35003 c 4.17858,3.55495 11.56854,7.92415 15.74659,11.47857 4.17805,3.55442 24.83552,9.08998 18.38251,5.73038 -0.92293,-0.4805 15.35343,-2.26567 23.46034,-3.51319 8.10691,-1.24752 7.41034,-4.15788 12.55925,-10.33688 4.85832,-5.83028 7.67136,-20.01662 6.29911,-29.5584 -1.37225,-9.54179 -15.17662,-22.96874 -22.66043,-24.71517 -7.48381,-1.74643 -15.90865,1.52517 -19.72066,-1.19167"
         sodipodi:nodetypes="cssssssc" />
      <circle
         style="fill:#000000;fill-opacity:1;stroke:#ffffff;stroke-width:0.1;stroke-dasharray:none;stroke-opacity:1"
         id="path1656"
         cx="133.68294"
         cy="130.22136"
         r="3.1183302" />
      <rect
         style="fill:#000000;fill-opacity:1;stroke:none;stroke-width:0.0769458;stroke-dasharray:none;stroke-opacity:1"
         id="rect2094"
         width="7.9540353"
         height="8.0036459"
         x="129.80014"
         y="126.21259" />
      <path
         style="fill:#ffffff;fill-opacity:1;stroke:none;stroke-width:0.475001;stroke-dasharray:none;stroke-opacity:1"
         d="m 136.42825,128.83244 c -0.44465,-0.8916 -1.34191,-1.5423 -2.32753,-1.68793 -0.98562,-0.14564 -2.03273,0.21776 -2.71623,0.94267 -0.54765,0.58083 -0.85773,1.3771 -0.85701,2.1754 7.2e-4,0.79605 0.3105,1.5897 0.85701,2.16852 0.68575,0.7263 1.73779,1.08767 2.7251,0.93604 0.98732,-0.15162 1.88244,-0.81201 2.31866,-1.71061 -0.29748,0.4291 -0.73412,0.76006 -1.22764,0.93053 -0.49352,0.17046 -1.04135,0.17954 -1.54024,0.0255 -0.4989,-0.15402 -0.94626,-0.47034 -1.25779,-0.88935 -0.31154,-0.41901 -0.48561,-0.93852 -0.48942,-1.46064 -0.004,-0.52513 0.16464,-1.05012 0.47334,-1.47496 0.3087,-0.42483 0.75596,-0.74725 1.2566,-0.90582 0.50063,-0.15857 1.05196,-0.15246 1.54895,0.0172 0.49699,0.16964 0.937,0.50189 1.2362,0.93347 z"
         id="path1942"
         inkscape:path-effect="#path-effect1944-9"
         inkscape:original-d="m 136.42825,128.83244 c -0.37834,0.0465 -4.54459,-1.13086 -5.04376,-0.74526 -0.49917,0.38561 -0.67356,1.52475 -0.85701,2.1754 -0.18346,0.65065 0.51038,1.475 0.85701,2.16852 0.34663,0.69353 4.37363,-1.01986 5.04376,-0.77457 0.61347,-0.0133 -4.51844,-0.30043 -4.51509,-1.39395 0.003,-1.09353 5.08388,-1.4022 4.51509,-1.43014 z"
         sodipodi:nodetypes="csssczc" />
      <circle
         style="fill:#808080;fill-opacity:1;stroke:none;stroke-width:0.08061;stroke-dasharray:none;stroke-opacity:1"
         id="path2304"
         cx="134.39445"
         cy="130.24876"
         r="2.0799427" />
    </g>
    <circle
       style="fill:url(#linearGradient1927);fill-opacity:1;stroke:none;stroke-width:1.38818;stroke-dasharray:none;stroke-dashoffset:0;stroke-opacity:1"
       id="path18053-0-3"
       cx="119.01447"
       cy="145.48888"
       r="104.01639" />
    <path
       sodipodi:type="star"
       style="fill:url(#radialGradient33409);fill-opacity:1;stroke:none;stroke-width:0.1;stroke-dasharray:none;stroke-opacity:1"
       id="path32315"
       inkscape:flatsided="false"
       sodipodi:sides="160"
       sodipodi:cx="103.98125"
       sodipodi:cy="171.97916"
       sodipodi:r1="59.588009"
       sodipodi:r2="3.1038868"
       sodipodi:arg1="1.5707963"
       sodipodi:arg2="1.5904313"
       inkscape:rounded="0"
       inkscape:randomized="0"
       d="m 103.98125,231.56717 -0.0609,-56.48472 -2.27848,56.43878 2.15669,-56.44357 -4.492493,56.30582 4.370983,-56.31538 -6.699581,56.08603 6.578551,-56.10036 -8.89635,55.77977 8.77597,-55.79883 -11.079395,55.38749 10.959855,-55.41127 -13.245356,54.90981 13.126836,-54.93827 -15.390887,54.34748 15.273587,-54.38056 -17.512699,53.70133 17.396779,-53.73899 -19.607498,52.97238 19.493148,-53.01457 -21.672065,52.16176 21.559465,-52.2084 -23.703222,51.2707 23.592532,-51.32173 -25.697822,50.30059 25.589222,-50.35592 -27.652799,49.25292 27.546459,-49.31247 -29.565141,48.1293 29.461221,-48.19299 -31.431896,46.93148 31.330556,-46.99919 -33.250185,45.66128 33.151585,-45.73292 -35.017208,44.32068 34.921488,-44.39614 -36.730228,42.91174 36.637548,-42.99089 -38.386617,41.43663 38.297117,-41.51937 -39.983817,39.89764 39.897637,-39.98382 -41.519368,38.29712 41.436638,-38.38662 -42.990899,36.63755 42.911739,-36.73023 -44.396134,34.92149 44.320674,-35.0172 -45.732914,33.15158 45.661274,-33.25019 -46.999181,31.33056 46.931471,-31.4319 -48.192982,29.46123 48.129302,-29.56515 -49.312472,27.54646 49.252912,-27.6528 -50.355917,25.58923 50.300587,-25.69783 -51.321726,23.59254 51.270696,-23.70322 -52.208394,21.55946 52.161754,-21.67207 -53.014566,19.49315 52.972386,-19.6075 -53.738997,17.39679 53.701327,-17.5127 -54.380554,15.27358 54.347474,-15.39089 -54.93827,13.12684 54.90982,-13.24535 -55.411275,10.95985 55.387495,-11.07939 -55.798834,8.77597 55.779764,-8.89635 -56.100355,6.57855 56.086035,-6.69959 -56.315382,4.37099 56.305812,-4.4925 -56.443562,2.15669 56.438782,-2.27847 -56.484722,-0.0609 56.484722,-0.0609 -56.438782,-2.27848 56.443562,2.15669 -56.305812,-4.49249 56.315382,4.37098 -56.086035,-6.69958 56.100355,6.57855 -55.779765,-8.89635 55.798835,8.77596 -55.387495,-11.07939 55.411275,10.95986 -54.909821,-13.24536 54.938271,13.12684 -54.347475,-15.39089 54.380555,15.27359 -53.701328,-17.5127 53.738998,17.39678 -52.972387,-19.6075 53.014567,19.49315 -52.161755,-21.67207 52.208395,21.55947 -51.270697,-23.70322 51.321727,23.59253 -50.300588,-25.69782 50.355918,25.58922 -49.252914,-27.6528 49.312474,27.54646 -48.129304,-29.56514 48.192984,29.46122 -46.931473,-31.4319 46.999183,31.33056 -45.661276,-33.25019 45.732916,33.15159 -44.320676,-35.01721 44.396136,34.92149 -42.911742,-36.73023 42.990902,36.63755 -41.43664,-38.38662 41.51937,38.29712 -39.897639,-39.98382 39.983819,39.89764 -38.297119,-41.51937 38.386619,41.43664 -36.63755,-42.9909 36.73023,42.91174 -34.92149,-44.39613 35.01721,44.32067 -33.151587,-45.73291 33.250187,45.66127 -31.330558,-46.99918 31.431898,46.93147 -29.461224,-48.19298 29.565144,48.1293 -27.546461,-49.31247 27.652801,49.25291 -25.589224,-50.35592 25.697824,50.30059 -23.592535,-51.32173 23.703225,51.2707 -21.559468,-52.20839 21.672068,52.16175 -19.493151,-53.01457 19.607501,52.97239 -17.396782,-53.739 17.512702,53.70133 -15.273591,-54.38055 15.390891,54.34747 -13.126839,-54.93827 13.245359,54.90982 -10.959858,-55.41128 11.079398,55.3875 -8.775973,-55.79883 8.896353,55.77976 -6.578554,-56.10036 6.699584,56.08604 -4.370986,-56.31538 4.492496,56.30581 -2.15669,-56.44356 2.27848,56.43878 0.0609,-56.48472 0.0609,56.48472 2.27847,-56.43878 -2.15668,56.44356 4.49249,-56.30581 -4.37099,56.31538 6.69958,-56.08604 -6.57854,56.10036 8.89634,-55.77977 -8.77596,55.79884 11.07939,-55.3875 -10.95985,55.41128 13.24535,-54.90982 -13.12684,54.93827 15.39089,-54.34748 -15.27358,54.38056 17.51269,-53.70133 -17.39678,53.739 19.6075,-52.97239 -19.49315,53.01457 21.67207,-52.16176 -21.55946,52.2084 23.70322,-51.2707 -23.59254,51.32173 25.69783,-50.30059 -25.58923,50.35592 27.6528,-49.25291 -27.54646,49.31247 29.56514,-48.1293 -29.46122,48.19298 31.4319,-46.93147 -31.33056,46.99918 33.25019,-45.66128 -33.15158,45.73292 35.0172,-44.32068 -34.92149,44.39614 36.73023,-42.91174 -36.63755,42.9909 38.38662,-41.43664 -38.29712,41.51937 39.98382,-39.89764 -39.89764,39.98382 41.51937,-38.29712 -41.43663,38.38662 42.99089,-36.63755 -42.91174,36.73023 44.39614,-34.92149 -44.32068,35.01721 45.73292,-33.15159 -45.66128,33.25019 46.99918,-31.33056 -46.93147,31.4319 48.19299,-29.46122 -48.1293,29.56514 49.31247,-27.54646 -49.25292,27.6528 50.35592,-25.58922 -50.30059,25.69782 51.32173,-23.59254 -51.2707,23.70323 52.2084,-21.55947 -52.16176,21.67207 53.01457,-19.49315 -52.97238,19.6075 53.73899,-17.39678 -53.70133,17.5127 54.38056,-15.27359 -54.34747,15.39089 54.93826,-13.12684 -54.90981,13.24536 55.41127,-10.95986 -55.38749,11.07939 55.79883,-8.77596 -55.77977,8.89635 56.10036,-6.57855 -56.08603,6.69958 56.31538,-4.37099 -56.30582,4.4925 56.44357,-2.15669 -56.43878,2.27848 56.48472,0.0609 -56.48472,0.0609 56.43878,2.27847 -56.44357,-2.15669 56.30582,4.4925 -56.31538,-4.37099 56.08603,6.69958 -56.10036,-6.57854 55.77977,8.89634 -55.79883,-8.77596 55.38749,11.07939 -55.41127,-10.95985 54.90981,13.24535 -54.93826,-13.12684 54.34747,15.39089 -54.38056,-15.27358 53.70133,17.51269 -53.73899,-17.39678 52.97238,19.6075 -53.01457,-19.49315 52.16176,21.67207 -52.2084,-21.55946 51.2707,23.70322 -51.32173,-23.59254 50.30059,25.69783 -50.35592,-25.58923 49.25292,27.6528 -49.31247,-27.54646 48.1293,29.56514 -48.19299,-29.46122 46.93148,31.4319 -46.99919,-31.33056 45.66128,33.25019 -45.73292,-33.15158 44.32068,35.0172 -44.39614,-34.92149 42.91175,36.73023 -42.9909,-36.63755 41.43663,38.38662 -41.51937,-38.29712 39.89764,39.98382 -39.98382,-39.89764 38.29712,41.51937 -38.38662,-41.43663 36.63755,42.99089 -36.73023,-42.91174 34.92149,44.39614 -35.0172,-44.32068 33.15158,45.73292 -33.25019,-45.66128 31.33056,46.99918 -31.4319,-46.93147 29.46123,48.19299 -29.56515,-48.1293 27.54647,49.31247 -27.65281,-49.25292 25.58923,50.35592 -25.69783,-50.30059 23.59254,51.32173 -23.70322,-51.2707 21.55946,52.2084 -21.67207,-52.16176 19.49315,53.01457 -19.6075,-52.97238 17.39679,53.73899 -17.5127,-53.70133 15.27358,54.38056 -15.39089,-54.34748 13.12684,54.93827 -13.24535,-54.90981 10.95985,55.41127 -11.07939,-55.38749 8.77597,55.79883 -8.89635,-55.77977 6.57855,56.10036 -6.69959,-56.08603 4.37099,56.31538 -4.49249,-56.30582 2.15668,56.44357 -2.27847,-56.43878 z"
       inkscape:transform-center-y="-2.7415411e-06"
       transform="matrix(1.3796429,0,0,0.55912081,-24.442516,116.18358)" />
    <path
       sodipodi:type="star"
       style="fill:#ffffff;fill-opacity:1;stroke:none;stroke-width:0.1;stroke-dasharray:none;stroke-opacity:1"
       id="path8068"
       inkscape:flatsided="false"
       sodipodi:sides="4"
       sodipodi:cx="89.654991"
       sodipodi:cy="30.255781"
       sodipodi:r1="5.7874403"
       sodipodi:r2="0.59977698"
       sodipodi:arg1="1.5707963"
       sodipodi:arg2="2.3561945"
       inkscape:rounded="0"
       inkscape:randomized="0"
       d="m 89.654991,36.043221 -0.424106,-5.363333 -5.363334,-0.424107 5.363334,-0.424106 0.424106,-5.363334 0.424107,5.363334 5.363333,0.424106 -5.363333,0.424107 z"
       transform="matrix(1.2664718,0,0,1.2664718,-26.262968,49.796341)" />
    <path
       sodipodi:type="star"
       style="fill:#ffffff;fill-opacity:1;stroke:none;stroke-width:0.1;stroke-dasharray:none;stroke-opacity:1"
       id="path8068-0"
       inkscape:flatsided="false"
       sodipodi:sides="4"
       sodipodi:cx="89.654991"
       sodipodi:cy="30.255781"
       sodipodi:r1="5.7874403"
       sodipodi:r2="0.59977698"
       sodipodi:arg1="1.5707963"
       sodipodi:arg2="2.3561945"
       inkscape:rounded="0"
       inkscape:randomized="0"
       d="m 89.654991,36.043221 -0.424106,-5.363333 -5.363334,-0.424107 5.363334,-0.424106 0.424106,-5.363334 0.424107,5.363334 5.363333,0.424106 -5.363333,0.424107 z"
       transform="matrix(1.2664718,0,0,1.2664718,37.830115,49.796341)" />
    <path
       sodipodi:type="star"
       style="fill:#ffffff;fill-opacity:1;stroke:none;stroke-width:0.1;stroke-dasharray:none;stroke-opacity:1"
       id="path8068-5-8"
       inkscape:flatsided="false"
       sodipodi:sides="4"
       sodipodi:cx="89.654991"
       sodipodi:cy="30.255781"
       sodipodi:r1="5.7874403"
       sodipodi:r2="0.59977698"
       sodipodi:arg1="1.5707963"
       sodipodi:arg2="2.3561945"
       inkscape:rounded="0"
       inkscape:randomized="0"
       d="m 89.654991,36.043221 -0.424106,-5.363333 -5.363334,-0.424107 5.363334,-0.424106 0.424106,-5.363334 0.424107,5.363334 5.363333,0.424106 -5.363333,0.424107 z"
       transform="matrix(0.9405199,0,0,0.9405199,34.69217,34.698781)" />
    <path
       sodipodi:type="star"
       style="fill:#ffffff;fill-opacity:1;stroke:none;stroke-width:0.1;stroke-dasharray:none;stroke-opacity:1"
       id="path8068-5-0-3"
       inkscape:flatsided="false"
       sodipodi:sides="4"
       sodipodi:cx="89.654991"
       sodipodi:cy="30.255781"
       sodipodi:r1="5.7874403"
       sodipodi:r2="0.59977698"
       sodipodi:arg1="1.5707963"
       sodipodi:arg2="2.3561945"
       inkscape:rounded="0"
       inkscape:randomized="0"
       d="m 89.654991,36.043221 -0.424106,-5.363333 -5.363334,-0.424107 5.363334,-0.424106 0.424106,-5.363334 0.424107,5.363334 5.363333,0.424106 -5.363333,0.424107 z"
       transform="matrix(0.70963731,0,0,0.70963731,110.07866,56.426851)" />
    <path
       sodipodi:type="star"
       style="fill:#ffffff;fill-opacity:1;stroke:none;stroke-width:0.1;stroke-dasharray:none;stroke-opacity:1"
       id="path8068-5-0-6"
       inkscape:flatsided="false"
       sodipodi:sides="4"
       sodipodi:cx="89.654991"
       sodipodi:cy="30.255781"
       sodipodi:r1="5.7874403"
       sodipodi:r2="0.59977698"
       sodipodi:arg1="1.5707963"
       sodipodi:arg2="2.3561945"
       inkscape:rounded="0"
       inkscape:randomized="0"
       d="m 89.654991,36.043221 -0.424106,-5.363333 -5.363334,-0.424107 5.363334,-0.424106 0.424106,-5.363334 0.424107,5.363334 5.363333,0.424106 -5.363333,0.424107 z"
       transform="matrix(0.70963731,0,0,0.70963731,1.334466,56.426851)" />
    <path
       sodipodi:type="star"
       style="fill:#ffffff;fill-opacity:1;stroke:none;stroke-width:0.1;stroke-dasharray:none;stroke-opacity:1"
       id="path8068-5-0-7"
       inkscape:flatsided="false"
       sodipodi:sides="4"
       sodipodi:cx="89.654991"
       sodipodi:cy="30.255781"
       sodipodi:r1="5.7874403"
       sodipodi:r2="0.59977698"
       sodipodi:arg1="1.5707963"
       sodipodi:arg2="2.3561945"
       inkscape:rounded="0"
       inkscape:randomized="0"
       d="m 89.654991,36.043221 -0.424106,-5.363333 -5.363334,-0.424107 5.363334,-0.424106 0.424106,-5.363334 0.424107,5.363334 5.363333,0.424106 -5.363333,0.424107 z"
       transform="matrix(0.70963731,0,0,0.70963731,-13.662945,83.889381)" />
    <path
       sodipodi:type="star"
       style="fill:#ffffff;fill-opacity:1;stroke:none;stroke-width:0.1;stroke-dasharray:none;stroke-opacity:1"
       id="path8068-5-0-77"
       inkscape:flatsided="false"
       sodipodi:sides="4"
       sodipodi:cx="89.654991"
       sodipodi:cy="30.255781"
       sodipodi:r1="5.7874403"
       sodipodi:r2="0.59977698"
       sodipodi:arg1="1.5707963"
       sodipodi:arg2="2.3561945"
       inkscape:rounded="0"
       inkscape:randomized="0"
       d="m 89.654991,36.043221 -0.424106,-5.363333 -5.363334,-0.424107 5.363334,-0.424106 0.424106,-5.363334 0.424107,5.363334 5.363333,0.424106 -5.363333,0.424107 z"
       transform="matrix(0.70963731,0,0,0.70963731,125.07609,83.889381)" />
    <path
       sodipodi:type="star"
       style="fill:url(#radialGradient22943);fill-opacity:1;stroke:none;stroke-width:1;stroke-dasharray:none;stroke-opacity:1"
       id="path19464"
       inkscape:flatsided="false"
       sodipodi:sides="2"
       sodipodi:cx="283.47781"
       sodipodi:cy="512.35504"
       sodipodi:r1="119.2945"
       sodipodi:r2="4.3036685"
       sodipodi:arg1="1.5707963"
       sodipodi:arg2="3.1415926"
       inkscape:rounded="0"
       inkscape:randomized="0"
       d="m 283.47782,631.64954 -4.30367,-119.2945 4.30366,-119.2945 4.30367,119.2945 z"
       transform="matrix(0.26458333,0,0,0.26458333,44.010969,76.822375)"
       inkscape:transform-center-y="-1.7078502e-06" />
    <path
       sodipodi:type="star"
       style="fill:url(#radialGradient22943-1);fill-opacity:1;stroke:none;stroke-width:1;stroke-dasharray:none;stroke-opacity:1"
       id="path19464-9"
       inkscape:flatsided="false"
       sodipodi:sides="2"
       sodipodi:cx="283.47781"
       sodipodi:cy="512.35504"
       sodipodi:r1="186.32694"
       sodipodi:r2="4.3036685"
       sodipodi:arg1="1.5707963"
       sodipodi:arg2="3.1415926"
       inkscape:rounded="0"
       inkscape:randomized="0"
       d="m 283.47782,698.68198 -4.30367,-186.32694 4.30366,-186.32693 4.30367,186.32693 z"
       transform="matrix(0,0.26458333,-0.26458333,0,254.57508,137.37948)"
       inkscape:transform-center-y="4.2041017e-06"
       inkscape:transform-center-x="-4.0412652e-06" />
    <ellipse
       style="fill:none;fill-opacity:1;stroke:url(#linearGradient22969);stroke-width:0.307353;stroke-dasharray:none;stroke-opacity:1"
       id="path22945"
       cx="56.049419"
       cy="239.71704"
       rx="12.25597"
       ry="6.127985"
       transform="rotate(-15)" />
    <ellipse
       style="fill:none;fill-opacity:1;stroke:url(#linearGradient1925);stroke-width:0.307353;stroke-dasharray:none;stroke-opacity:1"
       id="path22945-2"
       cx="-66.766182"
       cy="-232.50925"
       rx="12.25597"
       ry="6.127985"
       transform="rotate(165)" />
    <ellipse
       style="fill:none;fill-opacity:1;stroke:url(#linearGradient1984);stroke-width:0.225167;stroke-dasharray:none;stroke-opacity:1"
       id="path22945-2-9"
       cx="-66.766182"
       cy="-234.14787"
       rx="8.9787283"
       ry="4.4893641"
       transform="rotate(165)" />
    <ellipse
       style="fill:none;fill-opacity:1;stroke:url(#radialGradient2946);stroke-width:0.225167;stroke-dasharray:none;stroke-opacity:1"
       id="path22945-2-9-2"
       cx="170.22112"
       cy="173.87682"
       rx="8.9787283"
       ry="4.4893641"
       transform="rotate(15)" />
    <ellipse
       style="fill:none;fill-opacity:1;stroke:url(#linearGradient2020);stroke-width:0.225167;stroke-dasharray:none;stroke-opacity:1"
       id="path22945-2-9-4"
       cx="56.049419"
       cy="238.07841"
       rx="8.9787283"
       ry="4.4893641"
       transform="rotate(-15)" />
  </g>
</svg>
