<?xml version="1.0" encoding="UTF-8" standalone="no"?>
<!-- Created with Inkscape (http://www.inkscape.org/) -->

<svg
   width="297mm"
   height="420mm"
   viewBox="0 0 297 420"
   version="1.1"
   id="svg5"
   inkscape:version="1.2.2 (732a01da63, 2022-12-09)"
   sodipodi:docname="Clip_carbono.svg"
   xmlns:inkscape="http://www.inkscape.org/namespaces/inkscape"
   xmlns:sodipodi="http://sodipodi.sourceforge.net/DTD/sodipodi-0.dtd"
   xmlns="http://www.w3.org/2000/svg"
   xmlns:svg="http://www.w3.org/2000/svg">
  <sodipodi:namedview
     id="namedview7"
     pagecolor="#000000"
     bordercolor="#000000"
     borderopacity="0.25"
     inkscape:showpageshadow="2"
     inkscape:pageopacity="0"
     inkscape:pagecheckerboard="0"
     inkscape:deskcolor="#d1d1d1"
     inkscape:document-units="mm"
     showgrid="false"
     inkscape:zoom="0.4204826"
     inkscape:cx="524.39744"
     inkscape:cy="1001.2305"
     inkscape:window-width="1680"
     inkscape:window-height="987"
     inkscape:window-x="-8"
     inkscape:window-y="-8"
     inkscape:window-maximized="1"
     inkscape:current-layer="layer1" />
  <defs
     id="defs2">
    <inkscape:path-effect
       effect="spiro"
       id="path-effect11326"
       is_visible="true"
       lpeversion="1" />
    <rect
       x="143.88229"
       y="428.07953"
       width="577.90741"
       height="258.03683"
       id="rect236" />
    <rect
       x="143.88229"
       y="428.07953"
       width="577.90741"
       height="258.03683"
       id="rect236-8" />
    <inkscape:path-effect
       effect="spiro"
       id="path-effect23909"
       is_visible="true"
       lpeversion="1" />
    <inkscape:path-effect
       effect="spiro"
       id="path-effect23913"
       is_visible="true"
       lpeversion="1" />
    <inkscape:path-effect
       effect="spiro"
       id="path-effect1944"
       is_visible="true"
       lpeversion="1" />
    <inkscape:path-effect
       effect="spiro"
       id="path-effect23321"
       is_visible="true"
       lpeversion="1" />
    <inkscape:path-effect
       effect="spiro"
       id="path-effect23321-9"
       is_visible="true"
       lpeversion="1" />
    <inkscape:path-effect
       effect="spiro"
       id="path-effect23309"
       is_visible="true"
       lpeversion="1" />
    <inkscape:path-effect
       effect="spiro"
       id="path-effect23309-8"
       is_visible="true"
       lpeversion="1" />
    <inkscape:path-effect
       effect="spiro"
       id="path-effect23333"
       is_visible="true"
       lpeversion="1" />
    <inkscape:path-effect
       effect="spiro"
       id="path-effect23333-2"
       is_visible="true"
       lpeversion="1" />
    <inkscape:path-effect
       effect="spiro"
       id="path-effect23625"
       is_visible="true"
       lpeversion="1" />
    <inkscape:path-effect
       effect="spiro"
       id="path-effect2368"
       is_visible="true"
       lpeversion="1" />
    <inkscape:path-effect
       effect="spiro"
       id="path-effect2368-7"
       is_visible="true"
       lpeversion="1" />
    <inkscape:path-effect
       effect="spiro"
       id="path-effect13475"
       is_visible="true"
       lpeversion="1" />
    <rect
       x="356.03235"
       y="0"
       width="278.54449"
       height="63.455532"
       id="rect366-7-9-4-8" />
  </defs>
  <g
     inkscape:label="Capa 1"
     inkscape:groupmode="layer"
     id="layer1">
    <path
       fill="#009cde"
       d="m 143.79084,173.6877 h 2.14294 c 12.44033,0.80415 22.9029,8.03275 26.54111,20.19924 q 0.0695,0.23037 -0.16953,0.23037 h -7.68935 q -0.24342,0 -0.3434,-0.21733 c -9.15855,-20.09492 -38.92058,-15.21789 -42.2154,6.55486 -1.68218,11.12327 4.34238,22.15526 15.36133,25.40661 10.50604,3.09922 22.44649,-0.76937 26.69759,-11.37973 a 0.41728569,0.41293896 10.8 0 1 0.38686,-0.2608 h 7.81541 q 0.2043,0 0.14779,0.1956 c -3.88162,13.57917 -17.16957,21.15552 -30.72266,20.00364 -17.61728,-1.49528 -29.53165,-16.73055 -27.33221,-34.28263 1.9256,-15.36133 13.98342,-25.93692 29.37952,-26.44983 z"
       id="path220-5"
       style="stroke-width:0.434673" />
    <path
       fill="#5f6261"
       d="m 43.777025,229.18235 v -34.53474 q 0.638969,-2.2516 2.173363,-3.13399 14.400703,-8.31528 28.797059,-16.63057 c 1.860399,-1.07364 3.559969,-0.59115 5.459488,0.49987 q 13.405303,7.7111 26.793215,15.47 c 2.31681,1.34314 3.42957,2.56892 3.40784,5.22042 q -0.12171,16.13505 -0.1391,32.27444 c 0,1.29967 -0.63897,3.20788 -1.63871,3.786 q -14.422441,8.35006 -28.857918,16.67404 c -2.221176,1.28228 -3.625169,1.04321 -5.898507,-0.26515 q -14.118165,-8.14142 -28.223291,-16.30892 -1.277937,-0.74329 -1.873439,-3.0514 z m 29.405601,4.9857 c 0.395552,0.70416 1.286631,1.33879 2.056001,1.54743 q 6.111497,1.65176 12.2143,3.36002 c 3.416527,0.95193 5.58989,0.55638 6.620064,-3.13834 q 1.838665,-6.57225 3.612129,-13.16188 c 0.347738,-1.30837 0.199949,-2.23857 -0.421633,-3.34698 Q 86.883506,200.91559 76.542645,182.38985 c -1.864745,-3.33829 -3.885973,-3.29482 -7.085163,-1.43442 q -7.932775,4.62057 -15.869896,9.23679 c -2.842759,1.6561 -2.821025,3.98595 -1.282285,6.73308 q 10.44953,18.61268 20.877325,37.24275 z"
       id="path222-2"
       style="stroke-width:0.434673" />
    <rect
       fill="#009cde"
       x="177.65619"
       y="182.16817"
       width="6.198431"
       height="51.282673"
       rx="0.18690921"
       id="rect224-5"
       style="stroke-width:0.434673" />
    <rect
       fill="#009cde"
       x="191.56856"
       y="183.91653"
       transform="rotate(-0.1)"
       width="6.1897378"
       height="7.8241067"
       rx="0.18256249"
       id="rect226-2"
       style="stroke-width:0.434673" />
    <circle
       fill="#5f6261"
       cx="64.028419"
       cy="188.87082"
       r="1.5517811"
       id="circle228-2"
       style="stroke-width:0.434673;fill:#ffffff;fill-opacity:1" />
    <path
       fill="#5f6261"
       d="m 84.936173,229.85175 a 2.0733883,2.0733883 0 0 0 2.725397,-1.51266 q 0.925853,-4.29022 1.838665,-8.92818 0.243417,-1.22578 -0.356432,-2.29507 -7.089509,-12.66636 -14.19206,-25.31968 c -0.969319,-1.72565 -2.103815,-2.69062 -3.994641,-1.49093 a 0.25645683,0.26080355 52.9 0 1 -0.326004,-0.0435 q -0.317311,-0.33905 -0.08259,-0.56073 c 2.195097,-2.07774 4.059842,-0.78241 5.316046,1.45181 q 8.341367,14.81798 16.413237,29.35344 a 2.6993168,2.6819299 35.9 0 1 0.29123,1.7865 q -0.98236,5.28562 -2.01688,10.57993 c -0.395552,2.01254 -1.777811,2.26899 -3.555622,1.63437 -3.668637,-1.30402 -9.927922,-3.01663 -10.958096,-4.85964 Q 67.788339,214.9077 59.599108,200.13318 c -1.143189,-2.06904 -0.899773,-4.27283 1.573514,-5.02916 q 0.430326,-0.13475 0.473793,0.36947 0.01304,0.19126 -0.152135,0.28689 c -2.768864,1.57786 -1.060601,3.95986 0.09563,6.0376 q 6.711345,12.04912 13.46181,24.07217 0.343391,0.60854 1.408339,0.97801 4.3815,1.53005 8.476116,3.00359 z"
       id="path230-7"
       style="stroke-width:0.434673;fill:#ffffff;fill-opacity:1" />
    <path
       fill="#009cde"
       d="m 249.81183,211.64331 v 1.73435 c -0.41294,11.15369 -8.8195,20.53828 -20.00798,21.10335 -6.84174,0.34774 -12.83153,-2.2516 -16.76532,-7.90669 a 0.10866815,0.10866815 0 0 0 -0.1956,0.0608 l -0.013,23.55491 h -7.24599 v -57.79407 q 0,-0.1304 -0.0695,-0.24342 -0.0869,-0.14779 -0.0217,-0.38686 a 0.3520848,0.35643152 8.1 0 1 0.33904,-0.25645 h 6.82001 a 0.22602975,0.22602975 0 0 1 0.22603,0.22603 l -0.0391,6.52009 q 0,0.35208 0.20865,0.0739 5.07697,-6.75481 12.97932,-7.69805 c 12.78807,-1.5257 23.34626,8.43699 23.78528,21.01207 z m -33.49587,-8.85863 q -4.58579,5.58555 -3.14703,12.98802 c 1.80824,9.32808 12.11868,14.29204 20.70346,10.40606 8.62825,-3.89901 11.17978,-14.61804 6.02021,-22.30739 -5.34212,-7.95451 -17.45645,-8.54567 -23.57664,-1.08669 z"
       id="path232-2"
       style="stroke-width:0.434673" />
    <rect
       fill="#009cde"
       x="191.89606"
       y="197.81203"
       width="6.1897378"
       height="35.643154"
       rx="0.2173363"
       id="rect234-6"
       style="stroke-width:0.434673" />
    <path
       fill="#68666a"
       d="m 117.41926,250.19008 h -0.42598 q -1.58221,0.0695 -2.02558,-0.88239 c -3.79904,-8.11099 7.03735,-13.64437 11.26672,-5.73768 q 0.10432,0.2043 -0.10433,0.29558 c -1.67783,0.7259 -1.75173,-0.61723 -2.5124,-1.27794 -5.25954,-4.55102 -11.07981,3.75992 -6.04195,7.18949 q 0.23037,0.15648 0,0.30862 z"
       id="path236-8"
       style="stroke-width:0.434673" />
    <path
       fill="#68666a"
       d="m 164.15091,250.19008 h -0.30428 l -1.53004,-0.10867 a 0.39989878,0.39989878 0 0 1 -0.31731,-0.19126 q -2.29073,-3.67733 -0.39121,-6.94172 c 4.46409,-7.66328 15.75688,-0.18691 10.39302,6.92868 q -0.15213,0.2043 -0.40859,0.2043 h -1.64306 q -0.34774,0 -0.0869,-0.23038 c 2.72105,-2.42112 2.46894,-6.22451 -0.69547,-7.97624 -4.90746,-2.72105 -9.47587,4.15547 -4.88138,7.98494 q 0.14779,0.1217 -0.004,0.23472 z"
       id="path238-9"
       style="stroke-width:0.434673" />
    <path
       fill="#68666a"
       d="m 195.25608,250.19008 q -0.13041,0.0304 -0.21734,0 l -0.29558,-0.12606 q -0.22603,-0.0956 -0.0348,-0.24776 c 4.34238,-3.52085 0.51291,-10.34086 -4.81183,-8.0371 -3.0514,1.31706 -3.66429,5.89416 -0.81283,7.99798 q 0.16952,0.12605 0.0435,0.29123 l -0.0913,0.12171 h -0.42163 l -1.33879,-0.1 q -0.19995,-0.0174 -0.32166,-0.17821 c -5.38994,-7.3112 6.17235,-14.61804 10.45822,-6.88956 0.9954,1.79954 1.41269,7.5633 -2.15597,7.16775 z"
       id="path240-8"
       style="stroke-width:0.434673" />
    <path
       fill="#68666a"
       d="m 132.06338,242.37466 q -0.19126,-0.53464 -0.38252,0 l -2.66019,7.43291 q -0.1,0.27384 -0.39121,0.27384 h -1.13884 q -0.27384,0 -0.17822,-0.25646 l 3.39045,-9.1542 a 1.2301234,1.2301234 0 0 1 2.30811,-0.004 l 3.41218,9.13682 q 0.10432,0.27819 -0.1956,0.27819 h -1.11711 q -0.29123,0 -0.39121,-0.27384 z"
       id="path242-2"
       style="stroke-width:0.434673" />
    <path
       fill="#68666a"
       d="m 146.32498,250.19008 h -0.19995 q -0.49118,-0.16518 -1.07364,-0.1 -0.19995,0.0174 -0.33035,-0.13475 l -1.94299,-2.27768 a 0.57811454,0.58246127 69.9 0 0 -0.44336,-0.2043 h -1.84301 q -0.21734,0 -0.21734,0.21734 v 2.1212 q 0,0.2695 -0.2695,0.2695 h -1.08668 q -0.27384,0 -0.27384,-0.2695 v -9.51498 q 0,-0.2608 0.2608,-0.27384 c 2.72975,-0.1391 6.1028,-0.53031 7.42856,1.70826 1.191,2.01253 0.46075,4.40323 -1.69957,5.38994 a 0.26515028,0.26949701 56.2 0 0 -0.0869,0.42598 l 2.04296,2.20379 q 0.18257,0.19995 -0.0522,0.326 z m -6.05499,-8.44569 0.009,4.05115 a 0.25645683,0.25645683 0 0 0 0.25645,0.25645 l 2.36897,-0.004 a 2.2429106,2.3820058 89.9 0 0 2.37766,-2.24726 v -0.0782 a 2.2429106,2.3820058 89.9 0 0 -2.38635,-2.23857 l -2.36897,0.004 a 0.25645683,0.25645683 0 0 0 -0.25646,0.25646 z"
       id="path244-5"
       style="stroke-width:0.434673" />
    <path
       fill="#68666a"
       d="m 157.83946,250.19008 h -0.1956 l -0.17822,-0.1391 q -0.14344,-0.11301 -0.0435,-0.26515 1.45616,-2.17771 -0.5868,-3.90336 -0.19995,-0.16952 -0.4651,-0.17387 l -4.8553,-0.0869 q -0.28688,-0.009 -0.28688,0.28254 l 0.0304,3.89901 q 0.004,0.27819 -0.27385,0.27819 h -1.03886 q -0.32601,0 -0.32601,-0.32601 v -9.47151 q 0,-0.29558 0.29558,-0.29993 c 2.85145,-0.0391 9.2194,-0.93019 7.61546,4.36846 q -0.0609,0.2043 0.11736,0.32601 2.77321,1.8517 1.6648,5.14218 -0.0782,0.22602 -0.31296,0.24776 z m -6.59398,-8.55436 0.009,2.51241 a 0.10432142,0.10432142 0 0 0 0.10432,0.10432 l 3.53389,-0.013 a 1.3300981,1.3431383 89.8 0 0 1.33879,-1.33445 v -0.0608 a 1.3300981,1.3431383 89.8 0 0 -1.34748,-1.32575 l -3.53389,0.013 a 0.10432142,0.10432142 0 0 0 -0.10432,0.10432 z"
       id="path246-6"
       style="stroke-width:0.434673" />
    <path
       fill="#68666a"
       d="m 176.87812,243.5874 0.0261,6.21582 q 0,0.27819 -0.27384,0.27819 h -1.03887 q -0.32601,0 -0.32601,-0.32601 v -9.1542 a 0.78675739,0.78675739 0 0 1 1.45616,-0.40859 l 5.14217,8.43265 a 0.15213541,0.14778868 29.2 0 0 0.27819,-0.0782 l -0.0565,-8.28486 q -0.004,-0.28688 0.28253,-0.28688 h 0.99975 a 0.27819046,0.27819046 0 0 1 0.27819,0.27819 v 9.54976 q 0,0.27819 -0.27819,0.27819 h -2.00819 q -0.23037,0 -0.34773,-0.1956 l -3.86859,-6.3723 a 0.14344195,0.14344195 0 0 0 -0.26515,0.0739 z"
       id="path248-4"
       style="stroke-width:0.434673" />
    <path
       fill="#68666a"
       d="m 123.96108,250.19008 h -0.88673 l 1.49092,-1.90822 q 0.12606,-0.16082 0.33035,-0.16082 l 1.07799,0.013 q 0.29123,0 0.22169,0.28253 -0.46076,1.89952 -2.23422,1.77347 z"
       id="path250-3"
       style="stroke-width:0.434673" />
    <rect
       style="fill:#000000;fill-opacity:1;stroke:none;stroke-width:0.635309;stroke-linecap:round;stroke-dasharray:none;stroke-opacity:1"
       id="rect5408-8"
       width="90.733231"
       height="19.181831"
       x="112.29361"
       y="236.22432" />
    <text
       xml:space="preserve"
       id="text364-4-9-6-5"
       style="font-weight:bold;font-size:37.3333px;font-family:Nasalization;-inkscape-font-specification:'Nasalization Bold';text-align:center;white-space:pre;shape-inside:url(#rect366-7-9-4-8);display:inline;fill:#808080;fill-opacity:1;stroke-width:0.944882"
       transform="matrix(0.43467259,0,0,0.43467259,-58.062681,236.60404)"><tspan
         x="394.31811"
         y="32.024264"
         id="tspan6565">CARBONO</tspan></text>
  </g>
</svg>
