<?xml version="1.0" encoding="UTF-8" standalone="no"?>
<!-- Created with Inkscape (http://www.inkscape.org/) -->

<svg
   width="297mm"
   height="420mm"
   viewBox="0 0 297 420"
   version="1.1"
   id="svg5"
   inkscape:version="1.2.2 (732a01da63, 2022-12-09)"
   sodipodi:docname="Diseñi_y_fabricación.svg"
   xmlns:inkscape="http://www.inkscape.org/namespaces/inkscape"
   xmlns:sodipodi="http://sodipodi.sourceforge.net/DTD/sodipodi-0.dtd"
   xmlns="http://www.w3.org/2000/svg"
   xmlns:svg="http://www.w3.org/2000/svg">
  <sodipodi:namedview
     id="namedview7"
     pagecolor="#000000"
     bordercolor="#000000"
     borderopacity="0.25"
     inkscape:showpageshadow="2"
     inkscape:pageopacity="0"
     inkscape:pagecheckerboard="0"
     inkscape:deskcolor="#d1d1d1"
     inkscape:document-units="mm"
     showgrid="false"
     inkscape:zoom="0.5946522"
     inkscape:cx="522.15396"
     inkscape:cy="724.79342"
     inkscape:window-width="1680"
     inkscape:window-height="987"
     inkscape:window-x="-8"
     inkscape:window-y="-8"
     inkscape:window-maximized="1"
     inkscape:current-layer="layer1" />
  <defs
     id="defs2">
    <inkscape:path-effect
       effect="spiro"
       id="path-effect11326"
       is_visible="true"
       lpeversion="1" />
    <rect
       x="143.88229"
       y="428.07953"
       width="577.90741"
       height="258.03683"
       id="rect236" />
    <rect
       x="143.88229"
       y="428.07953"
       width="577.90741"
       height="258.03683"
       id="rect236-8" />
    <inkscape:path-effect
       effect="spiro"
       id="path-effect23909"
       is_visible="true"
       lpeversion="1" />
    <inkscape:path-effect
       effect="spiro"
       id="path-effect23913"
       is_visible="true"
       lpeversion="1" />
    <inkscape:path-effect
       effect="spiro"
       id="path-effect1944"
       is_visible="true"
       lpeversion="1" />
    <inkscape:path-effect
       effect="spiro"
       id="path-effect23321"
       is_visible="true"
       lpeversion="1" />
    <inkscape:path-effect
       effect="spiro"
       id="path-effect23321-9"
       is_visible="true"
       lpeversion="1" />
    <inkscape:path-effect
       effect="spiro"
       id="path-effect23309"
       is_visible="true"
       lpeversion="1" />
    <inkscape:path-effect
       effect="spiro"
       id="path-effect23309-8"
       is_visible="true"
       lpeversion="1" />
    <inkscape:path-effect
       effect="spiro"
       id="path-effect23333"
       is_visible="true"
       lpeversion="1" />
    <inkscape:path-effect
       effect="spiro"
       id="path-effect23333-2"
       is_visible="true"
       lpeversion="1" />
    <inkscape:path-effect
       effect="spiro"
       id="path-effect23625"
       is_visible="true"
       lpeversion="1" />
    <inkscape:path-effect
       effect="spiro"
       id="path-effect2368"
       is_visible="true"
       lpeversion="1" />
    <inkscape:path-effect
       effect="spiro"
       id="path-effect2368-7"
       is_visible="true"
       lpeversion="1" />
    <inkscape:path-effect
       effect="spiro"
       id="path-effect13475"
       is_visible="true"
       lpeversion="1" />
    <rect
       x="356.03235"
       y="0"
       width="278.54449"
       height="63.455532"
       id="rect366-7-9-4-8" />
  </defs>
  <g
     inkscape:label="Capa 1"
     inkscape:groupmode="layer"
     id="layer1">
    <g
       id="g12923"
       transform="translate(5.3392555,60.066624)">
      <path
         fill="#223d71"
         d="m 63.223302,94.2101 q 13.991208,0.0346 27.992798,0.0173 0.148806,0 0.04153,0.10382 -0.685199,0.67827 -1.148919,0.67827 -12.96341,-0.003 -25.930281,0.003 c -0.595223,0 -0.927441,-0.22493 -1.280422,-0.65059 a 0.12458162,0.12458162 0 0 1 0.06575,-0.20071 q 0.179952,-0.045 0.259546,0.0484 z"
         id="path7057-5"
         style="stroke-width:0.34606" />
      <path
         fill="#223d71"
         d="M 92.766449,97.51844 H 61.434171 a 0.13150282,0.13150282 0 0 1 -0.107279,-0.0588 l -1.15584,-1.72684 a 0.13150282,0.13150282 0 0 1 0.107278,-0.20418 h 34.204577 a 0.13150282,0.13150282 0 0 1 0.09344,0.22494 l -1.716458,1.72684 a 0.13150282,0.13150282 0 0 1 -0.09344,0.0381 z"
         id="path7059-4"
         style="stroke-width:0.34606" />
      <path
         fill="#000000"
         d="m 191.23783,103.42568 c -4.49532,3.83435 -5.5335,-7.2984 -0.29069,-4.7341 q 0.2111,0.10036 0.2111,-0.13496 v -2.46395 q 0,-0.21802 0.21802,-0.21802 h 1.20775 q 0.21802,0 0.21802,0.21456 v 7.83134 q 0,0.25955 -0.25955,0.25955 h -0.88591 a 0.27684805,0.26992685 75 0 1 -0.23878,-0.14189 q -0.12459,-0.22494 0.007,-0.4568 0.35644,-0.61945 -0.18688,-0.15573 z m -1.14514,-0.61263 a 1.1212346,1.6230217 0.6 0 0 1.13815,-1.61118 1.1212346,1.6230217 0.6 0 0 -1.10417,-1.63465 1.1212346,1.6230217 0.6 0 0 -1.13816,1.61118 1.1212346,1.6230217 0.6 0 0 1.10418,1.63465 z"
         id="path7061-9"
         style="fill:#bfbfbf;fill-opacity:1;stroke-width:0.34606" />
      <path
         fill="#000000"
         d="m 113.2705,96.73288 a 0.50870829,0.50870829 0 0 1 0.50871,-0.51217 l 2.25285,-0.003 a 3.733988,3.8274243 89.9 0 1 3.83435,3.72707 v 0.49833 a 3.733988,3.8274243 89.9 0 1 -3.8205,3.74091 l -2.25286,0.003 a 0.50870829,0.50870829 0 0 1 -0.5087,-0.50525 z m 1.68532,0.9932 -0.0346,4.82407 a 0.22839964,0.22839964 0 0 0 0.2284,0.2284 l 0.64367,0.007 a 2.2424692,2.3670508 0.4 0 0 2.25631,-2.35321 l 0.007,-0.54677 a 2.2424692,2.3670508 0.4 0 0 -2.22862,-2.38089 l -0.64367,-0.007 a 0.22839964,0.22839964 0 0 0 -0.2284,0.2284 z"
         id="path7063-1"
         style="fill:#bfbfbf;fill-opacity:1;stroke-width:0.34606" />
      <path
         fill="#000000"
         d="m 145.64096,102.69896 0.57792,0.0138 q 0.2111,0.007 0.2111,0.21802 v 0.9136 a 0.26992685,0.26992685 0 0 1 -0.20764,0.263 c -3.09377,0.70597 -2.547,-2.47087 -2.56776,-4.28076 q -0.003,-0.23186 -0.23532,-0.23186 h -0.19034 q -0.25954,0 -0.25954,-0.25955 v -0.84784 q 0,-0.20418 0.20417,-0.18688 0.73711,0.0658 0.44988,-0.79593 a 0.22839964,0.23186024 72.9 0 1 0.15573,-0.29415 l 1.32541,-0.38759 q 0.20071,-0.0588 0.20071,0.15226 v 1.10394 q 0,0.21801 0.21802,0.21801 h 0.77864 q 0.21455,0 0.21455,0.21802 v 0.82016 q 0,0.25955 -0.25954,0.25955 h -0.73365 a 0.23186024,0.23186024 0 0 0 -0.23186,0.23532 l 0.0485,2.56777 a 0.30799345,0.30799345 0 0 0 0.30107,0.30107 z"
         id="path7065-6"
         style="fill:#bfbfbf;fill-opacity:1;stroke-width:0.34606" />
      <path
         fill="#000000"
         d="m 175.23948,98.12404 v -0.7025 q 0,-0.19033 0.18687,-0.24224 l 1.25966,-0.35298 q 0.19725,-0.0588 0.19725,0.1488 v 1.14892 a 0.17995123,0.17649063 88.4 0 0 0.18688,0.17996 q 0.4914,-0.0277 0.64713,0.007 a 0.66789592,0.62636871 49.4 0 1 -0.0554,1.28388 h -0.53293 q -0.20072,0 -0.2111,0.19725 c -0.0623,0.96897 -0.40489,3.15953 0.85477,2.89653 a 0.19725423,0.19725423 0 0 1 0.23532,0.19379 v 0.95513 a 0.24224204,0.24570264 80.9 0 1 -0.16957,0.23186 c -3.03841,0.9482 -2.63006,-2.58507 -2.59545,-4.20809 q 0.007,-0.20418 -0.19726,-0.23879 -0.84438,-0.13842 -0.3945,-1.16968 0.0692,-0.15573 0.24224,-0.15573 h 0.17303 a 0.17303003,0.17303003 0 0 0 0.17303,-0.17303 z"
         id="path7067-3"
         style="fill:#bfbfbf;fill-opacity:1;stroke-width:0.34606" />
      <path
         fill="#000000"
         d="m 122.46532,102.4844 q 1.28388,0.71981 2.70273,0.20418 a 0.15918763,0.15572703 75.8 0 1 0.21109,0.12804 l 0.10036,0.79248 q 0.0277,0.21455 -0.17303,0.28723 c -1.61264,0.58484 -3.88279,0.40143 -4.47801,-1.5019 -1.38425,-4.42265 5.35008,-6.12873 5.00748,-0.65406 q -0.0138,0.20072 -0.21109,0.19726 l -3.00726,-0.0242 a 0.30453285,0.30453285 0 0 0 -0.15227,0.571 z m -0.0865,-1.74068 1.76145,-0.0485 a 0.15226643,0.15226643 0 0 0 0.14881,-0.15573 v -0.045 a 1.013956,1.0001136 88.5 0 0 -1.0278,-0.98628 h -0.0692 a 1.013956,1.0001136 88.5 0 0 -0.97243,1.04165 l 0.003,0.045 a 0.15226643,0.15226643 0 0 0 0.15572,0.14881 z"
         id="path7069-4"
         style="fill:#bfbfbf;fill-opacity:1;stroke-width:0.34606" />
      <path
         fill="#000000"
         d="m 128.31719,103.81327 0.045,2.21825 q 0.003,0.22494 -0.22148,0.22494 h -1.21813 q -0.21802,0 -0.21802,-0.21456 v -7.48528 q 0,-0.25955 0.25955,-0.25955 h 0.89976 q 0.21109,0 0.21801,0.2111 l 0.0173,0.42912 q 0.0104,0.31145 0.23186,0.0934 0.93782,-0.9309 2.04521,-0.6852 c 3.12492,0.69212 2.2044,7.49912 -1.92409,5.3847 q -0.13843,-0.0727 -0.13497,0.083 z m 1.09916,-0.90688 a 1.169683,1.6264823 0.9 0 0 1.19508,-1.6079 1.169683,1.6264823 0.9 0 0 -1.144,-1.64465 1.169683,1.6264823 0.9 0 0 -1.19508,1.6079 1.169683,1.6264823 0.9 0 0 1.144,1.64465 z"
         id="path7071-6"
         style="fill:#bfbfbf;fill-opacity:1;stroke-width:0.34606" />
      <path
         fill="#000000"
         d="m 136.13469,103.61602 q -0.21456,0.0485 -0.36682,0.20763 -0.11766,0.11766 -0.27339,0.17303 c -3.04187,1.05203 -3.79628,-3.30141 0.36336,-3.62671 q 0.18342,-0.0138 0.18342,-0.19725 c -0.003,-1.05548 -1.62995,-0.61599 -2.18018,-0.30107 a 0.22147844,0.21801784 68.5 0 1 -0.3253,-0.14189 l -0.17995,-0.79247 q -0.0311,-0.14189 0.10382,-0.20418 c 1.66801,-0.75441 4.03506,-0.74403 4.23577,1.62994 q 0.15573,1.8099 0.0796,3.63709 -0.007,0.17996 -0.18688,0.17996 h -1.02087 q -0.25955,0 -0.25955,-0.25955 v -0.16265 q 0,-0.17995 -0.17303,-0.14188 z m -1.43961,-1.68185 a 0.5986839,0.5986839 0 0 0 0.47064,1.05202 q 1.142,-0.16265 0.95859,-1.32887 a 0.19033303,0.18687243 86.7 0 0 -0.17649,-0.15919 q -0.71288,-0.0242 -1.25274,0.43604 z"
         id="path7073-6"
         style="fill:#bfbfbf;fill-opacity:1;stroke-width:0.34606" />
      <path
         fill="#000000"
         d="m 140.86187,99.17607 q 0.32876,-0.92744 1.34272,-0.87554 a 0.25954505,0.25954505 0 0 1 0.2457,0.25955 v 1.20083 a 0.18687243,0.18687243 0 0 1 -0.20764,0.18687 c -2.0556,-0.23186 -1.41538,2.84808 -1.44653,4.05929 q -0.007,0.17303 -0.17995,0.17303 h -1.23544 q -0.21801,0 -0.21801,-0.21456 v -5.40892 q 0,-0.25955 0.25954,-0.25955 h 0.90322 q 0.2111,0 0.21802,0.2111 l 0.0104,0.61945 a 0.15918763,0.15918763 0 0 0 0.30799,0.0485 z"
         id="path7075-3"
         style="fill:#bfbfbf;fill-opacity:1;stroke-width:0.34606" />
      <path
         fill="#000000"
         d="m 150.54463,103.70945 c -3.52981,2.02792 -5.09746,-3.21489 -0.29415,-3.32563 a 0.29415105,0.29761165 60.5 0 0 0.15227,-0.54678 q -1.11778,-0.69904 -2.28054,0.0173 a 0.19379363,0.19379363 0 0 1 -0.28723,-0.1142 l -0.19725,-0.74056 q -0.045,-0.16957 0.1142,-0.24225 1.81335,-0.83746 3.24604,-0.26646 c 1.67839,0.66789 1.19391,3.77897 1.24582,5.2082 a 0.38758727,0.38412667 76.7 0 1 -0.22494,0.36683 q -0.98281,0.43949 -1.33233,-0.308 -0.045,-0.10382 -0.14189,-0.0485 z m -1.52266,-1.82373 a 0.5952233,0.5986839 30.7 0 0 0.27685,1.09355 q 0.86515,0.0692 1.24927,-0.61599 a 0.5744597,0.5709991 9 0 0 -0.61252,-0.84093 q -0.51563,0.10382 -0.9136,0.36337 z"
         id="path7077-7"
         style="fill:#bfbfbf;fill-opacity:1;stroke-width:0.34606" />
      <path
         fill="#000000"
         d="m 157.80843,99.07571 a 0.17303003,0.17649063 47.6 0 0 0.25609,0.0104 c 1.5019,-1.49498 3.19413,-0.76479 3.48136,1.22159 q 0.11074,0.75441 -0.0104,3.67516 -0.007,0.19726 -0.20418,0.19726 h -1.21467 q -0.17649,0 -0.17995,-0.1765 -0.0311,-1.64724 -0.0138,-3.27372 c 0.0104,-1.36694 -1.78567,-1.23544 -1.74414,0.16264 q 0.045,1.55727 0.007,3.11455 -0.007,0.17303 -0.17995,0.17303 h -1.21467 q -0.20764,0 -0.21456,-0.20764 c -0.0485,-1.3531 0.22494,-3.52289 -0.39797,-4.10427 a 0.38412667,0.38066607 64.2 0 0 -0.29415,-0.10382 c -1.36694,0.0969 -0.88245,3.25988 -0.89976,4.2427 q -0.003,0.17303 -0.17995,0.17303 h -1.23543 q -0.21802,0 -0.21802,-0.21456 v -5.49544 q 0,-0.17303 0.17303,-0.17303 h 0.99319 a 0.21801784,0.21801784 0 0 1 0.21802,0.21802 v 0.39105 q 0,0.31491 0.22494,0.0934 1.51574,-1.4846 2.84807,0.0761 z"
         id="path7079-5"
         style="fill:#bfbfbf;fill-opacity:1;stroke-width:0.34606" />
      <path
         fill="#000000"
         d="m 164.09634,102.06221 c 0.25609,1.01741 2.18364,0.88245 2.87576,0.66443 q 0.23878,-0.0761 0.27685,0.17303 l 0.12112,0.77518 a 0.23532084,0.23878144 79.2 0 1 -0.18341,0.26646 c -2.05214,0.44642 -3.93124,0.37375 -4.51954,-1.72338 -1.18353,-4.20809 5.23242,-5.88648 5.04901,-0.6229 a 0.36336306,0.36682366 1.7 0 1 -0.37028,0.35298 l -3.11454,-0.0554 a 0.13842402,0.13496342 83.8 0 0 -0.13497,0.16957 z m 0.16265,-1.31157 1.76491,-0.0519 a 0.15226643,0.15226643 0 0 0 0.1488,-0.15573 l -0.003,-0.0484 a 1.0174166,1.0001136 88.3 0 0 -1.02779,-0.98628 h -0.0692 a 1.0174166,1.0001136 88.3 0 0 -0.96896,1.04857 v 0.0484 a 0.15226643,0.15226643 0 0 0 0.15572,0.14535 z"
         id="path7081-7"
         style="fill:#bfbfbf;fill-opacity:1;stroke-width:0.34606" />
      <path
         fill="#000000"
         d="m 170.04858,98.8923 a 0.15918763,0.15572703 67.1 0 0 0.26992,0.11074 c 1.33926,-1.39809 3.21836,-0.63675 3.41908,1.30464 q 0.11074,1.06241 0,3.67516 -0.0104,0.19726 -0.2111,0.19726 h -1.21121 q -0.17303,0 -0.17649,-0.17303 -0.0381,-1.60918 -0.0104,-3.1976 c 0.0277,-1.43961 -1.79951,-1.38424 -1.79605,-0.003 q 0.007,1.60226 -0.045,3.20798 -0.003,0.16611 -0.17303,0.16611 h -1.23197 q -0.21802,0 -0.21802,-0.21456 v -5.45391 q 0,-0.21456 0.21802,-0.21456 h 0.90667 q 0.25955,0 0.25955,0.25955 z"
         id="path7083-9"
         style="fill:#bfbfbf;fill-opacity:1;stroke-width:0.34606" />
      <path
         fill="#000000"
         d="m 181.50372,104.19636 a 2.7788623,2.9691953 4.2 0 1 -2.55392,-3.16475 2.7788623,2.9691953 4.2 0 1 2.98885,-2.75772 2.7788623,2.9691953 4.2 0 1 2.55392,3.16475 2.7788623,2.9691953 4.2 0 1 -2.98885,2.75772 z m 0.17756,-1.29326 a 1.0970104,1.6714701 0.3 0 0 1.10577,-1.66569 1.0970104,1.6714701 0.3 0 0 -1.08826,-1.67718 1.0970104,1.6714701 0.3 0 0 -1.10576,1.66569 1.0970104,1.6714701 0.3 0 0 1.08825,1.67718 z"
         id="path7085-4"
         style="fill:#bfbfbf;fill-opacity:1;stroke-width:0.34606" />
      <path
         fill="#000000"
         d="m 195.56705,102.40481 q 1.24235,0.82016 2.72695,0.30799 a 0.20071483,0.19725423 75 0 1 0.26301,0.15227 l 0.1315,0.78555 q 0.0242,0.15919 -0.12458,0.21456 c -2.1525,0.82362 -4.85177,0.0761 -4.70988,-2.61275 0.21802,-4.14926 5.84841,-3.85511 5.10438,0.51563 q -0.0277,0.16611 -0.19725,0.16611 l -3.04879,-0.0104 a 0.26300565,0.26300565 0 0 0 -0.14534,0.48103 z m -0.0208,-1.68185 1.86181,-0.0139 a 0.10381802,0.10381802 0 0 0 0.10035,-0.10728 v -0.0761 a 1.031259,1.031259 0 0 0 -1.04164,-1.02088 h -0.007 a 1.031259,1.031259 0 0 0 -1.02088,1.04164 v 0.0761 a 0.10381802,0.10381802 0 0 0 0.10728,0.10036 z"
         id="path7087-2"
         style="fill:#bfbfbf;fill-opacity:1;stroke-width:0.34606" />
      <path
         fill="#223d71"
         d="m 65.832594,103.23189 a 0.30453285,0.30453285 0 0 1 -0.304532,-0.30453 v -1.9414 a 1.1108528,1.2077496 0 0 1 1.110852,-1.20775 h 0.06229 a 1.1108528,1.2077496 0 0 1 1.110853,1.20775 v 1.9414 a 0.30453285,0.30453285 0 0 1 -0.304533,0.30453 z"
         id="path7089-6"
         style="stroke-width:0.34606" />
      <path
         fill="#223d71"
         d="m 69.376249,103.23535 a 0.38412667,0.38412667 0 0 1 -0.384126,-0.38066 l -0.0035,-1.71992 a 1.3565554,1.1316164 89.9 0 1 1.128156,-1.36002 h 0.08998 a 1.3565554,1.1316164 89.9 0 1 1.135077,1.3531 l 0.0035,1.71991 a 0.38412667,0.38412667 0 0 1 -0.384127,0.38759 z"
         id="path7091-1"
         style="stroke-width:0.34606" />
      <path
         fill="#223d71"
         d="m 72.916444,103.22843 a 0.38066607,0.38066607 0 0 1 -0.377206,-0.38067 l 0.0035,-1.74068 a 1.1246952,1.3392524 0.2 0 1 1.131616,-1.33579 h 0.0969 a 1.1246952,1.3392524 0.2 0 1 1.117774,1.34271 l -0.0035,1.74069 a 0.38066607,0.38066607 0 0 1 -0.384127,0.38066 z"
         id="path7093-0"
         style="stroke-width:0.34606" />
      <path
         fill="#223d71"
         d="m 76.394347,103.22843 a 0.31145405,0.31145405 0 0 1 -0.307993,-0.31145 l 0.0035,-1.86181 a 1.1246952,1.2873434 0.2 0 1 1.131616,-1.28388 h 0.08998 a 1.1246952,1.2873434 0.2 0 1 1.117774,1.2908 l -0.0035,1.86181 a 0.31145405,0.31145405 0 0 1 -0.314915,0.31145 z"
         id="path7095-5"
         style="stroke-width:0.34606" />
      <path
         fill="#223d71"
         d="m 80.021057,103.23189 a 0.30453285,0.30453285 0 0 1 -0.304533,-0.30453 v -1.9414 a 1.1108528,1.2077496 0 0 1 1.110853,-1.20775 h 0.06229 a 1.1108528,1.2077496 0 0 1 1.110852,1.20775 v 1.9414 a 0.30453285,0.30453285 0 0 1 -0.304532,0.30453 z"
         id="path7097-6"
         style="stroke-width:0.34606" />
      <path
         fill="#223d71"
         d="m 83.557791,103.23881 a 0.38758727,0.38758727 0 0 1 -0.387588,-0.38412 l -0.0035,-1.6784 a 1.4015432,1.1385376 89.9 0 1 1.135077,-1.405 h 0.08997 a 1.4015432,1.1385376 89.9 0 1 1.141999,1.39808 l 0.0035,1.67839 a 0.38758727,0.38758727 0 0 1 -0.387587,0.39105 z"
         id="path7099-3"
         style="stroke-width:0.34606" />
      <path
         fill="#223d71"
         d="m 87.24333,103.24227 a 0.34606006,0.34606006 0 0 1 -0.34952,-0.34606 l -0.0035,-1.71299 a 1.4084644,1.1316164 89.8 0 1 1.124695,-1.41193 h 0.0969 a 1.4084644,1.1316164 89.8 0 1 1.138538,1.405 l 0.0035,1.713 a 0.34606006,0.34606006 0 0 1 -0.342599,0.34606 z"
         id="path7101-3"
         style="stroke-width:0.34606" />
      <path
         fill="#223d71"
         d="m 66.943447,113.631 a 0.64367171,0.64367171 0 0 1 -0.647132,-0.64368 l -0.01384,-3.84818 a 2.4501052,2.270154 89.8 0 1 2.259773,-2.45703 h 0.17303 a 2.4501052,2.270154 89.8 0 1 2.280535,2.44318 l 0.01384,3.84819 a 0.64367171,0.64367171 0 0 1 -0.643672,0.64367 z"
         id="path7103-2"
         style="stroke-width:0.34606" />
      <path
         fill="#223d71"
         d="m 74.85438,109.29486 c 0.05537,-3.15606 4.336133,-3.58172 4.675272,-0.55369 q 0.224939,2.02791 0.03461,4.11119 -0.02076,0.23532 -0.231861,0.12804 l -1.654167,-0.82708 a 1.117774,1.1281558 45.2 0 0 -1.007035,0 l -1.526124,0.76133 q -0.218018,0.11074 -0.2284,-0.13496 -0.09344,-1.76491 -0.06229,-3.48483 z"
         id="path7105-0"
         style="stroke-width:0.34606" />
      <path
         fill="#223d71"
         d="m 83.890008,113.60331 a 0.53985369,0.53985369 0 0 1 -0.536393,-0.53985 l 0.0069,-4.00738 a 2.2770752,2.373972 0.1 0 1 2.280536,-2.37051 h 0.131503 a 2.2770752,2.373972 0.1 0 1 2.273615,2.37743 l -0.0069,4.00738 a 0.53985369,0.53985369 0 0 1 -0.543314,0.53985 z"
         id="path7107-7"
         style="stroke-width:0.34606" />
      <circle
         fill="#1f1e21"
         cx="142.36723"
         cy="110.31919"
         r="0.94128335"
         id="circle7109-7"
         style="fill:#7e7b84;fill-opacity:1;stroke-width:0.34606" />
      <path
         fill="#1f1e21"
         d="m 169.01386,112.0668 -0.003,-2.47779 q 0,-0.21801 0.21455,-0.21801 h 1.16969 q 0.25954,0 0.25954,0.25954 v 7.78635 q 0,0.25955 -0.25954,0.25955 h -0.95167 a 0.19725423,0.19725423 0 0 1 -0.19725,-0.18341 l -0.0311,-0.44988 a 0.14534523,0.14188462 64.7 0 0 -0.2457,-0.09 c -0.87899,0.93782 -2.11097,0.96551 -2.97958,-0.007 -1.57111,-1.76144 -0.74749,-5.73767 2.31168,-5.03517 q 0.18688,0.0415 0.29416,0.19725 0.0969,0.14189 0.26646,0.12458 0.15227,-0.0138 0.15227,-0.16611 z m -1.06054,4.24267 a 1.1212346,1.6264823 0.3 0 0 1.12975,-1.62057 1.1212346,1.6264823 0.3 0 0 -1.11272,-1.63233 1.1212346,1.6264823 0.3 0 0 -1.12975,1.62057 1.1212346,1.6264823 0.3 0 0 1.11272,1.63233 z"
         id="path7111-2"
         style="fill:#7e7b84;fill-opacity:1;stroke-width:0.34606" />
      <rect
         fill="#1f1e21"
         x="113.29474"
         y="109.7136"
         width="1.647246"
         height="7.9593816"
         rx="0.22147843"
         id="rect7113-4"
         style="fill:#7e7b84;fill-opacity:1;stroke-width:0.34606" />
      <path
         fill="#1f1e21"
         d="m 154.78041,111.14282 c 0.56408,-0.88591 0.75095,-1.88256 2.15941,-1.37039 a 0.12112102,0.12458162 29.7 0 1 0.0519,0.19379 l -1.01395,1.22851 q -0.12805,0.15919 -0.33568,0.16611 l -0.72327,0.0277 q -0.30107,0.0104 -0.13842,-0.24571 z"
         id="path7115-0"
         style="fill:#7e7b84;fill-opacity:1;stroke-width:0.34606" />
      <path
         fill="#1f1e21"
         d="m 117.97,112.53745 c 1.34271,-1.44654 3.27027,-0.66098 3.41561,1.22505 q 0.1142,1.4846 0.0138,3.71322 -0.0104,0.20072 -0.21109,0.20072 h -1.21467 q -0.16957,0 -0.17303,-0.16957 -0.0415,-1.61264 -0.0311,-3.20106 c 0.0138,-1.44999 -1.71646,-1.3877 -1.74068,-0.09 q -0.0311,1.62994 -0.09,3.25642 -0.007,0.20418 -0.21109,0.20418 h -1.14546 q -0.25955,0 -0.25955,-0.25955 v -5.36393 q 0,-0.25954 0.25955,-0.25954 h 0.90321 a 0.21455724,0.21455724 0 0 1 0.21456,0.20763 l 0.0173,0.4395 a 0.14880583,0.14534523 65.6 0 0 0.25262,0.0969 z"
         id="path7117-2"
         style="fill:#7e7b84;fill-opacity:1;stroke-width:0.34606" />
      <path
         fill="#1f1e21"
         d="m 126.35849,112.31597 v -0.308 q 0,-0.21455 0.21802,-0.21455 h 0.92052 q 0.22494,0 0.2284,0.22494 0.0485,2.66466 0.0242,5.3051 c -0.0277,2.60583 -2.50894,3.29795 -4.55761,2.42588 a 0.23532084,0.23532084 0 0 1 -0.13497,-0.27339 l 0.23186,-0.9482 q 0.0554,-0.22494 0.2457,-0.0969 c 1.20775,0.80286 2.55739,0.37374 2.61276,-1.21813 a 0.14188462,0.14188462 0 0 0 -0.22494,-0.11766 c -1.37386,1.01049 -2.61621,0.28723 -3.16645,-1.1247 -0.80632,-2.05906 0.84439,-5.48851 3.43292,-3.56788 q 0.16956,0.12458 0.16956,-0.0865 z m -1.1839,4.01076 a 0.98627117,1.6299429 0.5 0 0 1.00046,-1.62125 0.98627117,1.6299429 0.5 0 0 -0.97202,-1.63849 0.98627117,1.6299429 0.5 0 0 -1.00045,1.62125 0.98627117,1.6299429 0.5 0 0 0.97201,1.63849 z"
         id="path7119-2"
         style="fill:#7e7b84;fill-opacity:1;stroke-width:0.34606" />
      <path
         fill="#1f1e21"
         d="m 129.53533,112.9804 c 1.00011,-1.65416 3.4779,-1.59879 4.29114,0.16611 q 0.42912,0.92398 0.29761,2.06944 -0.0277,0.22494 -0.25262,0.22148 l -3.04533,-0.0346 a 0.26992685,0.26992685 0 0 0 -0.15573,0.49487 q 1.24236,0.84785 2.73042,0.29761 0.22494,-0.0865 0.26646,0.15227 l 0.13151,0.79247 q 0.0311,0.16957 -0.13151,0.23186 c -3.12492,1.14546 -6.1045,-1.12123 -4.13195,-4.3915 z m 1.0797,1.26312 1.90333,-0.0346 a 0.08651502,0.08651502 0 0 0 0.0865,-0.0865 l -0.003,-0.0311 a 1.1073922,0.97588937 89 0 0 -0.99319,-1.09009 h -0.12459 a 1.1073922,0.97588937 89 0 0 -0.95512,1.12469 v 0.0311 a 0.08651502,0.08651502 0 0 0 0.0865,0.0865 z"
         id="path7121-1"
         style="fill:#7e7b84;fill-opacity:1;stroke-width:0.34606" />
      <path
         fill="#1f1e21"
         d="m 136.65724,112.53745 c 1.29773,-1.42577 3.23912,-0.68866 3.426,1.18352 q 0.11074,1.11431 0,3.75821 -0.0104,0.19726 -0.20764,0.19726 h -1.21467 q -0.17649,0 -0.17995,-0.17649 -0.0346,-1.60572 -0.003,-3.19068 c 0.0311,-1.41538 -1.74068,-1.39808 -1.76491,-0.0934 q -0.0277,1.62994 -0.0865,3.25642 -0.007,0.20418 -0.2111,0.20418 h -1.14546 q -0.25954,0 -0.25954,-0.25955 v -5.36393 q 0,-0.25954 0.25954,-0.25954 h 0.90322 a 0.21455724,0.21455724 0 0 1 0.21456,0.20763 l 0.0173,0.44296 a 0.14534523,0.14534523 0 0 0 0.25262,0.0934 z"
         id="path7123-9"
         style="fill:#7e7b84;fill-opacity:1;stroke-width:0.34606" />
      <rect
         fill="#1f1e21"
         x="141.58513"
         y="111.79342"
         width="1.647246"
         height="5.8830209"
         rx="0.20417543"
         id="rect7125-0"
         style="fill:#7e7b84;fill-opacity:1;stroke-width:0.34606" />
      <path
         fill="#1f1e21"
         d="m 144.27402,115.69697 c -1.24927,-4.3119 5.68231,-5.7619 5.07671,-0.4741 q -0.0242,0.21802 -0.24225,0.21456 l -3.05571,-0.0346 a 0.26992685,0.26992685 0 0 0 -0.15572,0.49487 q 1.23889,0.84785 2.72695,0.29761 0.2284,-0.0831 0.26993,0.15573 l 0.13496,0.7994 a 0.17995123,0.18341183 73.9 0 1 -0.11074,0.19725 c -1.75798,0.70596 -4.04544,0.41527 -4.64413,-1.65071 z m 1.55381,-1.47421 1.90333,0.007 a 0.08651502,0.08651502 0 0 0 0.0865,-0.0865 v -0.0311 a 0.97588937,1.1073922 0.2 0 0 -0.96897,-1.11085 h -0.12458 a 0.97588937,1.1073922 0.2 0 0 -0.97935,1.10393 l -0.003,0.0311 a 0.08651502,0.08651502 0 0 0 0.0865,0.0865 z"
         id="path7127-4"
         style="fill:#7e7b84;fill-opacity:1;stroke-width:0.34606" />
      <path
         fill="#1f1e21"
         d="m 151.63126,112.66895 a 0.14534523,0.14188462 63.2 0 0 0.26993,0.09 q 0.45334,-0.91013 1.48806,-0.98973 0.22147,-0.0173 0.22147,0.20418 v 1.28388 a 0.18687243,0.18341183 3.3 0 1 -0.20763,0.18341 c -2.04522,-0.22148 -1.41885,2.84808 -1.44653,4.05583 q -0.003,0.18341 -0.18687,0.18341 l -1.2216,-0.007 q -0.22494,-0.003 -0.22494,-0.22494 v -5.48505 q 0,-0.17303 0.17649,-0.17303 l 1.01396,0.0104 a 0.21801784,0.22147844 4.7 0 1 0.21456,0.25608 z"
         id="path7129-7"
         style="fill:#7e7b84;fill-opacity:1;stroke-width:0.34606" />
      <rect
         fill="#1f1e21"
         x="154.6759"
         y="111.5222"
         transform="rotate(0.1)"
         width="1.647246"
         height="5.8830209"
         rx="0.23878144"
         id="rect7131-1"
         style="fill:#7e7b84;fill-opacity:1;stroke-width:0.34606" />
      <path
         fill="#1f1e21"
         d="m 160.07859,113.19496 q -1.00704,-0.46718 -2.01753,0.15573 a 0.18687243,0.19033303 67.7 0 1 -0.28377,-0.11766 l -0.16957,-0.74749 q -0.0415,-0.17649 0.12458,-0.24917 1.76145,-0.79247 3.04533,-0.25608 c 1.69223,0.7025 1.20083,3.93124 1.26312,5.47121 q 0.007,0.17995 -0.17303,0.20763 -0.52947,0.0796 -1.08663,0.0139 -0.36682,-0.045 -0.23186,-0.43258 a 0.14880583,0.14880583 0 0 0 -0.23878,-0.15919 c -2.93113,2.59545 -4.97635,-3.27372 -0.39105,-3.18375 a 0.37028426,0.36682366 57.9 0 0 0.15919,-0.7025 z m -1.20775,2.30822 a 0.5883021,0.5848415 20 0 0 0.45334,0.96551 q 0.89629,-0.007 1.05894,-0.91014 a 0.48102348,0.48102348 0 0 0 -0.52255,-0.56408 q -0.60907,0.0588 -0.98973,0.50871 z"
         id="path7133-6"
         style="fill:#7e7b84;fill-opacity:1;stroke-width:0.34606" />
      <path
         fill="#1f1e21"
         d="m 173.44689,117.45496 c -3.64402,-1.25966 -1.01742,-7.35378 2.23901,-5.29472 1.03818,0.65751 1.2908,1.89987 1.18006,3.05571 q -0.0208,0.22494 -0.2457,0.22148 l -3.20106,-0.0346 a 0.19379363,0.19379363 0 0 0 -0.12804,0.33914 q 1.24236,1.05895 2.88268,0.46718 0.19725,-0.0727 0.23186,0.13497 l 0.1315,0.79247 q 0.0277,0.15919 -0.12458,0.21802 -1.5365,0.59523 -2.96573,0.10036 z m -0.0173,-3.20798 1.76491,-0.0485 a 0.15572703,0.15572703 0 0 0 0.15227,-0.15918 l -0.003,-0.0519 a 1.0174166,0.98973177 88.4 0 0 -1.01742,-0.98973 h -0.0969 a 1.0174166,0.98973177 88.4 0 0 -0.96204,1.0451 l 0.003,0.0519 a 0.15572703,0.15572703 0 0 0 0.15918,0.15226 z"
         id="path7135-1"
         style="fill:#7e7b84;fill-opacity:1;stroke-width:0.34606" />
      <path
         fill="#223d71"
         d="m 74.892447,114.20199 -0.06575,0.12113 q -0.07267,0.13842 -0.228399,0.17995 l -0.937823,0.2457 a 0.15226643,0.15226643 0 0 1 -0.134964,-0.26301 q 0.546775,-0.45333 1.20429,-0.66789 0.17649,-0.0554 0.280308,-0.20418 0.200715,-0.29069 0.51563,-0.12458 0.166108,0.0831 0.23186,-0.09 l 0.110739,-0.28723 q 0.07267,-0.18342 0.263006,-0.12805 0.449878,0.12805 0.650593,-0.29415 0.08305,-0.17303 0.273387,-0.20071 0.436036,-0.0623 0.612526,0.38758 0.07267,0.18342 0.259545,0.12459 0.491406,-0.14881 0.68866,0.33221 a 0.22493904,0.22493904 0 0 0 0.266466,0.13151 q 0.425654,-0.1142 0.501787,0.30453 0.03807,0.21802 0.245703,0.13842 0.397969,-0.1488 0.581381,0.15227 0.08997,0.15227 0.256084,0.2111 l 0.304533,0.1142 a 0.19033303,0.18687243 59.2 0 1 -0.08997,0.36336 q -0.224939,-0.0346 -0.346061,-0.23878 -0.08652,-0.14881 -0.224939,-0.0485 -0.335678,0.23532 -0.598683,-0.11766 -0.103818,-0.13842 -0.276849,-0.12458 -0.449878,0.0311 -0.622908,-0.40489 -0.05883,-0.15227 -0.218017,-0.11766 -0.366824,0.0831 -0.581381,-0.23532 -0.0969,-0.14535 -0.2284,-0.0311 -0.34606,0.29761 -0.709423,-0.0138 -0.197254,-0.16957 -0.339139,0.0519 -0.176491,0.28031 -0.526011,0.2284 a 0.24916324,0.24916324 0 0 0 -0.266467,0.15572 q -0.193793,0.50179 -0.650592,0.28377 -0.131503,-0.0623 -0.200715,0.0658 z"
         id="path7137-5"
         style="stroke-width:0.34606" />
      <path
         fill="#223d71"
         d="m 83.038701,117.05353 a 0.05190901,0.05190901 0 0 1 0.01384,0.0796 q -0.190333,0.20072 -0.474102,0.0381 a 0.10035742,0.13496342 67.9 0 0 -0.06575,-0.0173 l -11.080843,0.0104 q -0.46026,0 -0.05191,-0.2111 l 5.408919,-2.83769 a 0.84784715,0.84438655 45.1 0 1 0.802859,0.003 z m -5.363931,-2.15249 h -0.92052 a 0.32183586,0.32183586 0 0 0 -0.321836,0.32183 v 0.63675 a 0.67481712,0.86861075 0.1 0 0 0.674817,0.86861 h 0.214557 a 0.67481712,0.86861075 0.1 0 0 0.674817,-0.86861 v -0.63675 a 0.32183586,0.32183586 0 0 0 -0.321835,-0.32183 z"
         id="path7139-0"
         style="stroke-width:0.34606" />
      <circle
         fill="#223d71"
         cx="74.321449"
         cy="118.59003"
         r="0.58830214"
         id="circle7141-5"
         style="stroke-width:0.34606" />
      <circle
         fill="#223d71"
         cx="79.692299"
         cy="118.59003"
         r="0.5813809"
         id="circle7143-4"
         style="stroke-width:0.34606" />
      <circle
         fill="#223d71"
         cx="66.922684"
         cy="119.63168"
         r="0.58484155"
         id="circle7145-7"
         style="stroke-width:0.34606" />
      <circle
         fill="#223d71"
         cx="70.341759"
         cy="119.62821"
         r="0.58484155"
         id="circle7147-3"
         style="stroke-width:0.34606" />
      <circle
         fill="#223d71"
         cx="83.917694"
         cy="119.62475"
         r="0.58484155"
         id="circle7149-5"
         style="stroke-width:0.34606" />
      <circle
         fill="#223d71"
         cx="87.340233"
         cy="119.62821"
         r="0.58830214"
         id="circle7151-9"
         style="stroke-width:0.34606" />
      <path
         fill="#223d71"
         d="m 74.560229,130.93746 a 0.73018673,0.73018673 0 0 1 -0.733647,-0.73019 l -0.02422,-7.17382 a 3.4536794,3.2218192 89.8 0 1 3.207976,-3.46406 h 0.17303 a 3.4536794,3.2218192 89.8 0 1 3.235662,3.44329 l 0.02422,7.17383 a 0.73018673,0.73018673 0 0 1 -0.726726,0.73019 z"
         id="path7153-3"
         style="stroke-width:0.34606" />
      <path
         fill="#223d71"
         d="m 83.983445,130.9167 a 0.64367171,0.64367171 0 0 1 -0.643672,-0.64368 v -6.86583 a 2.3186024,2.5331596 0 0 1 2.318602,-2.53316 h 0.08306 a 2.3186024,2.5331596 0 0 1 2.318602,2.53316 v 6.86583 a 0.64367171,0.64367171 0 0 1 -0.643672,0.64368 z"
         id="path7155-0"
         style="stroke-width:0.34606" />
      <path
         fill="#223d71"
         d="m 66.739272,130.92016 a 0.42219327,0.42219327 0 0 1 -0.422194,-0.4222 l -0.01038,-6.98695 a 2.3774326,2.270154 89.9 0 1 2.266693,-2.38089 h 0.138423 a 2.3774326,2.270154 89.9 0 1 2.273615,2.37397 l 0.01038,6.98695 a 0.42219327,0.42219327 0 0 1 -0.422193,0.42219 z"
         id="path7157-7"
         style="stroke-width:0.34606" />
      <circle
         fill="#1f1e21"
         cx="121.60364"
         cy="123.46949"
         r="0.94128335"
         id="circle7159-3"
         style="fill:#7e7b84;fill-opacity:1;stroke-width:0.34606" />
      <path
         fill="#1f1e21"
         d="m 170.49499,125.55623 q 1.30465,-0.97589 2.48818,-0.39797 c 3.0038,1.46383 0.79247,7.69637 -2.7235,5.02479 q -0.21109,-0.16265 -0.21109,0.10382 v 0.29415 q 0,0.27685 -0.27685,0.25954 l -0.86515,-0.0485 q -0.24224,-0.0138 -0.24224,-0.25954 v -7.79327 q 0,-0.21802 0.21802,-0.21802 h 1.21121 q 0.21455,0 0.21455,0.21456 v 2.72695 q 0,0.23532 0.18687,0.0934 z m 0.97544,3.92771 a 1.256198,1.6368641 0.5 0 0 1.27046,-1.62583 1.256198,1.6368641 0.5 0 0 -1.24187,-1.64776 1.256198,1.6368641 0.5 0 0 -1.27046,1.62582 1.256198,1.6368641 0.5 0 0 1.24187,1.64777 z"
         id="path7161-1"
         style="fill:#7e7b84;fill-opacity:1;stroke-width:0.34606" />
      <circle
         fill="#1f1e21"
         cx="180.25735"
         cy="123.46949"
         r="0.94128335"
         id="circle7163-1"
         style="fill:#7e7b84;fill-opacity:1;stroke-width:0.34606" />
      <circle
         fill="#1f1e21"
         cx="198.9446"
         cy="123.46949"
         r="0.94128335"
         id="circle7165-6"
         style="fill:#7e7b84;fill-opacity:1;stroke-width:0.34606" />
      <path
         fill="#1f1e21"
         d="m 113.29127,123.27223 a 0.42219327,0.42219327 0 0 1 0.42219,-0.42219 h 2.32206 a 3.8378061,3.7547517 0 0 1 3.83781,3.75475 v 0.42219 a 3.8378061,3.7547517 0 0 1 -3.83781,3.75475 h -2.32206 a 0.42219327,0.42219327 0 0 1 -0.42219,-0.42219 z m 1.63686,1.04856 0.007,4.9625 a 0.15918763,0.15918763 0 0 0 0.15919,0.15919 l 0.67828,-0.003 a 2.3359054,2.2839964 89.9 0 0 2.28053,-2.33937 v -0.60906 a 2.3359054,2.2839964 89.9 0 0 -2.28745,-2.33245 l -0.67828,0.003 a 0.15918763,0.15918763 0 0 0 -0.15919,0.15919 z"
         id="path7167-9"
         style="fill:#7e7b84;fill-opacity:1;stroke-width:0.34606" />
      <path
         fill="#1f1e21"
         d="m 137.78886,123.30337 q 0.1142,-0.30799 0.21456,-0.3426 0.88591,-0.28376 0.55715,0.58485 c -0.44988,1.19044 -1.20083,0.6229 -1.95178,0.25262 a 0.21455724,0.21455724 0 0 0 -0.29761,0.12458 q -0.15919,0.48449 -0.67481,0.41873 -0.17996,-0.0242 -0.18342,-0.20763 -0.0208,-0.80632 0.60561,-1.26658 0.17649,-0.12804 0.37028,-0.0311 l 1.10739,0.56754 q 0.18342,0.0934 0.25263,-0.10036 z"
         id="path7169-3"
         style="fill:#7e7b84;fill-opacity:1;stroke-width:0.34606" />
      <path
         fill="#1f1e21"
         d="m 159.2342,127.92328 v 2.6958 a 0.21109664,0.21109664 0 0 1 -0.2111,0.2111 l -1.22159,-0.0104 a 0.21109664,0.21109664 0 0 1 -0.21109,-0.2111 v -7.53026 a 0.21109664,0.21109664 0 0 1 0.21109,-0.2111 h 4.07659 a 0.21109664,0.21109664 0 0 1 0.2111,0.2111 v 1.04858 a 0.21109664,0.21109664 0 0 1 -0.2111,0.21109 h -2.4328 a 0.21109664,0.21109664 0 0 0 -0.2111,0.2111 v 1.49498 a 0.21109664,0.21109664 0 0 0 0.2111,0.2111 l 2.25977,-0.0208 a 0.21109664,0.21109664 0 0 1 0.2111,0.2111 v 1.05548 a 0.21109664,0.21109664 0 0 1 -0.2111,0.2111 h -2.25977 a 0.21109664,0.21109664 0 0 0 -0.2111,0.2111 z"
         id="path7171-8"
         style="fill:#7e7b84;fill-opacity:1;stroke-width:0.34606" />
      <path
         fill="#1f1e21"
         d="m 203.14922,124.28618 c 0.56062,-0.88937 0.75095,-1.87218 2.1525,-1.36347 a 0.12112102,0.12112102 0 0 1 0.0519,0.19379 l -1.03471,1.2562 a 0.37374486,0.38066607 19.8 0 1 -0.28031,0.13496 l -0.76134,0.0104 q -0.27684,0.003 -0.12804,-0.23187 z"
         id="path7173-7"
         style="fill:#7e7b84;fill-opacity:1;stroke-width:0.34606" />
      <rect
         fill="#1f1e21"
         x="120.82153"
         y="124.9437"
         width="1.647246"
         height="5.8830209"
         rx="0.20417543"
         id="rect7175-1"
         style="fill:#7e7b84;fill-opacity:1;stroke-width:0.34606" />
      <path
         fill="#1f1e21"
         d="m 125.02616,128.34201 c -2.97957,-0.96897 -0.65059,-4.33267 2.19749,-3.118 q 0.17303,0.0761 0.13496,0.263 l -0.16611,0.77864 a 0.18687243,0.18687243 0 0 1 -0.27339,0.12458 q -0.58138,-0.32184 -1.24581,-0.2284 a 0.44641748,0.44641748 0 0 0 -0.12459,0.84785 c 1.1074,0.50871 2.82732,1.18006 1.88603,2.74771 -0.74749,1.24928 -2.48125,1.24236 -3.69938,0.73365 q -0.15573,-0.0623 -0.12112,-0.22494 l 0.19725,-0.89975 a 0.14534523,0.14534523 0 0 1 0.2111,-0.0969 q 0.69212,0.37374 1.47768,0.34952 a 0.49140529,0.48794468 65.7 0 0 0.31837,-0.84785 q -0.27685,-0.25954 -0.79248,-0.42911 z"
         id="path7177-3"
         style="fill:#7e7b84;fill-opacity:1;stroke-width:0.34606" />
      <path
         fill="#1f1e21"
         d="m 129.99213,129.03759 q 1.23543,0.87899 2.74079,0.29415 0.18687,-0.0727 0.22494,0.12458 l 0.14535,0.77172 q 0.0415,0.22147 -0.17303,0.29761 c -2.01407,0.70596 -4.61645,0.23532 -4.65797,-2.37397 -0.0657,-4.27731 5.71691,-4.34652 5.15283,0.21801 q -0.0277,0.22148 -0.24916,0.21802 l -3.02457,-0.0346 a 0.26646625,0.26646625 0 0 0 -0.15918,0.48448 z m -0.0692,-1.64379 1.90333,-0.0346 a 0.08651502,0.08651502 0 0 0 0.0865,-0.09 v -0.0311 a 1.1073922,0.97588937 88.9 0 0 -0.99665,-1.08663 h -0.12459 a 1.1073922,0.97588937 88.9 0 0 -0.95512,1.12815 v 0.0311 a 0.08651502,0.08651502 0 0 0 0.0865,0.0831 z"
         id="path7179-7"
         style="fill:#7e7b84;fill-opacity:1;stroke-width:0.34606" />
      <path
         fill="#1f1e21"
         d="m 135.78863,125.62544 a 0.16264823,0.16610883 61.1 0 0 0.30453,0.0865 q 0.3426,-0.53639 0.96205,-0.7025 c 3.07301,-0.83747 2.49855,4.13196 2.42934,5.65462 q -0.0104,0.16611 -0.17649,0.16611 l -1.22851,-0.007 q -0.21802,-0.003 -0.21456,-0.21802 0.007,-1.53651 -0.0104,-3.05571 c -0.0208,-1.66455 -1.81682,-1.44653 -1.80297,0.0173 q 0.0138,1.53651 -0.0138,3.07994 -0.003,0.18341 -0.18687,0.18341 l -1.22159,-0.007 q -0.22494,-0.003 -0.22494,-0.22494 v -5.44006 q 0,-0.21456 0.21802,-0.21456 h 0.90668 q 0.25954,0 0.25954,0.25954 z"
         id="path7181-1"
         style="fill:#7e7b84;fill-opacity:1;stroke-width:0.34606" />
      <path
         fill="#1f1e21"
         d="m 143.23809,130.8451 a 2.7338745,2.9622741 2.3 0 1 -2.61278,-3.06959 2.7338745,2.9622741 2.3 0 1 2.85053,-2.85019 2.7338745,2.9622741 2.3 0 1 2.61278,3.06959 2.7338745,2.9622741 2.3 0 1 -2.85053,2.85019 z m 0.0803,-1.26074 a 1.6991549,1.0451014 89.9 0 0 1.04213,-1.70098 1.6991549,1.0451014 89.9 0 0 -1.04808,-1.69733 1.6991549,1.0451014 89.9 0 0 -1.04212,1.70099 1.6991549,1.0451014 89.9 0 0 1.04807,1.69732 z"
         id="path7183-9"
         style="fill:#7e7b84;fill-opacity:1;stroke-width:0.34606" />
      <path
         fill="#1f1e21"
         d="m 151.73508,128.57041 a 0.10035742,0.10035742 0 0 0 0.19379,-0.003 l 0.74749,-3.39831 q 0.0484,-0.22494 0.28031,-0.22494 h 1.33579 q 0.2284,0 0.16265,0.21802 c -0.73365,2.39473 -1.80989,7.4126 -4.50916,8.02859 q -0.21456,0.0485 -0.25955,-0.16611 l -0.22494,-1.10739 a 0.20071483,0.20071483 0 0 1 0.14189,-0.23532 q 0.82016,-0.25609 1.2562,-1.0105 a 0.46372048,0.45679928 50 0 0 0.0311,-0.39104 l -1.93101,-5.09747 q -0.09,-0.23878 0.16611,-0.23878 h 1.36693 q 0.24225,0 0.30454,0.23186 z"
         id="path7185-3"
         style="fill:#7d7986;fill-opacity:1;stroke-width:0.34606" />
      <path
         fill="#1f1e21"
         d="m 165.83703,130.31801 c -2.45703,1.42231 -4.88983,-1.09009 -2.4951,-2.7581 0.7821,-0.54677 1.59534,-0.31145 2.33591,-0.61252 a 0.20763604,0.21109664 52.9 0 0 0.0519,-0.35991 q -1.1247,-0.87207 -2.37743,-0.0865 a 0.19379363,0.19379363 0 0 1 -0.2907,-0.1142 l -0.19725,-0.74057 q -0.045,-0.16265 0.11074,-0.23532 c 1.86526,-0.88591 4.47802,-0.65405 4.45379,1.95524 q -0.0138,1.62648 0.0658,3.2495 0.0104,0.2111 -0.20417,0.2111 h -1.04856 q -0.25955,0 -0.25955,-0.25955 v -0.1661 q 0,-0.16957 -0.14534,-0.0831 z m -1.60226,-1.75452 a 0.5536961,0.5571567 40.1 0 0 0.0796,0.92398 c 0.75787,0.41181 1.70608,-0.21802 1.47422,-1.13162 q -0.0519,-0.19725 -0.25609,-0.20763 -0.7371,-0.0277 -1.29772,0.41527 z"
         id="path7187-1"
         style="fill:#7e7b84;fill-opacity:1;stroke-width:0.34606" />
      <path
         fill="#1f1e21"
         d="m 176.58219,125.57353 a 0.20417544,0.20417544 0 0 0 0.37721,0.13842 q 0.42911,-0.78555 1.37039,-0.77863 a 0.20071483,0.20071483 0 0 1 0.19726,0.20071 v 1.2735 a 0.18687243,0.18341183 3.3 0 1 -0.20764,0.18341 c -2.04521,-0.22147 -1.41884,2.84808 -1.44653,4.05583 q -0.003,0.18341 -0.18687,0.18341 l -1.22159,-0.007 q -0.22494,-0.003 -0.22494,-0.2284 v -5.48505 q 0,-0.17995 0.17995,-0.17303 l 1.00011,0.0242 a 0.23532084,0.23878144 6.4 0 1 0.22494,0.28377 z"
         id="path7189-9"
         style="fill:#7e7b84;fill-opacity:1;stroke-width:0.34606" />
      <rect
         fill="#1f1e21"
         x="179.3922"
         y="124.9437"
         width="1.647246"
         height="5.8830209"
         rx="0.20417543"
         id="rect7191-1"
         style="fill:#7e7b84;fill-opacity:1;stroke-width:0.34606" />
      <path
         fill="#1f1e21"
         d="m 186.21996,130.61216 c -5.35008,1.85142 -5.39853,-7.23957 0.0796,-5.4366 q 0.16611,0.0519 0.12112,0.22148 l -0.2284,0.84438 q -0.0554,0.21802 -0.26301,0.13151 c -2.7927,-1.13508 -2.89652,4.10081 0.10036,2.90344 a 0.17649063,0.17649063 0 0 1 0.23878,0.14189 l 0.13151,0.89629 q 0.0311,0.22494 -0.17996,0.29761 z"
         id="path7193-3"
         style="fill:#7e7b84;fill-opacity:1;stroke-width:0.34606" />
      <path
         fill="#1f1e21"
         d="m 190.345,130.27995 c -4.13542,2.24592 -4.51608,-3.70977 -0.3599,-3.1803 a 0.33221766,0.33221766 0 0 0 0.22494,-0.60906 q -1.12816,-0.73019 -2.28746,0.0104 a 0.19379363,0.19379363 0 0 1 -0.29415,-0.11766 l -0.20418,-0.80632 q -0.0381,-0.15573 0.11074,-0.21802 0.9136,-0.3599 1.89987,-0.39105 c 3.38447,-0.10035 2.5124,3.41908 2.61622,5.48159 a 0.39104787,0.39104787 0 0 1 -0.41528,0.41182 q -1.23197,-0.0692 -1.19044,-0.51217 0.0138,-0.13151 -0.10036,-0.0692 z m -1.52612,-1.74069 a 0.5917627,0.5917627 0 0 0 0.21801,1.0451 c 0.77518,0.19034 1.60918,-0.42219 1.30465,-1.25965 q -0.0692,-0.18688 -0.27339,-0.19034 -0.70942,-0.003 -1.24927,0.40489 z"
         id="path7195-6"
         style="fill:#7e7b84;fill-opacity:1;stroke-width:0.34606" />
      <path
         fill="#1f1e21"
         d="m 194.48388,125.37627 q 1.11777,-0.80978 2.54354,-0.31491 a 0.62982931,0.62982931 0 0 1 -0.30453,1.21467 c -2.85154,-0.4568 -2.43973,4.0489 0.3426,3.03149 q 0.18687,-0.0658 0.21109,0.1315 l 0.11766,0.88245 a 0.28376925,0.28376925 0 0 1 -0.20071,0.31146 c -3.66824,1.11431 -5.56465,-3.19068 -2.70965,-5.25666 z"
         id="path7197-4"
         style="fill:#7e7b84;fill-opacity:1;stroke-width:0.34606" />
      <rect
         fill="#1f1e21"
         x="198.07944"
         y="124.94024"
         width="1.647246"
         height="5.8830209"
         rx="0.22147843"
         id="rect7199-4"
         style="fill:#7e7b84;fill-opacity:1;stroke-width:0.34606" />
      <path
         fill="#1f1e21"
         d="m 203.57996,130.83333 a 2.7788623,2.9622741 5.6 0 1 -2.47654,-3.21929 2.7788623,2.9622741 5.6 0 1 3.05467,-2.67695 2.7788623,2.9622741 5.6 0 1 2.47655,3.21929 2.7788623,2.9622741 5.6 0 1 -3.05468,2.67695 z m 0.24906,-1.25938 a 1.0935498,1.6887731 0.3 0 0 1.10241,-1.68303 1.0935498,1.6887731 0.3 0 0 -1.08469,-1.69445 1.0935498,1.6887731 0.3 0 0 -1.10241,1.68303 1.0935498,1.6887731 0.3 0 0 1.08469,1.69445 z"
         id="path7201-8"
         style="fill:#7e7b84;fill-opacity:1;stroke-width:0.34606" />
      <path
         fill="#1f1e21"
         d="m 209.2295,125.59775 q 0.42219,-0.65751 1.31503,-0.61252 c 2.63697,0.13496 2.04521,3.71668 1.94831,5.6823 q -0.007,0.16265 -0.16611,0.16265 l -1.22505,-0.007 q -0.19725,-0.003 -0.20071,-0.20072 c -0.0138,-0.83054 0.51217,-4.58875 -1.11432,-4.17348 a 0.95858637,0.95512577 82.9 0 0 -0.7198,0.92744 v 3.23566 q 0,0.21802 -0.21802,0.21802 l -1.20083,-0.007 q -0.22494,-0.003 -0.22494,-0.22494 v -5.4366 q 0,-0.21802 0.21802,-0.21802 h 0.90668 q 0.25954,0 0.25954,0.25954 v 0.26993 a 0.22839964,0.22839964 0 0 0 0.4222,0.12458 z"
         id="path7203-2"
         style="fill:#7e7b84;fill-opacity:1;stroke-width:0.34606" />
      <rect
         fill="#223d71"
         x="63.988091"
         y="131.39426"
         width="26.459751"
         height="1.1627618"
         rx="0.13496342"
         id="rect7205-5"
         style="stroke-width:0.34606" />
      <rect
         fill="#223d71"
         x="61.645267"
         y="133.16263"
         width="31.145405"
         height="1.7303003"
         rx="0.19725423"
         id="rect7207-4"
         style="stroke-width:0.34606" />
      <rect
         fill="#223d71"
         x="59.309361"
         y="135.67157"
         width="35.817215"
         height="2.1594148"
         rx="0.22493903"
         id="rect7209-4"
         style="stroke-width:0.34606" />
      <path
         fill="#223d71"
         d="m 115.25343,143.53405 c 0.0311,2.50893 3.09377,2.45702 3.18721,-0.39797 q 0.09,-2.84808 0.0311,-5.71346 -0.003,-0.19379 0.18687,-0.19379 h 1.66109 q 0.19379,0 0.20071,0.19379 c 0.14881,3.48483 1.142,10.15341 -4.39842,9.50627 -4.10081,-0.47756 -3.01072,-6.64435 -2.99688,-9.52703 q 0,-0.17303 0.17303,-0.17303 h 1.70953 q 0.17303,0 0.17303,0.17303 0.0311,3.07994 0.0727,6.13219 z"
         id="path7211-0"
         style="stroke-width:0.34606" />
      <circle
         fill="#223d71"
         cx="130.41779"
         cy="138.19089"
         r="1.0347196"
         id="circle7213-1"
         style="stroke-width:0.34606" />
      <circle
         fill="#223d71"
         cx="157.2928"
         cy="138.18744"
         r="1.0451014"
         id="circle7215-5"
         style="stroke-width:0.34606" />
      <path
         fill="#223d71"
         d="m 163.93716,146.06374 -0.44296,0.44642 a 0.30799345,0.41873267 18 0 1 -0.0727,0.0519 c -3.78936,1.99331 -5.58195,-3.75129 -2.93459,-5.88994 q 1.41538,-1.14546 3.31179,-0.0554 0.14881,0.0865 0.14535,-0.0865 l -0.0554,-3.07647 q -0.003,-0.22494 0.22494,-0.22494 h 1.60918 q 0.25954,0 0.25954,0.25955 v 9.17059 q 0,0.17303 -0.17303,0.17303 h -1.38424 q -0.25954,0 -0.25954,-0.25955 v -0.41181 a 0.13496342,0.13496342 0 0 0 -0.2284,-0.0969 z m -1.30012,-0.70257 a 1.3634766,1.8583425 0.5 0 0 1.37964,-1.84637 1.3634766,1.8583425 0.5 0 0 -1.34718,-1.87017 1.3634766,1.8583425 0.5 0 0 -1.37963,1.84637 1.3634766,1.8583425 0.5 0 0 1.34717,1.87017 z"
         id="path7217-2"
         style="stroke-width:0.34606" />
      <path
         fill="#223d71"
         d="m 178.61356,146.06028 a 0.13842402,0.13842402 0 0 0 -0.25954,-0.0692 c -0.95859,1.60918 -3.25643,1.03126 -4.16656,-0.28377 -1.75107,-2.52624 0.29415,-6.85891 3.97623,-5.15283 q 0.19379,0.09 0.19379,-0.12458 l -0.003,-3.02803 q 0,-0.17649 0.17303,-0.17303 l 1.67839,0.003 a 0.22493904,0.22493904 0 0 1 0.22494,0.22494 v 9.20174 q 0,0.17303 -0.17303,0.17303 h -1.42577 q -0.21802,0 -0.21802,-0.21456 z m -1.55381,-0.69212 a 1.3669372,1.8583425 0 0 0 1.36694,-1.85834 1.3669372,1.8583425 0 0 0 -1.36694,-1.85834 1.3669372,1.8583425 0 0 0 -1.36693,1.85834 1.3669372,1.8583425 0 0 0 1.36693,1.85834 z"
         id="path7219-7"
         style="stroke-width:0.34606" />
      <path
         fill="#000000"
         d="m 185.01568,145.63463 5.57502,-0.0208 q 0.22148,0 0.22148,0.21801 v 0.56754 q 0,0.25955 -0.25954,0.25955 h -6.94197 a 0.46718108,0.46718108 0 0 1 -0.36682,-0.75787 l 5.73767,-7.2638 a 0.17649063,0.17649063 0 0 0 -0.13842,-0.28377 h -5.42968 q -0.21456,0 -0.21456,-0.21802 v -0.4741 q 0,-0.25955 0.25954,-0.25955 h 6.97311 a 0.41527207,0.41527207 0 0 1 0.3253,0.67482 l -5.83457,7.36762 a 0.11766042,0.11766042 0 0 0 0.0934,0.19033 z"
         id="path7221-1"
         style="fill:#223d71;fill-opacity:1;stroke-width:0.34606" />
      <path
         fill="#000000"
         d="m 200.51224,141.03895 a 0.12458162,0.12458162 0 0 0 0.23533,0.0657 q 0.54677,-1.12123 1.80989,-1.25965 0.2284,-0.0242 0.24224,0.20763 l 0.045,0.72327 q 0.0138,0.2284 -0.21802,0.23186 c -2.58161,0.0277 -1.88603,3.77897 -1.85488,5.44352 q 0.003,0.20764 -0.20418,0.20764 h -0.79939 a 0.21801784,0.21801784 0 0 1 -0.21802,-0.21456 l -0.0277,-6.26023 q 0,-0.18687 0.18688,-0.18687 h 0.66443 q 0.21456,0 0.20072,0.21456 z"
         id="path7223-2"
         style="fill:#223d71;fill-opacity:1;stroke-width:0.34606" />
      <path
         fill="#000000"
         d="m 196.17611,146.06028 a 0.14534523,0.14534523 0 0 0 -0.2457,-0.10381 c -3.40869,3.40869 -6.53361,-3.69939 -0.29761,-3.47791 a 0.32183586,0.31837526 1.9 0 0 0.33222,-0.30799 c 0.045,-1.61264 -1.89295,-1.59534 -2.90691,-1.06241 a 0.33567826,0.33913886 62.9 0 1 -0.4568,-0.14534 q -0.24224,-0.48102 0.2111,-0.67828 c 5.18744,-2.24247 4.37766,3.52981 4.42611,6.15987 q 0.007,0.20418 -0.19726,0.21802 l -0.65751,0.0485 q -0.20764,0.0138 -0.20764,-0.19034 z m -2.45702,-2.25285 c -1.87219,1.59534 1.6334,3.57826 2.36359,0.39451 q 0.13842,-0.61253 -0.45334,-0.81324 -1.01396,-0.34606 -1.91025,0.41873 z"
         id="path7225-5"
         style="fill:#223d71;fill-opacity:1;stroke-width:0.34606" />
      <path
         fill="#000000"
         d="m 207.81411,146.01184 c -4.11119,3.35678 -5.96953,-4.18733 -0.38412,-3.47445 a 0.43257508,0.43257508 0 0 0 0.46025,-0.58484 c -0.56753,-1.4846 -1.94485,-1.38078 -3.08685,-0.7994 q -0.20764,0.10382 -0.28031,-0.1142 l -0.14534,-0.43603 q -0.0588,-0.17649 0.11073,-0.24917 c 2.25978,-0.97935 4.4538,-0.5883 4.48494,2.27708 q 0.0242,1.90679 0.12805,3.58518 a 0.54677489,0.5502355 28.8 0 1 -1.0278,0.30107 q -0.0692,-0.12112 -0.0415,-0.38758 a 0.13496342,0.13496342 0 0 0 -0.21802,-0.11766 z m -2.72349,-1.45 c -0.40143,1.90679 3.2495,1.95524 2.71311,-1.0797 q -0.0277,-0.14881 -0.17303,-0.16957 c -0.92744,-0.12805 -2.31168,0.16611 -2.54008,1.24927 z"
         id="path7227-1"
         style="fill:#223d71;fill-opacity:1;stroke-width:0.34606" />
      <path
         fill="#000000"
         d="m 215.75273,140.70673 a 0.17649063,0.17649063 0 0 0 0.32184,-0.10035 v -0.36337 q 0,-0.19379 0.19033,-0.2284 l 0.56408,-0.10727 q 0.23878,-0.045 0.24916,0.19725 0.1315,3.03841 -0.045,6.05951 c -0.18687,3.25643 -2.56084,3.97277 -5.32586,2.97266 q -0.20072,-0.0727 -0.14881,-0.28031 l 0.1315,-0.54332 q 0.0588,-0.23878 0.28031,-0.13842 c 2.02099,0.91014 4.27038,0.29069 3.92778,-2.37397 q -0.0208,-0.14535 -0.1315,-0.0484 c -3.58864,3.14569 -6.68242,-2.68197 -3.66131,-5.18398 0.95858,-0.79248 2.81346,-1.07625 3.64747,0.13842 z m -1.73646,5.03819 a 1.9240939,2.4847112 1.1 0 0 1.97143,-2.44734 1.9240939,2.4847112 1.1 0 0 -1.87606,-2.52118 1.9240939,2.4847112 1.1 0 0 -1.97143,2.44733 1.9240939,2.4847112 1.1 0 0 1.87606,2.52119 z"
         id="path7229-0"
         style="fill:#223d71;fill-opacity:1;stroke-width:0.34606" />
      <path
         fill="#000000"
         d="m 221.84436,146.80123 a 3.2806494,3.491746 6.7 0 1 -2.85088,-3.85064 3.2806494,3.491746 6.7 0 1 3.66564,-3.08516 3.2806494,3.491746 6.7 0 1 2.85088,3.85064 3.2806494,3.491746 6.7 0 1 -3.66564,3.08516 z m 0.38603,-0.92097 a 2.0106089,2.564305 0.4 0 0 2.02846,-2.55018 2.0106089,2.564305 0.4 0 0 -1.99268,-2.57829 2.0106089,2.564305 0.4 0 0 -2.02847,2.55019 2.0106089,2.564305 0.4 0 0 1.99269,2.57828 z"
         id="path7231-4"
         style="fill:#223d71;fill-opacity:1;stroke-width:0.34606" />
      <path
         fill="#000000"
         d="m 229.98272,141.18084 a 0.16610883,0.16610883 0 0 0 -0.15227,-0.23186 h -3.15953 q -0.21455,0 -0.21455,-0.21802 v -0.51563 q 0,-0.21802 0.21455,-0.21802 h 4.53339 a 0.45333868,0.45333868 0 0 1 0.37375,0.70942 l -3.2945,4.831 a 0.10727862,0.10727862 0 0 0 0.09,0.16957 h 3.40177 q 0.21802,0 0.21802,0.21802 v 0.4741 q 0,0.25955 -0.25955,0.25955 h -4.83792 a 0.41527207,0.41527207 0 0 1 -0.33221,-0.66444 c 1.11431,-1.47767 2.70619,-3.16991 3.41907,-4.81369 z"
         id="path7233-1"
         style="fill:#223d71;fill-opacity:1;stroke-width:0.34606" />
      <path
         fill="#000000"
         d="m 237.27074,146.06028 a 0.13150282,0.13496342 67.4 0 0 -0.2284,-0.0934 c -0.94474,0.95858 -2.91728,1.29426 -3.70284,-0.0969 -1.25274,-2.22863 1.65417,-3.54365 3.35332,-3.38447 a 0.47756288,0.47756288 0 0 0 0.43604,-0.74749 c -0.9309,-1.35655 -1.78221,-1.00011 -3.05917,-0.62637 a 0.41873267,0.41873267 0 0 1 -0.29069,-0.78209 c 1.98638,-0.90668 4.51608,-0.55024 4.5057,2.18018 q -0.0104,1.96216 0.0692,3.9347 0.007,0.21456 -0.20763,0.21456 h -0.61599 q -0.25955,0 -0.25955,-0.25955 z m -2.91036,-1.56419 c -0.57446,1.90333 3.18029,2.10751 2.74426,-0.97935 q -0.0242,-0.16265 -0.18688,-0.19033 c -0.92052,-0.16611 -2.24247,0.13496 -2.55738,1.16968 z"
         id="path7235-3"
         style="fill:#223d71;fill-opacity:1;stroke-width:0.34606" />
      <path
         fill="#223d71"
         d="m 123.59001,140.95244 a 0.12804222,0.13150282 64.1 0 0 0.23186,0.0796 c 1.38424,-1.73376 3.94163,-1.00703 4.23578,1.2389 q 0.12458,0.97589 -0.007,4.36727 -0.007,0.1938 -0.20072,0.1938 h -1.55727 q -0.16957,0 -0.17303,-0.16957 -0.0415,-1.8272 -0.0657,-3.62671 c -0.0242,-1.76491 -2.14903,-1.60572 -2.12135,0.0346 q 0.0277,1.79606 -0.0104,3.58865 -0.003,0.17303 -0.17649,0.17303 h -1.66801 q -0.21456,0 -0.21456,-0.21456 l -0.0138,-6.09758 q 0,-0.263 0.26301,-0.263 h 1.26312 q 0.21455,0 0.21455,0.21801 z"
         id="path7237-1"
         style="stroke-width:0.34606" />
      <path
         fill="#223d71"
         d="m 144.59586,146.62436 c -7.12538,2.21133 -7.13576,-6.7101 -2.3013,-6.52669 2.11789,0.0831 3.14223,1.88603 2.78578,3.88279 q -0.0311,0.16957 -0.20417,0.16957 h -3.73399 a 0.24916324,0.24916324 0 0 0 -0.21456,0.38067 c 0.72673,1.18006 2.29784,0.97243 3.43292,0.67828 a 0.17995123,0.17995123 0 0 1 0.22148,0.14188 l 0.17995,0.99665 a 0.24224204,0.23878144 76.2 0 1 -0.16611,0.27685 z m -3.54712,-3.78936 2.09713,0.0277 a 0.16264823,0.16264823 0 0 0 0.16265,-0.16265 v -0.045 a 1.1593012,1.169683 0.7 0 0 -1.14546,-1.18352 h -0.10382 a 1.1593012,1.169683 0.7 0 0 -1.17314,1.15584 v 0.045 a 0.16264823,0.16264823 0 0 0 0.16264,0.16264 z"
         id="path7239-8"
         style="stroke-width:0.34606" />
      <path
         fill="#223d71"
         d="m 148.07376,141.14277 q 0.48795,-1.08663 1.75453,-1.0624 0.23532,0.003 0.23532,0.23878 v 1.50882 q 0,0.2111 -0.20764,0.18687 c -2.51239,-0.29415 -1.75452,3.2149 -1.79259,4.64413 q -0.007,0.17303 -0.17995,0.17303 h -1.66801 q -0.21802,0 -0.21802,-0.21802 v -6.18409 q 0,-0.17303 0.17303,-0.17303 h 1.39116 q 0.19726,0 0.16957,0.19725 -0.0554,0.3599 0.0865,0.68866 0.12804,0.29415 0.25608,0 z"
         id="path7241-6"
         style="stroke-width:0.34606" />
      <path
         fill="#223d71"
         d="m 152.91168,141.54766 a 0.47064168,0.47064168 0 0 0 -0.12458,0.8963 c 1.26658,0.571 2.99688,1.0624 2.5297,2.89652 -0.48794,1.90333 -3.38447,1.82374 -4.75486,1.22159 q -0.15227,-0.0692 -0.1142,-0.2284 l 0.26992,-1.08663 a 0.19033303,0.19379363 21.5 0 1 0.28031,-0.12458 q 1.00358,0.56408 2.12135,0.28723 a 0.43603568,0.43603568 0 0 0 0.09,-0.81324 c -0.79247,-0.39105 -1.96216,-0.74403 -2.42934,-1.59188 -0.64713,-1.18698 0.27685,-2.43626 1.44307,-2.7581 q 1.32541,-0.36682 2.68197,0.14881 a 0.22839964,0.23186024 17.3 0 1 0.13842,0.26647 l -0.24224,0.99319 a 0.20417544,0.20417544 0 0 1 -0.28723,0.13496 q -0.76133,-0.37028 -1.60226,-0.24224 z"
         id="path7243-8"
         style="stroke-width:0.34606" />
      <path
         fill="#223d71"
         d="m 170.69917,146.34405 c -3.66478,2.76848 -6.24638,-3.97969 -0.2457,-3.84818 a 0.24224204,0.24570264 83.2 0 0 0.24224,-0.30454 c -0.28377,-1.0624 -1.99331,-0.69904 -2.83423,-0.25954 a 0.16956943,0.16956943 0 0 1 -0.24224,-0.10728 l -0.23533,-0.90668 q -0.0484,-0.19033 0.12805,-0.28377 c 1.99676,-1.0451 5.09054,-0.81324 5.17706,2.07636 q 0.0554,1.95524 0.09,3.90702 0.003,0.21456 -0.2111,0.21456 h -1.30464 q -0.18341,0 -0.2457,-0.17303 l -0.09,-0.2457 q -0.0692,-0.18688 -0.2284,-0.0692 z m -1.71646,-2.03137 a 0.63675051,0.63675051 0 0 0 -0.0415,0.86169 c 0.87207,1.03472 2.00714,-0.14881 1.7822,-1.26312 q -0.0346,-0.17303 -0.21109,-0.17649 -0.9136,-0.0208 -1.52959,0.57792 z"
         id="path7245-9"
         style="stroke-width:0.34606" />
      <rect
         fill="#223d71"
         x="129.13582"
         y="140.46002"
         transform="rotate(-0.1)"
         width="2.0763602"
         height="6.5959044"
         rx="0.19379364"
         id="rect7247-3"
         style="stroke-width:0.34606" />
      <path
         fill="#223d71"
         d="m 135.45641,144.58607 a 0.07267261,0.07267261 0 0 0 0.14189,0 l 1.09701,-4.15618 a 0.25954505,0.25954505 0 0 1 0.24916,-0.19034 l 1.73376,0.0242 a 0.16610883,0.16264823 10.8 0 1 0.15227,0.22148 l -2.28054,6.13218 a 0.32875706,0.32875706 0 0 1 -0.30799,0.21456 h -1.5988 a 0.32183586,0.32183586 0 0 1 -0.30453,-0.21456 l -2.23901,-6.13911 q -0.0796,-0.22147 0.15573,-0.22147 h 1.80643 a 0.26646625,0.26646625 0 0 1 0.25609,0.19379 z"
         id="path7249-0"
         style="stroke-width:0.34606" />
      <rect
         fill="#223d71"
         x="156.543"
         y="139.98213"
         transform="rotate(0.1)"
         width="1.993306"
         height="6.5682197"
         rx="0.15226643"
         id="rect7251-0"
         style="stroke-width:0.34606" />
      <path
         fill="#223d71"
         d="m 84.679025,145.89417 1.114314,-0.0554 q 0.211096,-0.0104 0.224939,0.19725 l 0.03114,0.39451 q 0.0173,0.2284 -0.211097,0.2284 h -2.574686 a 0.37028426,0.37028426 0 0 1 -0.263006,-0.63329 l 1.782209,-1.76837 a 0.67135652,0.67135652 0 0 0 -0.442957,-1.14892 q -0.470641,-0.0208 -0.861689,0.20764 a 0.21109664,0.21801784 65.6 0 1 -0.311454,-0.1142 c -0.411812,-1.21467 2.429341,-1.30465 2.747717,0.0658 0.207636,0.90322 -0.650593,1.85488 -1.335792,2.3359 a 0.15918763,0.15918763 0 0 0 0.100357,0.29069 z"
         id="path7253-2"
         style="stroke-width:0.34606" />
      <path
         fill="#223d71"
         d="m 68.154657,143.28142 -0.363363,0.26301 a 0.19379363,0.19379363 0 0 1 -0.304533,-0.12458 l -0.05883,-0.33914 q -0.03115,-0.17995 0.121121,-0.28031 0.737108,-0.49833 1.619561,-0.4741 0.176491,0.003 0.176491,0.17995 v 3.93816 q 0,0.21456 -0.218018,0.21456 h -0.46372 q -0.273388,0 -0.273388,-0.27339 l 0.0035,-2.97958 q 0,-0.29761 -0.238782,-0.12458 z"
         id="path7255-1"
         style="stroke-width:0.34606" />
      <path
         fill="#223d71"
         d="m 73.781594,143.88011 c 2.872298,0.003 1.664549,3.58172 -1.128156,2.69926 q -0.193793,-0.0623 -0.193793,-0.26646 v -0.33914 a 0.18687243,0.18687243 0 0 1 0.23186,-0.17995 c 0.550235,0.13842 1.702615,0.29761 1.685312,-0.60215 a 0.5571567,0.5606173 1.6 0 0 -0.515629,-0.54677 l -1.079708,-0.0865 a 0.15572703,0.15572703 0 0 1 -0.141884,-0.17303 l 0.200715,-1.85142 a 0.22147844,0.22493904 3 0 1 0.221478,-0.20071 h 2.024451 q 0.224939,0 0.186873,0.22148 l -0.05537,0.34952 q -0.03115,0.18341 -0.218018,0.19033 l -1.231973,0.0519 a 0.36689027,0.36689027 0 0 0 0.01384,0.73365 z"
         id="path7257-6"
         style="stroke-width:0.34606" />
      <path
         fill="#223d71"
         d="m 80.623201,144.93213 q 0.08306,-0.003 0.166109,-0.003 0.103818,0.003 0.138424,0.10728 0.17303,0.52255 -0.297611,0.59522 -0.211097,0.0311 -0.211097,0.2457 v 0.56754 q 0,0.21456 -0.218018,0.21456 h -0.515629 q -0.218018,0 -0.218018,-0.21802 v -0.60214 q 0,-0.21802 -0.214558,-0.21802 h -1.249276 q -0.878993,0 -0.411812,-0.74403 l 1.467295,-2.36013 a 0.39450847,0.38758727 15.8 0 1 0.332218,-0.18341 h 0.768253 q 0.259545,0 0.259545,0.25954 v 2.14557 q 0,0.20418 0.204175,0.1938 z m -1.432688,-1.32195 -0.598684,1.08663 a 0.15572703,0.15572703 0 0 0 0.134963,0.23186 h 0.491405 q 0.249164,0 0.249164,-0.24917 0,-0.26646 0.0035,-0.54331 0,-0.0865 -0.0035,-0.17649 -0.0069,-0.12804 0,-0.27339 0.03114,-0.63675 -0.276848,-0.0761 z"
         id="path7259-4"
         style="stroke-width:0.34606" />
    </g>
  </g>
</svg>
