<?xml version="1.0" encoding="UTF-8" standalone="no"?>
<!-- Created with Inkscape (http://www.inkscape.org/) -->

<svg
   width="297mm"
   height="420mm"
   viewBox="0 0 297 420"
   version="1.1"
   id="svg5"
   inkscape:version="1.2.2 (732a01da63, 2022-12-09)"
   sodipodi:docname="Materiales_y_fluidos.svg"
   xmlns:inkscape="http://www.inkscape.org/namespaces/inkscape"
   xmlns:sodipodi="http://sodipodi.sourceforge.net/DTD/sodipodi-0.dtd"
   xmlns="http://www.w3.org/2000/svg"
   xmlns:svg="http://www.w3.org/2000/svg">
  <sodipodi:namedview
     id="namedview7"
     pagecolor="#000000"
     bordercolor="#000000"
     borderopacity="0.25"
     inkscape:showpageshadow="2"
     inkscape:pageopacity="0"
     inkscape:pagecheckerboard="0"
     inkscape:deskcolor="#d1d1d1"
     inkscape:document-units="mm"
     showgrid="false"
     inkscape:zoom="0.5946522"
     inkscape:cx="522.15396"
     inkscape:cy="724.79342"
     inkscape:window-width="1680"
     inkscape:window-height="987"
     inkscape:window-x="-8"
     inkscape:window-y="-8"
     inkscape:window-maximized="1"
     inkscape:current-layer="layer1" />
  <defs
     id="defs2">
    <inkscape:path-effect
       effect="spiro"
       id="path-effect11326"
       is_visible="true"
       lpeversion="1" />
    <rect
       x="143.88229"
       y="428.07953"
       width="577.90741"
       height="258.03683"
       id="rect236" />
    <rect
       x="143.88229"
       y="428.07953"
       width="577.90741"
       height="258.03683"
       id="rect236-8" />
    <inkscape:path-effect
       effect="spiro"
       id="path-effect23909"
       is_visible="true"
       lpeversion="1" />
    <inkscape:path-effect
       effect="spiro"
       id="path-effect23913"
       is_visible="true"
       lpeversion="1" />
    <inkscape:path-effect
       effect="spiro"
       id="path-effect1944"
       is_visible="true"
       lpeversion="1" />
    <inkscape:path-effect
       effect="spiro"
       id="path-effect23321"
       is_visible="true"
       lpeversion="1" />
    <inkscape:path-effect
       effect="spiro"
       id="path-effect23321-9"
       is_visible="true"
       lpeversion="1" />
    <inkscape:path-effect
       effect="spiro"
       id="path-effect23309"
       is_visible="true"
       lpeversion="1" />
    <inkscape:path-effect
       effect="spiro"
       id="path-effect23309-8"
       is_visible="true"
       lpeversion="1" />
    <inkscape:path-effect
       effect="spiro"
       id="path-effect23333"
       is_visible="true"
       lpeversion="1" />
    <inkscape:path-effect
       effect="spiro"
       id="path-effect23333-2"
       is_visible="true"
       lpeversion="1" />
    <inkscape:path-effect
       effect="spiro"
       id="path-effect23625"
       is_visible="true"
       lpeversion="1" />
    <inkscape:path-effect
       effect="spiro"
       id="path-effect2368"
       is_visible="true"
       lpeversion="1" />
    <inkscape:path-effect
       effect="spiro"
       id="path-effect2368-7"
       is_visible="true"
       lpeversion="1" />
    <inkscape:path-effect
       effect="spiro"
       id="path-effect13475"
       is_visible="true"
       lpeversion="1" />
    <rect
       x="356.03235"
       y="0"
       width="278.54449"
       height="63.455532"
       id="rect366-7-9-4-8" />
  </defs>
  <g
     inkscape:label="Capa 1"
     inkscape:groupmode="layer"
     id="layer1">
    <g
       id="g13032"
       transform="translate(-0.6674023,-8.8253753)">
      <path
         fill="#4d4c4c"
         d="M 73.564524,171.46697 H 89.52159 l 0.249656,0.23919 a 0.20331282,0.20331282 0 0 1 -0.101656,0.34533 q -0.219757,0.0434 -0.42905,0.0508 -12.360223,0.43802 -24.706992,-0.26759 -0.05382,-0.003 -0.118101,0.009 -0.08073,0.0164 -0.124081,-0.004 a 0.04036357,0.04036357 0 0 1 0.01644,-0.0762 z"
         id="path10977-5-1"
         style="fill:#c0bfbf;fill-opacity:1;stroke-width:0.149495" />
      <path
         fill="#4d4c4c"
         d="m 191.94042,174.42099 q 0.0404,-0.79831 -0.0434,-1.71919 c -0.0628,-0.68319 0.83268,-0.49035 1.23184,-0.48586 a 0.39466606,0.39466606 0 0 1 0.39167,0.39317 q 0.007,3.40549 0.009,6.85583 c 0,0.84913 -1.02703,0.56359 -1.36638,0.14501 a 0.13155535,0.1330503 63.2 0 0 -0.13754,-0.0448 q -0.19135,0.0508 -0.40961,0.19733 c -3.56096,2.40238 -5.60605,-6.60617 0.0568,-5.14411 a 0.21377745,0.21377745 0 0 0 0.26759,-0.19733 z m -1.14119,4.30479 a 1.0883216,1.4799977 1.7 0 0 1.13174,-1.44705 1.0883216,1.4799977 1.7 0 0 -1.04393,-1.51163 1.0883216,1.4799977 1.7 0 0 -1.13175,1.44705 1.0883216,1.4799977 1.7 0 0 1.04394,1.51163 z"
         id="path10979-2-8"
         style="fill:#807f7f;fill-opacity:1;stroke-width:0.149495" />
      <path
         fill="#4d4c4c"
         d="m 114.50814,172.89165 q 0.0882,-0.12557 0.2063,-0.15995 c 1.81337,-0.54267 3.94367,-0.32291 5.3265,0.97769 1.40824,1.32303 1.28117,3.49668 0.0792,4.89446 -1.27818,1.48448 -3.63123,1.65789 -5.4446,1.32602 a 0.28403997,0.28553492 5 0 1 -0.2347,-0.28105 v -6.5404 a 0.38420143,0.37672669 62.8 0 1 0.0673,-0.21677 z m 2.14674,5.83927 c 2.03463,-0.40812 3.09903,-1.47103 2.29475,-3.65963 -0.36029,-0.9762 -1.69527,-1.30958 -2.61018,-1.184 a 0.29300965,0.2915147 86.1 0 0 -0.25265,0.29002 q -0.003,1.97781 0,4.02589 c 0,0.39915 0.13754,0.61443 0.56808,0.52772 z"
         id="path10981-8-4"
         style="fill:#807f7f;fill-opacity:1;stroke-width:0.149495" />
      <path
         fill="#4d4c4c"
         d="m 61.903936,174.48676 -0.944807,-1.42618 a 0.15995935,0.15995935 0 0 1 0.13305,-0.24816 H 92.64603 a 0.29898944,0.29898944 0 0 1 0.295999,0.25713 c 0.03588,0.26311 -0.122585,0.44849 -0.345332,0.59948 -0.467919,0.31693 -0.808767,0.93733 -1.421695,0.93733 q -14.526402,0 -29.046824,0 a 0.27208039,0.27058544 72.9 0 1 -0.224242,-0.1196 z"
         id="path10983-1-5"
         style="fill:#c0bfbf;fill-opacity:1;stroke-width:0.149495" />
      <path
         fill="#4d4c4c"
         d="m 143.77173,174.73941 c 1.30509,0.62788 0.22873,-2.10788 2.32614,-1.40824 a 0.22872692,0.23022187 22.6 0 1 0.13155,0.32291 c -0.60844,1.19895 1.23034,0.5621 1.2438,1.59062 0.009,0.64881 -0.68768,0.61442 -1.15709,0.66675 a 0.1076362,0.1076362 0 0 0 -0.0957,0.10464 l -0.0538,2.23794 a 0.17042398,0.17490882 20.3 0 0 0.0598,0.13455 c 0.26461,0.23022 0.64283,0.18686 0.87156,0.36476 0.40812,0.31693 0.33636,1.30061 -0.26162,1.35143 -1.776,0.1495 -2.0989,-0.93284 -2.20056,-2.34557 -0.0359,-0.5023 0.0134,-1.48747 -0.22275,-1.90456 -0.39616,-0.70263 -1.78497,0.32291 -2.23793,0.66077 -0.22873,0.17192 -0.296,0.27208 -0.30348,0.57555 q -0.0359,1.28267 -0.0703,2.53394 a 0.3737368,0.37224185 0.7 0 1 -0.37374,0.36327 h -0.86707 a 0.40513069,0.40513069 0 0 1 -0.40513,-0.40364 q -0.006,-2.08395 0,-4.19332 0.002,-0.38719 0.0837,-0.64433 0.0254,-0.0792 0.10166,-0.10763 c 0.58003,-0.21826 0.94331,0.0628 1.34694,0.46792 a 0.11212104,0.11361599 52.1 0 0 0.14053,0.0164 c 0.67721,-0.4126 1.10327,-0.78933 1.94343,-0.3842 z"
         id="path10985-6-4"
         style="fill:#807f7f;fill-opacity:1;stroke-width:0.149495" />
      <path
         fill="#4d4c4c"
         d="m 176.04315,176.21642 c -0.12557,-0.42905 -0.46492,-0.5621 -0.70711,-0.85661 q -0.0463,-0.0568 -0.0493,-0.12856 c -0.012,-0.40962 0.34384,-0.57257 0.60994,-0.78784 q 0.0568,-0.0463 0.0673,-0.1196 0.16146,-1.2408 1.43366,-1.04795 a 0.33038333,0.33038333 0 0 1 0.27955,0.32589 v 0.70562 a 0.29898944,0.29898944 0 0 0 0.29899,0.29899 h 0.57107 a 0.21377745,0.21676734 70.4 0 1 0.16594,0.0777 q 0.35879,0.42755 0.0628,0.94032 -0.0463,0.0792 -0.14053,0.0792 c -1.87616,-0.0135 -1.19297,2.75668 0.003,3.13341 0.49932,0.15846 0.13305,1.01656 -0.11062,1.24679 a 0.19135324,0.19135324 0 0 1 -0.12558,0.0538 c -0.82072,0.0389 -1.8343,-0.21676 -2.19458,-1.02852 -0.38121,-0.86109 0.10165,-1.97931 -0.16445,-2.89272 z"
         id="path10987-7-1"
         style="fill:#807f7f;fill-opacity:1;stroke-width:0.149495" />
      <path
         fill="#4d4c4c"
         d="m 154.08238,174.94123 a 0.33187828,0.33187828 0 0 1 0.32739,-0.33936 q 0.6802,-0.0105 1.32453,0.20033 a 0.20181787,0.20630271 41.7 0 0 0.15547,-0.0105 c 1.13168,-0.54565 1.88363,-0.26012 2.91066,0.34833 q 0.0747,0.0448 0.14202,-0.0105 c 3.44885,-2.82993 3.44885,2.82695 3.29636,4.48484 -0.0508,0.54416 -0.83268,0.37673 -1.20642,0.37224 a 0.40064585,0.40064585 0 0 1 -0.39616,-0.39765 q -0.006,-1.22586 -0.001,-2.48909 c 0.003,-0.65329 -0.18238,-1.05244 -0.72804,-1.36339 a 0.37672669,0.37523175 30.9 0 0 -0.50379,0.12557 c -0.52024,0.82671 -0.44101,2.54142 -0.40214,3.60133 0.0299,0.79531 -1.66239,0.69665 -1.63697,0.0389 0.0254,-0.61143 0.31842,-4.25013 -1.00311,-3.68504 -0.34982,0.14949 -0.50679,0.39765 -0.52622,0.7968 q -0.0703,1.49944 -0.13604,2.99887 c -0.0254,0.57256 -1.14962,0.37822 -1.45758,0.2646 a 0.09866652,0.09866652 0 0 1 -0.0658,-0.0912 z"
         id="path10989-8-5"
         style="fill:#807f7f;fill-opacity:1;stroke-width:0.149495" />
      <path
         fill="#4d4c4c"
         d="m 127.74141,175.9548 c -0.15996,-1.68331 0.63386,-1.46804 1.82533,-1.0943 q 0.0673,0.0224 0.13455,-0.001 c 0.28105,-0.0987 0.59499,-0.28853 0.81175,-0.36029 3.25301,-1.05991 4.33236,6.6286 -0.82072,5.4461 a 0.16294924,0.1614543 87.9 0 0 -0.19136,0.2063 c 0.35431,1.14064 0.15847,2.4861 -1.44561,1.72965 a 0.40662564,0.40662564 0 0 1 -0.23321,-0.39018 q 0.0972,-1.91802 0.0733,-3.89135 c -0.006,-0.53967 -0.10166,-1.09131 -0.15398,-1.64444 z m 2.76061,2.85357 a 1.0778569,1.5084017 1.1 0 0 1.10662,-1.48743 1.0778569,1.5084017 1.1 0 0 -1.0487,-1.5288 1.0778569,1.5084017 1.1 0 0 -1.10662,1.48742 1.0778569,1.5084017 1.1 0 0 1.0487,1.52881 z"
         id="path10991-3-3"
         style="fill:#807f7f;fill-opacity:1;stroke-width:0.149495" />
      <path
         fill="#4d4c4c"
         d="m 169.32935,174.82761 c 0.3244,-0.48586 1.21838,-0.10913 1.57268,0.14053 a 0.15098967,0.14949472 50.6 0 0 0.14501,0.0149 c 0.90295,-0.40962 1.90008,-0.99863 2.69838,-0.0733 0.89846,1.04049 0.90594,3.61479 0.72057,4.78084 -0.0673,0.4141 -1.05843,0.30348 -1.32303,0.30049 a 0.39765596,0.39765596 0 0 1 -0.39467,-0.39467 q -0.0134,-1.35741 -0.001,-2.72379 c 0.007,-0.86259 -0.62489,-1.29762 -1.4501,-0.89697 q -0.0643,0.0314 -0.0882,0.0987 -0.0792,0.21826 -0.0777,0.28852 0.0299,1.42917 -0.0463,3.24254 c -0.0254,0.59051 -1.11373,0.3842 -1.45308,0.30946 a 0.33038333,0.33187828 5.7 0 1 -0.25714,-0.31544 l -0.10315,-4.57603 a 0.34383786,0.33785807 62.1 0 1 0.0583,-0.19584 z"
         id="path10993-5-8"
         style="fill:#807f7f;fill-opacity:1;stroke-width:0.149495" />
      <path
         fill="#4d4c4c"
         d="m 195.27117,175.49436 c 1.91353,-2.25588 4.50427,-0.66226 4.34132,2.00921 q -0.0209,0.34533 -0.36776,0.32291 c -0.57106,-0.0389 -2.53094,-0.2093 -2.93308,0.18238 a 0.10165641,0.10165641 0 0 0 -0.009,0.13454 c 0.61741,0.79233 1.75058,0.70861 2.62961,0.68469 a 0.36775701,0.36925196 81.8 0 1 0.36626,0.27358 c 0.1196,0.44848 -0.2063,0.66674 -0.59947,0.78335 -2.66101,0.78634 -5.5911,-1.84327 -3.42791,-4.39066 z m 1.07486,0.72056 q -0.15996,0.22723 0.0643,0.39168 c 0.40214,0.2945 1.14363,0.15398 1.62949,0.0239 a 0.11062609,0.11062609 0 0 0 0.0717,-0.15099 c -0.36925,-0.86109 -1.16007,-1.1242 -1.76553,-0.26461 z"
         id="path10995-0-4"
         style="fill:#807f7f;fill-opacity:1;stroke-width:0.149495" />
      <path
         fill="#4d4c4c"
         d="m 122.31774,175.53173 c 0.69067,-0.99264 2.17814,-1.37386 3.23058,-0.77438 0.86558,0.49333 1.30808,1.58315 1.28267,2.56682 -0.012,0.45746 -0.35132,0.61443 -0.77887,0.58303 -0.67871,-0.0508 -1.49644,-0.19733 -2.16319,-0.16743 a 0.35729238,0.35729238 0 0 0 -0.2377,0.60994 c 0.42457,0.42606 1.74909,0.46642 2.32913,0.47838 0.70113,0.0135 0.68319,0.66675 0.13305,0.93733 -2.69389,1.33349 -5.52981,-1.7446 -3.79567,-4.23369 z m 1.2124,0.69366 a 0.27058544,0.27058544 0 0 0 0.0688,0.38121 c 0.42457,0.28703 0.89996,0.16444 1.39778,0.0299 0.34234,-0.0942 0.2646,-0.3842 0.0747,-0.592 -0.52323,-0.57406 -1.1227,-0.40513 -1.54129,0.18089 z"
         id="path10997-5-0"
         style="fill:#807f7f;fill-opacity:1;stroke-width:0.149495" />
      <path
         fill="#4d4c4c"
         d="m 137.16107,176.25678 c -0.27208,-0.90145 -1.0629,-0.79382 -1.72367,-0.42008 -0.57406,0.3244 -1.43665,-0.4724 -0.6518,-0.95079 q 0.94929,-0.57854 2.12432,-0.36476 c 2.44424,0.44699 1.94642,3.44585 1.93297,5.18896 a 0.28105007,0.27955513 88 0 1 -0.25863,0.27806 q -0.76541,0.0598 -1.39628,-0.36925 -0.0613,-0.0419 -0.12856,-0.012 c -1.01507,0.46493 -1.81636,0.79381 -2.6939,-0.14352 q -0.24816,-0.2646 -0.26909,-0.65777 c -0.0762,-1.35144 0.75644,-2.12881 2.05406,-2.20954 q 0.39167,-0.0239 0.82521,-0.0643 a 0.2152724,0.21377745 79.1 0 0 0.18537,-0.27507 z m 0.0218,1.4085 a 0.69066561,0.85959464 52.4 0 0 -1.10246,-0.0227 0.69066561,0.85959464 52.4 0 0 -0.25964,1.07168 0.69066561,0.85959464 52.4 0 0 1.10246,0.0227 0.69066561,0.85959464 52.4 0 0 0.25964,-1.07168 z"
         id="path10999-6-9"
         style="fill:#807f7f;fill-opacity:1;stroke-width:0.149495" />
      <path
         fill="#4d4c4c"
         d="m 148.74243,174.79472 c 0.62638,-0.45446 1.90456,-0.30347 2.55636,-0.15099 1.87616,0.43952 1.72367,3.6387 1.49794,5.08731 a 0.20331282,0.20331282 0 0 1 -0.0733,0.12707 c -0.55911,0.44998 -0.88351,-0.0688 -1.3888,-0.29152 a 0.18088861,0.18537345 47.4 0 0 -0.14053,-0.004 q -0.74747,0.27955 -1.48,0.56658 c -0.37074,0.14352 -0.91341,-0.31094 -1.15409,-0.54117 -0.64881,-0.61592 -0.65031,-1.31256 -0.18089,-2.069 0.27058,-0.43653 0.34981,-0.67721 0.9149,-0.75047 q 0.9194,-0.11959 1.71022,-0.62788 a 0.15995935,0.1584644 42.3 0 0 -0.0135,-0.27507 q -0.87156,-0.45147 -1.71919,0.0314 a 0.41111048,0.41111048 0 0 1 -0.4156,-0.004 c -0.41709,-0.25414 -0.56957,-0.7684 -0.11361,-1.09729 z m 1.92101,2.70436 c -0.5038,0 -1.61006,0.24517 -0.9478,0.99564 1.17054,1.32601 2.17066,-0.99863 0.9478,-0.99564 z"
         id="path11001-0-2"
         style="fill:#807f7f;fill-opacity:1;stroke-width:0.149495" />
      <path
         fill="#4d4c4c"
         d="m 164.48572,174.94272 c 0.8581,-0.58602 2.17664,-0.62339 3.00484,0.0329 0.80129,0.63535 0.94331,1.67584 0.79681,2.65652 a 0.31842375,0.31842375 0 0 1 -0.3274,0.27208 q -1.21389,-0.0448 -2.49207,-0.14949 c -0.23321,-0.0194 -0.44251,-0.003 -0.43503,0.27357 0.0314,1.0958 2.70436,0.42606 3.13341,1.10477 a 0.35878733,0.35878733 0 0 1 -0.14352,0.51277 q -2.10189,1.04945 -3.67607,-0.29451 c -1.3918,-1.18848 -1.43814,-3.33523 0.13903,-4.4086 z m 2.18262,1.47103 c -0.3244,-1.16307 -1.84476,-0.80727 -1.67135,0.25713 a 0.13006041,0.13006041 0 0 0 0.0972,0.10614 q 0.69964,0.17641 1.38731,-0.0269 a 0.27357534,0.27357534 0 0 0 0.18687,-0.33636 z"
         id="path11003-5-9"
         style="fill:#807f7f;fill-opacity:1;stroke-width:0.149495" />
      <path
         fill="#4d4c4c"
         d="m 185.12197,177.27932 a 2.7985412,2.7985412 0 0 1 -2.79854,2.79855 2.7985412,2.7985412 0 0 1 -2.79854,-2.79855 2.7985412,2.7985412 0 0 1 2.79854,-2.79854 2.7985412,2.7985412 0 0 1 2.79854,2.79854 z m -2.84258,1.65928 a 1.0703822,1.6474318 0.7 0 0 1.09043,-1.63423 1.0703822,1.6474318 0.7 0 0 -1.05019,-1.6604 1.0703822,1.6474318 0.7 0 0 -1.09043,1.63423 1.0703822,1.6474318 0.7 0 0 1.05019,1.6604 z"
         id="path11005-8-9"
         style="fill:#807f7f;fill-opacity:1;stroke-width:0.149495" />
      <path
         fill="#4d4c4c"
         d="m 67.43524,177.02518 c 1.015069,0.80279 1.200443,3.15733 -0.594989,3.04671 -0.390181,-0.0239 -1.006099,-0.0538 -0.989655,-0.592 q 0.03438,-1.03152 0.05083,-2.06004 c 0.01345,-0.75345 1.079352,-0.75495 1.533816,-0.39467 z"
         id="path11007-6-6"
         style="fill:#c0bfbf;fill-opacity:1;stroke-width:0.149495" />
      <path
         fill="#4d4c4c"
         d="m 70.946871,177.06405 c 0.276565,0.16893 0.352808,0.31245 0.364767,0.6503 q 0.03139,0.89548 0.05531,1.82832 a 0.4275549,0.4275549 0 0 1 -0.442504,0.43653 q -0.693655,-0.0269 -1.412725,-0.0538 c -1.110746,-0.0419 -0.656282,-1.332 -0.460444,-1.94343 0.313939,-0.9777 0.834181,-1.57119 1.895593,-0.9179 z"
         id="path11009-0-5"
         style="fill:#c0bfbf;fill-opacity:1;stroke-width:0.149495" />
      <rect
         fill="#4d4c4c"
         x="76.197273"
         y="175.30917"
         transform="rotate(1.1999996)"
         width="2.1975722"
         height="3.1244395"
         rx="0.6473121"
         id="rect11011-9-1"
         style="fill:#c0bfbf;fill-opacity:1;stroke-width:0.149495" />
      <rect
         fill="#4d4c4c"
         x="72.112648"
         y="178.46075"
         transform="rotate(-1.1999996)"
         width="2.092926"
         height="3.1274295"
         rx="0.621898"
         id="rect11013-0-2"
         style="fill:#c0bfbf;fill-opacity:1;stroke-width:0.149495" />
      <rect
         fill="#4d4c4c"
         x="76.990547"
         y="177.85825"
         transform="rotate(-0.70000112)"
         width="2.2304611"
         height="3.1005204"
         rx="0.7190696"
         id="rect11015-7-5"
         style="fill:#c0bfbf;fill-opacity:1;stroke-width:0.149495" />
      <rect
         fill="#4d4c4c"
         x="79.360939"
         y="178.32076"
         transform="rotate(-0.99999901)"
         width="2.1975722"
         height="3.1005204"
         rx="0.67272621"
         id="rect11017-5-0"
         style="fill:#c0bfbf;fill-opacity:1;stroke-width:0.149495" />
      <rect
         fill="#4d4c4c"
         x="86.038368"
         y="176.88765"
         width="2.089936"
         height="3.1035104"
         rx="0.60096878"
         id="rect11019-6-1"
         style="fill:#c0bfbf;fill-opacity:1;stroke-width:0.149495" />
      <path
         fill="#4d4c4c"
         d="m 70.274145,183.64182 c 0.517252,0.32141 0.623393,0.7998 0.621898,1.42917 q -0.006,2.09592 0.03887,4.2606 a 0.33636312,0.33636312 0 0 1 -0.339353,0.34384 l -3.67757,-0.0239 q -0.08671,-0.001 -0.15099,-0.0613 c -0.170424,-0.15696 -0.112121,-0.34383 -0.131555,-0.51725 q -0.263111,-2.23644 0.06877,-4.07672 c 0.336363,-1.85822 2.12731,-2.25438 3.569934,-1.35442 z"
         id="path11021-8-5"
         style="fill:#c0bfbf;fill-opacity:1;stroke-width:0.149495" />
      <path
         fill="#4d4c4c"
         d="m 77.128478,183.21576 c 0.943312,0.12259 1.817856,0.53519 1.853734,1.62351 q 0.07026,2.06004 0.137536,4.12456 a 0.13753514,0.13753514 0 0 1 -0.198828,0.12857 c -1.314059,-0.64881 -2.28727,-1.05245 -3.719429,-0.30647 q -0.303474,0.15697 -0.375232,-0.1764 c -0.357292,-1.64743 -0.56808,-5.76452 2.302219,-5.39377 z"
         id="path11023-4-4"
         style="fill:#c0bfbf;fill-opacity:1;stroke-width:0.149495" />
      <path
         fill="#4d4c4c"
         d="m 83.822851,183.40412 c 0.868565,-0.41559 2.619148,-0.0628 3.039228,0.92089 q 0.09418,0.21826 0.107636,0.70562 0.05531,2.06452 0.08372,4.21724 a 0.45147405,0.452969 89.6 0 1 -0.452969,0.45746 q -1.666866,0 -3.405489,0.001 -0.315434,0 -0.387192,-0.40214 c -0.251151,-1.42618 -0.641332,-5.10973 1.015069,-5.90056 z"
         id="path11025-4-5"
         style="fill:#c0bfbf;fill-opacity:1;stroke-width:0.149495" />
      <circle
         fill="#4d4c4c"
         cx="121.76162"
         cy="184.72716"
         r="0.86108965"
         id="circle11027-5-6"
         style="fill:#807f7f;fill-opacity:1;stroke-width:0.149495" />
      <circle
         fill="#4d4c4c"
         cx="141.93443"
         cy="184.71968"
         r="0.86108965"
         id="circle11029-8-4"
         style="fill:#807f7f;fill-opacity:1;stroke-width:0.149495" />
      <rect
         fill="#4d4c4c"
         x="189.48871"
         y="183.87503"
         width="1.6803206"
         height="7.7587762"
         rx="0.16743408"
         id="rect11031-7-3"
         style="fill:#807f7f;fill-opacity:1;stroke-width:0.149495" />
      <path
         fill="#4d4c4c"
         d="m 205.75971,185.38044 c -0.004,-0.79381 0.54417,-1.40674 1.40376,-1.34694 q 0.24368,0.0179 0.34683,0.148 a 0.1614543,0.15995935 38.8 0 1 0.0194,0.17341 q -0.43951,0.91042 -1.36488,1.29462 a 0.29300965,0.29300965 0 0 1 -0.40514,-0.26909 z"
         id="path11033-6-1"
         style="fill:#807f7f;fill-opacity:1;stroke-width:0.149495" />
      <path
         fill="#4d4c4c"
         d="m 114.43339,186.6362 c 0.78933,-1.92549 2.55786,-2.73276 4.61191,-2.42182 1.23782,0.18837 0.9179,1.64445 0.19584,1.42618 -3.56545,-1.07636 -4.75692,4.23967 -1.20493,4.83018 q 0.26461,0.0448 0.57406,-0.0733 c 0.96275,-0.36776 1.4815,0.0374 1.1541,1.05692 a 0.16593914,0.16743409 89.4 0 1 -0.10614,0.10764 c -1.70573,0.54117 -3.55498,0.25115 -4.65975,-1.05095 -0.89846,-1.05842 -1.08683,-2.6027 -0.56509,-3.8749 z"
         id="path11035-1-1"
         style="fill:#807f7f;fill-opacity:1;stroke-width:0.149495" />
      <path
         fill="#4d4c4c"
         d="m 159.77962,185.62711 c -0.41111,-0.30796 -0.30646,-1.3021 0.37075,-1.30359 q 2.33511,-0.001 4.67022,0.001 c 0.7684,0 0.66824,1.97034 -1.14065,1.28715 a 0.28852481,0.29001976 13.3 0 0 -0.39018,0.24069 c -0.15398,1.47551 -0.30347,3.10052 -0.0927,4.57304 0.12857,0.89547 -0.15099,1.51139 -1.18997,1.22586 -0.33637,-0.0927 -0.4739,-0.13604 -0.48586,-0.53519 q -0.0762,-2.53992 -0.14651,-5.1486 a 0.19135324,0.19135324 0 0 0 -0.18687,-0.18538 c -0.42905,-0.007 -1.07636,0.0927 -1.40824,-0.15547 z"
         id="path11037-1-3"
         style="fill:#807f7f;fill-opacity:1;stroke-width:0.149495" />
      <path
         fill="#4d4c4c"
         d="m 154.21394,190.0387 a 0.10016146,0.10016146 0 0 0 0.19583,0.0105 l 0.84764,-3.47874 a 0.39616101,0.3991509 7 0 1 0.38569,-0.30347 h 1.03152 a 0.28852481,0.28852481 0 0 1 0.27806,0.36476 c -0.64881,2.37548 -1.7177,6.24589 -4.12755,7.47923 a 0.3453328,0.3453328 0 0 1 -0.44549,-0.11661 q -0.41112,-0.61592 -0.19435,-1.32602 a 0.15397956,0.15696946 86.7 0 1 0.0897,-0.0987 c 0.28254,-0.1181 0.62339,-0.18537 0.81026,-0.41559 0.77438,-0.96275 -0.84464,-4.27555 -1.33648,-5.29809 q -0.16594,-0.34534 0.14052,-0.49932 c 1.96735,-0.99264 2.18861,2.67446 2.32465,3.68206 z"
         id="path11039-9-5"
         style="fill:#807f7f;fill-opacity:1;stroke-width:0.149495" />
      <path
         fill="#4d4c4c"
         d="m 132.80181,187.85309 c -0.29301,-0.43802 -0.97321,-0.24069 -1.19148,0.13305 -0.43204,0.7385 0.39018,4.75692 -1.72517,3.5191 a 0.39167617,0.39317111 15.1 0 1 -0.19434,-0.33935 q -0.004,-2.21402 -0.001,-4.48783 c 0.001,-0.71758 1.17503,-0.44998 1.48448,0.0135 a 0.34383786,0.34383786 0 0 0 0.47539,0.0957 c 3.33074,-2.19309 3.32177,2.84488 3.06913,4.51474 a 0.39018122,0.38868627 0.9 0 1 -0.34085,0.33038 c -0.35879,0.0404 -1.26921,0.20481 -1.22287,-0.43204 0.0688,-0.94779 0.19584,-2.52496 -0.3528,-3.34718 z"
         id="path11041-2-6"
         style="fill:#807f7f;fill-opacity:1;stroke-width:0.149495" />
      <rect
         fill="#4d4c4c"
         x="120.86765"
         y="186.26994"
         width="1.7939366"
         height="5.3788199"
         rx="0.594989"
         id="rect11043-9-0"
         style="fill:#807f7f;fill-opacity:1;stroke-width:0.149495" />
      <path
         fill="#4d4c4c"
         d="m 136.38221,187.53915 q 1.21539,-1.43814 3.13938,-1.2737 0.59798,0.0523 0.64582,0.67422 c 0.0553,0.69814 -0.63087,0.46792 -1.03002,0.49184 -2.3082,0.13903 -1.99127,3.35018 0.60546,3.05119 a 0.28852481,0.28852481 0 0 1 0.26909,0.12109 c 0.31543,0.45446 0.0688,0.88501 -0.42008,1.04646 -2.38743,0.79083 -4.99462,-2.00024 -3.20965,-4.1111 z"
         id="path11045-5-6"
         style="fill:#807f7f;fill-opacity:1;stroke-width:0.149495" />
      <rect
         fill="#4d4c4c"
         x="139.39653"
         y="187.51886"
         transform="rotate(-0.49999962)"
         width="1.6713511"
         height="5.3519111"
         rx="0.29898944"
         id="rect11047-0-5"
         style="fill:#807f7f;fill-opacity:1;stroke-width:0.149495" />
      <path
         fill="#4d4c4c"
         d="m 172.52853,186.92024 q 1.17354,-0.7998 2.65054,-0.61592 c 0.32889,0.0419 0.7415,0.28554 0.68619,0.67123 -0.0807,0.57556 -0.80429,0.44998 -1.20792,0.49034 -2.20953,0.21677 -1.69378,3.47875 0.72056,2.97345 a 0.17191893,0.16892903 57.3 0 1 0.13903,0.0314 c 0.46045,0.3558 0.27507,0.87454 -0.20032,1.08384 q -0.86856,0.3827 -1.94642,0.0628 c -1.86121,-0.55462 -2.10788,-2.47563 -1.39927,-4.02738 q 0.18986,-0.41859 0.55761,-0.66974 z"
         id="path11049-8-7"
         style="fill:#807f7f;fill-opacity:1;stroke-width:0.149495" />
      <path
         fill="#4d4c4c"
         d="m 178.48889,186.73636 c 0.71608,-0.21527 1.43664,-0.63087 2.17814,-0.31992 1.39329,0.58303 1.20492,3.3128 1.1825,4.67022 q -0.004,0.3244 -0.15249,0.50678 a 0.17640377,0.17640377 0 0 1 -0.14351,0.0658 l -1.0644,-0.0374 a 0.28852481,0.28702986 89 0 1 -0.27806,-0.27059 l -0.20481,-3.3427 q -0.004,-0.0837 -0.0703,-0.13753 -0.31394,-0.26013 -0.68618,-0.22873 c -1.16158,0.0987 -0.87455,2.85834 -0.83119,3.61329 a 0.37224185,0.37074691 88.4 0 1 -0.37075,0.39317 h -0.96125 a 0.30496923,0.30496923 0 0 1 -0.30497,-0.30497 q -0.004,-2.30521 0,-4.66573 c 0.001,-0.84465 1.26472,-0.22574 1.56371,0.0284 q 0.0643,0.0553 0.14352,0.0299 z"
         id="path11051-5-1"
         style="fill:#807f7f;fill-opacity:1;stroke-width:0.149495" />
      <path
         fill="#4d4c4c"
         d="m 188.45869,189.05203 a 2.7806018,2.7806018 0 0 1 -2.7806,2.78061 2.7806018,2.7806018 0 0 1 -2.7806,-2.78061 2.7806018,2.7806018 0 0 1 2.7806,-2.7806 2.7806018,2.7806018 0 0 1 2.7806,2.7806 z m -2.73728,1.55248 a 1.5696946,1.0569277 88.2 0 0 1.0071,-1.60212 1.5696946,1.0569277 88.2 0 0 -1.1057,-1.53572 1.5696946,1.0569277 88.2 0 0 -1.00711,1.60212 1.5696946,1.0569277 88.2 0 0 1.10571,1.53572 z"
         id="path11053-3-3"
         style="fill:#807f7f;fill-opacity:1;stroke-width:0.149495" />
      <path
         fill="#4d4c4c"
         d="m 197.7767,189.04605 a 2.774622,2.774622 0 0 1 -2.77463,2.77463 2.774622,2.774622 0 0 1 -2.77462,-2.77463 2.774622,2.774622 0 0 1 2.77462,-2.77462 2.774622,2.774622 0 0 1 2.77463,2.77462 z m -2.79533,1.55164 a 1.0629075,1.5726845 0.7 0 0 1.08204,-1.55957 1.0629075,1.5726845 0.7 0 0 -1.04362,-1.58556 1.0629075,1.5726845 0.7 0 0 -1.08204,1.55957 1.0629075,1.5726845 0.7 0 0 1.04362,1.58556 z"
         id="path11055-0-5"
         style="fill:#807f7f;fill-opacity:1;stroke-width:0.149495" />
      <path
         fill="#4d4c4c"
         d="m 202.05225,191.15094 c -0.46792,0.0493 -0.97321,0.29002 -1.33649,0.31992 -3.27991,0.2661 -2.82844,-6.23393 1.34247,-4.93931 0.50828,0.15847 0.93284,-0.56359 1.54428,-0.10464 0.92836,0.69814 0.296,5.01106 0.12109,5.89457 q -0.0747,0.37524 -0.48138,0.71309 c -0.92686,0.7699 -3.23058,1.39479 -4.09914,0.17491 a 0.32888838,0.32888838 0 0 1 0.0912,-0.46792 c 0.50529,-0.3229 0.68768,-0.10315 1.16456,-0.0762 0.7101,0.0389 2.49956,-0.35131 1.78796,-1.4501 a 0.14351493,0.14351493 0 0 0 -0.13454,-0.0643 z m -0.85136,-0.70832 a 1.0135742,1.5084017 2.3 0 0 1.07328,-1.46651 1.0135742,1.5084017 2.3 0 0 -0.95222,-1.54787 1.0135742,1.5084017 2.3 0 0 -1.07328,1.46651 1.0135742,1.5084017 2.3 0 0 0.95222,1.54787 z"
         id="path11057-0-2"
         style="fill:#807f7f;fill-opacity:1;stroke-width:0.149495" />
      <path
         fill="#4d4c4c"
         d="m 144.33084,186.78121 c 0.24069,-0.46792 1.7745,-0.5023 2.21402,-0.47091 2.41284,0.17042 2.06452,3.2829 1.94193,5.06339 q -0.004,0.0747 -0.0598,0.12707 c -0.34084,0.32889 -0.95228,0.0658 -1.35591,-0.0643 q -0.0718,-0.0224 -0.14651,-0.004 c -0.75794,0.18986 -1.50242,0.38869 -2.20056,0.13305 -0.96275,-0.3543 -1.24828,-1.3305 -0.71309,-2.18113 q 0.7116,-1.12868 2.12283,-1.18699 c 0.43503,-0.0179 0.6488,-0.17042 0.54864,-0.63236 a 0.24816124,0.24666629 86.6 0 0 -0.21677,-0.19285 q -0.91191,-0.0882 -1.75357,0.28703 a 0.14650483,0.14052504 46 0 1 -0.12557,-0.004 q -0.55911,-0.28703 -0.25564,-0.87305 z m 2.55023,2.49847 a 0.68917066,0.905938 50.1 0 0 -1.13707,0.0524 0.68917066,0.905938 50.1 0 0 -0.25293,1.10982 0.68917066,0.905938 50.1 0 0 1.13707,-0.0524 0.68917066,0.905938 50.1 0 0 0.25293,-1.10982 z"
         id="path11059-9-9"
         style="fill:#807f7f;fill-opacity:1;stroke-width:0.149495" />
      <path
         fill="#4d4c4c"
         d="m 167.44123,189.72924 c 0.012,1.11972 2.05854,0.7714 2.68492,0.76093 a 0.20630271,0.20779766 63.8 0 1 0.13305,0.0448 q 0.22126,0.1779 0.23322,0.43204 c 0.0747,1.48299 -6.17862,1.0943 -4.65079,-2.83442 1.08833,-2.80153 5.60456,-2.26484 4.86456,1.12719 a 0.33486817,0.33337323 4.6 0 1 -0.30945,0.26311 c -0.86558,0.0463 -2.03313,-0.10165 -2.8703,0.0972 a 0.11062609,0.10913115 83.3 0 0 -0.0852,0.10913 z m 1.63996,-1.58165 c 0.0807,-1.18101 -1.58016,-0.87006 -1.56521,-0.0718 q 10e-4,0.0867 0.0807,0.12408 0.57855,0.27208 1.20941,0.22574 a 0.29749449,0.29749449 0 0 0 0.27508,-0.27806 z"
         id="path11061-0-8"
         style="fill:#807f7f;fill-opacity:1;stroke-width:0.149495" />
      <path
         fill="#4d4c4c"
         d="m 209.12185,187.50327 c -0.93434,0.2646 -1.06291,-0.75345 -0.38271,-0.9777 1.08384,-0.35878 2.80154,-0.30796 3.50566,0.75645 0.63983,0.96723 0.45894,2.70137 0.48735,3.84351 0.0224,0.91191 -1.13616,0.53668 -1.53681,0.23022 a 0.14351493,0.14500988 53.2 0 0 -0.14052,-0.0194 c -0.4455,0.17342 -0.93434,0.4156 -1.38432,0.41709 -0.69814,10e-4 -1.62651,-0.44848 -1.63697,-1.26173 -0.0164,-1.35741 0.80578,-2.30073 2.17216,-2.41883 q 0.30347,-0.0254 0.56957,-0.0703 a 0.22872692,0.22872692 0 0 0 0.16445,-0.33188 c -0.29002,-0.54864 -1.36638,-0.296 -1.81786,-0.16743 z m 1.961,1.82149 a 0.71159487,0.88949358 53.9 0 0 -1.13797,-0.0509 0.71159487,0.88949358 53.9 0 0 -0.29942,1.09904 0.71159487,0.88949358 53.9 0 0 1.13797,0.0509 0.71159487,0.88949358 53.9 0 0 0.29942,-1.09904 z"
         id="path11063-4-0"
         style="fill:#807f7f;fill-opacity:1;stroke-width:0.149495" />
      <path
         fill="#4d4c4c"
         d="m 125.48404,189.64553 c -0.27657,1.38731 2.2185,0.55761 2.64456,0.95078 0.26162,0.24219 0.38121,0.78336 -0.0299,0.98667 -1.03899,0.51277 -3.20367,0.12408 -3.93021,-0.83568 -1.61305,-2.1303 0.57256,-5.21886 3.17825,-4.24565 1.09879,0.41111 1.4217,1.73414 1.26323,2.79406 a 0.30496923,0.30496923 0 0 1 -0.30197,0.26012 h -2.71632 a 0.10913115,0.10913115 0 0 0 -0.10764,0.0897 z m 1.48,-1.50541 c -0.15548,-1.0973 -1.85673,-0.68768 -1.5697,-0.0478 0.13156,0.296 0.97321,0.37672 1.26323,0.38719 a 0.29898944,0.29749449 87.1 0 0 0.30647,-0.33935 z"
         id="path11065-4-6"
         style="fill:#807f7f;fill-opacity:1;stroke-width:0.149495" />
      <rect
         fill="#4d4c4c"
         x="206.8465"
         y="184.53754"
         transform="rotate(0.49999962)"
         width="1.7730074"
         height="5.3010826"
         rx="0.44698921"
         id="rect11067-8-3"
         style="fill:#807f7f;fill-opacity:1;stroke-width:0.149495" />
      <path
         fill="#4d4c4c"
         d="m 77.62779,189.34504 c 0.470909,0.30497 2.161694,0.55164 2.345572,1.02703 a 0.19733303,0.19733303 0 0 1 -0.26311,0.25115 l -2.684925,-1.17801 a 0.6398374,0.63535256 45.2 0 0 -0.502303,-0.003 l -3.013813,1.2722 q -0.131556,0.0553 -0.13903,-0.0867 -0.009,-0.16146 0.183878,-0.28703 1.650422,-1.07935 3.324763,-1.3903 0.452969,-0.0837 0.70412,0.34683 a 0.15995935,0.13454525 86.9 0 0 0.04485,0.0478 z"
         id="path11069-2-8"
         style="fill:#c0bfbf;fill-opacity:1;stroke-width:0.149495" />
      <path
         fill="#4d4c4c"
         d="m 71.491032,192.66682 5.308558,-2.5444 a 0.15696946,0.15696946 0 0 1 0.14202,0.003 l 5.196436,2.76415 a 0.15696946,0.15696946 0 0 1 -0.07624,0.296 l -10.506489,-0.21975 a 0.15696946,0.15696946 0 0 1 -0.06428,-0.29899 z m 5.536956,-0.10922 a 0.8835138,0.72803929 78.9 0 0 0.544325,-1.00715 0.8835138,0.72803929 78.9 0 0 -0.884516,-0.72681 0.8835138,0.72803929 78.9 0 0 -0.544325,1.00714 0.8835138,0.72803929 78.9 0 0 0.884516,0.72682 z"
         id="path11071-2-0"
         style="fill:#c0bfbf;fill-opacity:1;stroke-width:0.149495" />
      <path
         fill="#4d4c4c"
         d="m 74.575108,194.22007 a 0.3483227,0.42008016 3.1 0 1 0.162949,0.21975 q 0.01345,0.0419 -0.112121,0.0912 c -0.345333,0.13305 -0.520241,0.27806 -0.917897,0.23919 q -0.109131,-0.0105 -0.09269,-0.1196 l 0.06578,-0.4425 a 0.15248461,0.15248461 0 0 1 0.12109,-0.12857 q 0.411111,-0.0852 0.772888,0.14053 z"
         id="path11073-5-7"
         style="fill:#c0bfbf;fill-opacity:1;stroke-width:0.149495" />
      <path
         fill="#4d4c4c"
         d="m 79.436676,194.0631 a 0.30795912,0.30646418 1.5 0 1 0.29002,0.30497 c 0.0045,0.9747 -1.393291,0.5023 -0.959756,-0.2661 a 0.1330503,0.1330503 0 0 1 0.122586,-0.0673 z"
         id="path11075-6-4"
         style="fill:#c0bfbf;fill-opacity:1;stroke-width:0.149495" />
      <path
         fill="#4d4c4c"
         d="m 70.792892,194.95857 c 0.409615,0.42457 0,1.12719 -0.677211,0.83867 -0.650302,-0.27657 0.13604,-1.39927 0.677211,-0.83867 z"
         id="path11077-8-1"
         style="fill:#c0bfbf;fill-opacity:1;stroke-width:0.149495" />
      <circle
         fill="#4d4c4c"
         cx="67.17662"
         cy="195.39211"
         r="0.57106984"
         id="circle11079-5-8"
         style="fill:#c0bfbf;fill-opacity:1;stroke-width:0.149495" />
      <circle
         fill="#4d4c4c"
         cx="83.174049"
         cy="195.39958"
         r="0.57256478"
         id="circle11081-4-9"
         style="fill:#c0bfbf;fill-opacity:1;stroke-width:0.149495" />
      <path
         fill="#4d4c4c"
         d="m 85.993515,195.00342 c 0.500807,-0.58004 1.050948,0.16743 0.919392,0.71608 q -0.01495,0.0673 -0.07475,0.10315 c -0.541171,0.32739 -1.40226,-0.17341 -0.844645,-0.81923 z"
         id="path11083-3-9"
         style="fill:#c0bfbf;fill-opacity:1;stroke-width:0.149495" />
      <path
         fill="#4d4c4c"
         d="m 205.85689,196.6374 c -0.8013,-0.90445 0.5606,-2.23943 1.23931,-1.19148 0.68618,1.05843 -0.24966,1.41123 -1.1242,1.25576 a 0.20032292,0.19882798 74.1 0 1 -0.11511,-0.0643 z"
         id="path11085-1-9"
         style="fill:#807f7f;fill-opacity:1;stroke-width:0.149495" />
      <ellipse
         fill="#4d4c4c"
         cx="114.62542"
         cy="224.69022"
         transform="rotate(-12)"
         rx="0.89696831"
         ry="0.85510975"
         id="ellipse11087-9-4"
         style="fill:#807f7f;fill-opacity:1;stroke-width:0.149495" />
      <rect
         fill="#4d4c4c"
         x="166.76401"
         y="195.17982"
         width="1.6803206"
         height="7.8215637"
         rx="0.19434313"
         id="rect11089-4-0"
         style="fill:#807f7f;fill-opacity:1;stroke-width:0.149495" />
      <path
         fill="#4d4c4c"
         d="m 117.97044,197.55828 q 0.18985,-0.78783 -0.0867,-1.62201 c -0.25564,-0.76691 1.22586,-0.7998 1.62202,-0.55313 a 0.34682775,0.3453328 15.9 0 1 0.16444,0.2945 q 0.006,3.47575 0.002,6.92161 c -0.002,0.79082 -1.37984,0.33785 -1.69677,0.0523 a 0.24965618,0.24816124 44.3 0 0 -0.33636,0.003 c -0.48437,0.44848 -1.08832,0.58901 -1.72218,0.31842 -3.17079,-1.35442 -1.83879,-6.60467 1.82832,-5.29361 a 0.17191893,0.17191893 0 0 0 0.22574,-0.12109 z m -1.16464,4.21629 a 1.0718771,1.4814927 3.3 0 0 1.15538,-1.41734 1.0718771,1.4814927 3.3 0 0 -0.98481,-1.54074 1.0718771,1.4814927 3.3 0 0 -1.15538,1.41735 1.0718771,1.4814927 3.3 0 0 0.98481,1.54073 z"
         id="path11091-3-3"
         style="fill:#807f7f;fill-opacity:1;stroke-width:0.149495" />
      <rect
         fill="#4d4c4c"
         x="195.51825"
         y="195.92622"
         transform="rotate(-0.2)"
         width="1.6593914"
         height="7.7348571"
         rx="0.16593914"
         id="rect11093-1-2"
         style="fill:#807f7f;fill-opacity:1;stroke-width:0.149495" />
      <path
         fill="#4d4c4c"
         d="m 212.2149,195.54758 a 0.2945046,0.29300965 86.3 0 1 0.25414,-0.29002 c 0.36028,-0.0493 1.37086,-0.14651 1.37385,0.43652 q 0.0164,3.41596 0.0179,6.83042 c 0,0.89398 -1.28266,0.40961 -1.64593,0.0927 a 0.12109072,0.11959578 51.6 0 0 -0.13604,-0.0164 c -0.88053,0.45895 -1.41572,0.98069 -2.35754,0.21527 q -1.80739,-1.46804 -1.20791,-3.50565 c 0.44549,-1.51438 1.86121,-2.16767 3.36512,-1.6564 a 0.24965618,0.24965618 0 0 0 0.32889,-0.23471 z m -1.15782,6.24534 a 1.0673923,1.499432 3 0 0 1.14439,-1.44152 1.0673923,1.499432 3 0 0 -0.98746,-1.55325 1.0673923,1.499432 3 0 0 -1.14439,1.44152 1.0673923,1.499432 3 0 0 0.98746,1.55325 z"
         id="path11095-0-5"
         style="fill:#807f7f;fill-opacity:1;stroke-width:0.149495" />
      <path
         fill="#4d4c4c"
         d="m 78.533728,195.86301 c 1.113736,0.81774 1.179514,1.91354 1.254261,3.40549 q 0.13006,2.53693 0.110626,5.07535 c -0.0075,1.04048 0.02392,1.5667 -1.227352,1.59062 q -2.25737,0.0448 -4.423548,0.0747 a 0.5890092,0.5890092 0 0 1 -0.596484,-0.58153 q -0.04186,-3.38905 -0.01944,-6.8648 c 0.01645,-2.48759 2.741734,-4.28602 4.901932,-2.69988 z"
         id="path11097-8-7"
         style="fill:#c0bfbf;fill-opacity:1;stroke-width:0.149495" />
      <path
         fill="#4d4c4c"
         d="m 130.77466,198.15178 a 0.05531305,0.05531305 0 0 0 -0.10614,0.0164 q -0.12558,2.08097 -0.2362,4.16791 c -0.0404,0.78784 -0.84913,0.75196 -1.41273,0.62788 q -0.0777,-0.0179 -0.0957,-0.0972 -0.0434,-0.2063 -0.0314,-0.41709 0.18687,-3.26048 0.40812,-6.62262 a 0.31393891,0.31244396 1.9 0 1 0.31244,-0.29151 h 1.61604 a 0.39765596,0.39616101 81.1 0 1 0.37822,0.27657 q 0.66675,2.09741 1.0061,4.28152 0.0628,0.40962 0.34235,0.31544 a 0.16444419,0.16593914 86.9 0 0 0.10614,-0.11661 q 0.53519,-2.2783 1.26622,-4.41308 c 0.18089,-0.52622 1.5084,-0.34683 1.94492,-0.34085 a 0.4275549,0.42605995 89.2 0 1 0.42158,0.40962 l 0.27507,6.72277 a 0.32589849,0.32589849 0 0 1 -0.3259,0.33936 h -0.86856 a 0.38569638,0.38569638 0 0 1 -0.3842,-0.35281 q -0.11063,-1.38133 -0.18837,-2.80602 c -0.0359,-0.65628 0.48735,-1.33349 -0.13305,-1.88812 q -0.15846,-0.14052 -0.21976,0.0613 -0.63086,2.11535 -1.2722,4.23668 c -0.12258,0.40214 -0.36626,0.66674 -0.78933,0.63834 -0.65329,-0.0448 -0.86109,-0.51426 -0.97321,-1.13317 q -0.33935,-1.87018 -1.04048,-3.61478 z"
         id="path11099-8-8"
         style="fill:#807f7f;fill-opacity:1;stroke-width:0.149495" />
      <path
         fill="#4d4c4c"
         d="m 190.65327,195.62831 a 0.15248461,0.15397956 11.9 0 1 0.14053,-0.0927 h 3.85098 a 0.3737368,0.3737368 0 0 1 0.37374,0.37374 v 0.80278 a 0.31692881,0.31692881 0 0 1 -0.31693,0.31693 l -2.18412,0.004 a 0.34084796,0.34084796 0 0 0 -0.34085,0.35878 l 0.0508,0.97471 a 0.32589849,0.32440354 88.5 0 0 0.32441,0.30796 h 1.99874 a 0.31842375,0.31842375 0 0 1 0.31842,0.31842 v 0.64881 a 0.37822164,0.37971659 89.9 0 1 -0.37822,0.37822 h -1.9524 a 0.36028228,0.36028228 0 0 0 -0.36028,0.36028 v 2.23794 a 0.39317111,0.39167617 0 0 1 -0.39317,0.39168 h -0.84465 a 0.40513069,0.40363574 0 0 1 -0.40513,-0.40364 q -0.004,-3.29038 0,-6.63009 c 10e-4,-0.12707 0.0673,-0.23321 0.1181,-0.34832 z"
         id="path11101-6-9"
         style="fill:#807f7f;fill-opacity:1;stroke-width:0.149495" />
      <path
         fill="#4d4c4c"
         d="m 143.59533,198.65109 c -0.68768,-1.20792 0.87454,-2.24691 1.90007,-2.3665 0.57556,-0.0658 0.38121,0.46194 0.31693,0.77289 -0.0972,0.4709 0.37224,0.64282 0.75944,0.55612 a 0.22573703,0.22274713 50.7 0 1 0.14202,0.0149 c 0.70711,0.34234 0.50529,1.37684 -0.36926,1.17652 a 0.39616101,0.39616101 0 0 0 -0.47987,0.3259 q -0.19136,1.25725 0.19434,2.45769 0.0224,0.0703 0.0882,0.10465 0.31244,0.16295 0.66974,0.11511 a 0.11810083,0.11660588 75.1 0 1 0.12408,0.0733 c 0.13155,0.32739 0.18836,0.93434 -0.13305,1.17652 -0.47988,0.36178 -1.63249,-0.0762 -2.01071,-0.35579 -0.55014,-0.40513 -0.54565,-2.81499 -0.60545,-3.52957 a 0.26012081,0.25264608 25 0 0 -0.0508,-0.13305 q -0.16893,-0.22425 -0.4425,-0.30647 a 0.17341388,0.17939366 84.5 0 1 -0.10315,-0.0822 z"
         id="path11103-5-2"
         style="fill:#807f7f;fill-opacity:1;stroke-width:0.149495" />
      <path
         fill="#4d4c4c"
         d="m 83.4536,197.21445 c 0.886503,-0.99265 3.034742,-0.6533 3.486216,0.62189 q 0.09867,0.27657 0.101657,0.88651 0.009,3.17975 0.003,6.361 c 0,0.4141 -0.167434,0.84614 -0.606949,0.86557 q -2.042098,0.0942 -3.278419,0.0463 c -0.318424,-0.012 -0.464929,-0.27358 -0.494828,-0.58004 -0.231716,-2.41584 -0.693655,-6.5404 0.789333,-8.20128 z"
         id="path11105-6-0"
         style="fill:#c0bfbf;fill-opacity:1;stroke-width:0.149495" />
      <path
         fill="#4d4c4c"
         d="m 69.416045,196.80035 c 0.913413,0.30945 1.499432,1.41272 1.506907,2.35304 q 0.0299,3.17079 0.01046,6.23692 a 0.43502964,0.43353469 88.4 0 1 -0.406626,0.43055 l -3.327752,0.21377 q -0.587515,0.0389 -0.590505,-0.55014 -0.01495,-3.44286 -0.003,-6.80948 c 0.003,-1.05394 1.811876,-2.21402 2.8105,-1.87466 z"
         id="path11107-0-6"
         style="fill:#c0bfbf;fill-opacity:1;stroke-width:0.149495" />
      <path
         fill="#4d4c4c"
         d="m 161.2058,197.98584 q 0.0643,-0.10465 0.17192,-0.15996 0.61293,-0.32141 1.37535,-0.44251 c 2.8404,-0.45446 2.6341,3.16182 2.67596,4.91539 q 0.007,0.30796 -0.12857,0.57855 a 0.17341388,0.17490882 5.7 0 1 -0.10614,0.0882 c -0.48885,0.14351 -0.94032,-0.0179 -1.45309,-0.2078 q -0.0717,-0.0269 -0.14501,-0.006 c -0.49632,0.13903 -1.1825,0.40663 -1.67434,0.27956 -1.27519,-0.32889 -1.66836,-1.46505 -0.85511,-2.48909 0.5935,-0.74449 1.22437,-0.86259 2.14376,-0.98517 0.32739,-0.0434 0.51725,-0.20182 0.5307,-0.52323 q 0.004,-0.0867 -0.0747,-0.12408 -1.0375,-0.49184 -2.06752,0.0508 a 0.30197933,0.30347428 60.8 0 1 -0.40064,-0.11212 q -0.25713,-0.42755 0.007,-0.86258 z m 2.59622,2.70932 a 0.71458476,0.87155422 54 0 0 -1.12513,-0.0658 0.71458476,0.87155422 54 0 0 -0.28509,1.0904 0.71458476,0.87155422 54 0 0 1.12513,0.0658 0.71458476,0.87155422 54 0 0 0.28509,-1.0904 z"
         id="path11109-4-4"
         style="fill:#807f7f;fill-opacity:1;stroke-width:0.149495" />
      <path
         fill="#4d4c4c"
         d="m 155.45474,198.16374 c 0.38719,-0.34833 1.35891,-1.29463 1.6265,-0.18687 q 0.11661,0.48436 -0.0254,0.95975 a 0.15696946,0.15995935 1.1 0 1 -0.11212,0.10914 l -0.99713,0.2646 a 0.52622141,0.52622141 0 0 0 -0.39168,0.50529 c -0.004,0.64283 0.15697,2.39939 -0.10464,2.94056 a 0.19583808,0.18537345 0.5 0 1 -0.10166,0.0942 q -0.77438,0.30796 -1.39628,0.11212 c -0.28853,-0.0912 -0.23172,-0.43204 -0.23172,-0.67871 q -0.006,-2.55785 0.0538,-4.12157 c 0.0224,-0.58452 0.93285,-0.72804 1.26622,-0.32291 q 0.17043,0.2093 0.27208,0.31843 a 0.10016146,0.10165641 47.7 0 0 0.14202,0.006 z"
         id="path11111-5-3"
         style="fill:#807f7f;fill-opacity:1;stroke-width:0.149495" />
      <path
         fill="#4d4c4c"
         d="m 175.37491,199.60935 c 0.18538,-1.68929 1.66836,-2.67595 3.28141,-1.80141 0.58154,0.31543 0.40513,1.09729 -0.27955,1.10028 a 0.23022187,0.22125219 62.5 0 1 -0.13604,-0.0463 q -0.69964,-0.52622 -1.16905,0.1779 a 0.28553492,0.28553492 0 0 0 0.14202,0.42755 c 0.87903,0.30946 2.26783,0.80279 2.06602,2.03911 -0.24667,1.51588 -2.40687,1.80141 -3.56097,1.40226 -0.39915,-0.13754 -0.29002,-0.75794 -0.28254,-1.07487 a 0.27058544,0.27058544 0 0 1 0.40513,-0.22723 c 0.40363,0.23321 1.47401,0.5621 1.84327,0.0942 q 0.0433,-0.0568 0.012,-0.12109 c -0.45297,-0.9463 -2.44723,-0.82969 -2.32166,-1.97034 z"
         id="path11113-8-7"
         style="fill:#807f7f;fill-opacity:1;stroke-width:0.149495" />
      <path
         fill="#4d4c4c"
         d="m 140.8506,199.2999 a 0.16294924,0.1614543 63.4 0 0 0.0837,-0.25265 c -0.57705,-0.77588 -1.43216,-0.36925 -2.13778,-0.0837 a 0.2406865,0.2406865 0 0 1 -0.28254,-0.0807 c -0.26162,-0.3558 -0.28105,-1.04796 0.27208,-1.16008 0.56958,-0.11362 1.10028,-0.22275 1.68182,-0.18986 2.86431,0.16295 2.23345,3.06464 2.21102,4.96023 -0.0135,1.14065 -1.184,0.23621 -1.68929,0.29451 -0.64581,0.0733 -1.42917,0.34982 -1.98529,0.19285 -1.1825,-0.33188 -1.48149,-1.82384 -0.57705,-2.59822 0.76691,-0.65778 1.54877,-0.82372 2.42331,-1.08234 z m 0.17974,1.34186 a 0.68767571,0.88650369 50.6 0 0 -1.12152,0.0313 0.68767571,0.88650369 50.6 0 0 -0.24854,1.09409 0.68767571,0.88650369 50.6 0 0 1.12152,-0.0313 0.68767571,0.88650369 50.6 0 0 0.24854,-1.09409 z"
         id="path11115-5-6"
         style="fill:#807f7f;fill-opacity:1;stroke-width:0.149495" />
      <path
         fill="#4d4c4c"
         d="m 220.47448,200.30749 a 2.8045209,2.8045209 0 0 1 -2.80452,2.80452 2.8045209,2.8045209 0 0 1 -2.80452,-2.80452 2.8045209,2.8045209 0 0 1 2.80452,-2.80452 2.8045209,2.8045209 0 0 1 2.80452,2.80452 z m -2.80995,1.64133 a 1.6354722,1.047958 89.3 0 0 1.0279,-1.64815 1.6354722,1.047958 89.3 0 0 -1.06787,-1.62255 1.6354722,1.047958 89.3 0 0 -1.0279,1.64815 1.6354722,1.047958 89.3 0 0 1.06787,1.62255 z"
         id="path11117-4-3"
         style="fill:#807f7f;fill-opacity:1;stroke-width:0.149495" />
      <path
         fill="#4d4c4c"
         d="m 221.72725,198.17271 a 0.27357534,0.2690905 85.8 0 1 0.0837,-0.0987 q 1.29762,-0.93135 2.79854,-0.29301 0.19584,0.0837 0.25863,0.40513 c 0.18687,0.97022 -0.9762,0.52323 -1.40675,0.48287 -0.38569,-0.0344 -0.60694,0.41858 -0.35878,0.69814 0.62489,0.70113 1.87915,0.43204 2.05405,1.67584 0.26611,1.89409 -1.92848,2.27381 -3.27094,1.93745 -1.05095,-0.26311 -0.61741,-2.00622 0.78485,-1.04348 a 0.20929261,0.20630271 58.3 0 0 0.14052,0.0344 c 0.43055,-0.0478 1.08234,-0.17192 0.65479,-0.7998 q -0.0434,-0.0628 -0.11511,-0.0852 c -1.45459,-0.46493 -2.50703,-1.10477 -1.62351,-2.91365 z"
         id="path11119-0-0"
         style="fill:#807f7f;fill-opacity:1;stroke-width:0.149495" />
      <path
         fill="#4d4c4c"
         d="m 124.87709,202.93411 c -4.63433,1.37087 -5.51187,-4.9393 -2.11086,-5.33696 q 2.66399,-0.31095 2.94504,2.37248 0.0523,0.50231 -0.0927,0.81475 a 0.15098967,0.15248461 14.1 0 1 -0.14352,0.0867 l -2.88375,-0.11063 a 0.12707051,0.12707051 0 0 0 -0.1181,0.18537 c 0.58602,1.14663 1.38432,0.92239 2.43078,0.83119 a 0.39167617,0.39167617 0 0 1 0.40962,0.27657 q 0.2063,0.68917 -0.43653,0.88052 z m -2.29773,-3.96908 c -0.75794,1.0345 1.04497,0.80877 1.38731,0.68917 a 0.24816124,0.24816124 0 0 0 0.12109,-0.37673 c -0.25863,-0.37074 -1.11972,-0.84464 -1.5084,-0.31244 z"
         id="path11121-3-8"
         style="fill:#807f7f;fill-opacity:1;stroke-width:0.149495" />
      <path
         fill="#4d4c4c"
         d="m 169.76438,201.47206 c -1.07637,-2.28279 0.86408,-4.51923 3.29336,-3.77624 1.30061,0.39915 1.57717,1.78497 1.46954,2.98541 a 0.27955513,0.28105007 4.3 0 1 -0.29451,0.25414 l -2.91215,-0.16594 a 0.10614125,0.10614125 0 0 0 -0.0942,0.16594 c 0.59051,0.86258 1.35293,1.05992 2.35006,0.86856 0.67422,-0.12856 0.93733,0.7415 0.24966,0.98517 -1.55923,0.55164 -3.28889,0.32441 -4.06177,-1.31704 z m 1.51587,-2.35604 c 0.0269,0.69066 1.17354,0.73252 1.62202,0.55163 a 0.11062609,0.11062609 0 0 0 0.0688,-0.1166 c -0.0987,-0.83867 -1.04946,-0.95378 -1.61754,-0.57705 a 0.1584644,0.16294924 71.7 0 0 -0.0732,0.14202 z"
         id="path11123-4-4"
         style="fill:#807f7f;fill-opacity:1;stroke-width:0.149495" />
      <path
         fill="#4d4c4c"
         d="m 184.57781,200.7186 a 0.07773725,0.07773725 0 0 0 0.13454,0.0299 q 0.89697,-1.08832 0.82521,-2.50852 -0.004,-0.0718 0.0374,-0.13305 0.59798,-0.86109 1.5069,-0.39915 c 0.24966,0.12707 0.31843,0.38868 0.21827,0.65777 q -0.89996,2.43976 -1.84327,4.86307 -0.33786,0.87006 -0.70711,1.24379 c -0.38271,0.3857 -1.66089,1.1855 -2.1004,0.48138 -0.51427,-0.82521 0.62787,-1.36489 1.14961,-1.70574 a 0.40513069,0.40513069 0 0 0 0.15398,-0.49184 l -1.90755,-4.68067 a 0.29300965,0.29300965 0 0 1 0.25264,-0.40215 c 0.61592,-0.0404 1.43964,-0.32739 1.64295,0.5053 q 0.31394,1.28715 0.63685,2.53991 z"
         id="path11125-9-7"
         style="fill:#807f7f;fill-opacity:1;stroke-width:0.149495" />
      <path
         fill="#4d4c4c"
         d="m 147.70942,199.78276 c 0.30646,-3.39353 6.51647,-2.661 4.93632,0.88352 -0.13006,0.2945 -0.37075,0.26012 -0.6518,0.24069 q -1.00162,-0.0688 -2.00772,-0.10615 c -0.31991,-0.012 -0.61143,0.20332 -0.40513,0.52324 0.34683,0.53668 2.00622,0.52323 2.56234,0.52024 a 0.2690905,0.2690905 0 0 1 0.27059,0.25563 q 0.0493,0.86259 -0.90594,0.95976 c -2.00472,0.20331 -4.00197,-1.04198 -3.79866,-3.27693 z m 1.96586,-0.81773 c -0.7101,0.85361 0.86408,0.888 1.24828,0.84763 a 0.28254502,0.28105007 78.3 0 0 0.23769,-0.36476 c -0.19135,-0.60396 -0.96872,-1.10626 -1.48597,-0.48287 z"
         id="path11127-1-8"
         style="fill:#807f7f;fill-opacity:1;stroke-width:0.149495" />
      <rect
         fill="#4d4c4c"
         x="159.35339"
         y="196.51971"
         transform="rotate(0.3999994)"
         width="1.6294924"
         height="5.3728399"
         rx="0.27507031"
         id="rect11129-7-9"
         style="fill:#807f7f;fill-opacity:1;stroke-width:0.149495" />
      <path
         fill="#4d4c4c"
         d="m 199.31948,197.75263 a 0.19882798,0.19733303 10.8 0 1 0.18388,-0.12408 h 1.15559 a 0.24517134,0.24517134 0 0 1 0.2392,0.30048 q -0.41709,1.82384 0.33785,3.39503 c 0.16295,0.33935 0.4141,0.59498 0.7998,0.47987 0.87305,-0.26161 0.64432,-3.07959 0.62489,-3.85248 a 0.31543386,0.31543386 0 0 1 0.31543,-0.3229 h 0.93883 a 0.37074691,0.37074691 0 0 1 0.37075,0.37074 q 0.004,2.17067 0.001,4.37571 c 0,1.04348 -1.09729,0.67871 -1.56072,0.27657 a 0.12707051,0.12707051 0 0 0 -0.13006,-0.0224 c -0.88352,0.33338 -1.88663,1.07039 -2.67596,0.0777 -0.68169,-0.8581 -0.98965,-3.993 -0.60097,-4.95425 z"
         id="path11131-9-1"
         style="fill:#807f7f;fill-opacity:1;stroke-width:0.149495" />
      <rect
         fill="#4d4c4c"
         x="205.63264"
         y="197.62704"
         width="1.644442"
         height="5.3818097"
         rx="0.38719133"
         id="rect11133-7-6"
         style="fill:#807f7f;fill-opacity:1;stroke-width:0.149495" />
      <rect
         fill="#4d4c4c"
         x="64.399002"
         y="206.52348"
         width="24.890871"
         height="0.97171569"
         rx="0.39167616"
         id="rect11135-6-4"
         style="fill:#c0bfbf;fill-opacity:1;stroke-width:0.149495" />
      <rect
         fill="#4d4c4c"
         x="62.270199"
         y="208.09317"
         width="29.262096"
         height="1.644442"
         rx="0.33486816"
         id="rect11137-1-3"
         style="fill:#c0bfbf;fill-opacity:1;stroke-width:0.149495" />
      <path
         fill="#4d4c4c"
         d="m 60.024787,212.50776 v -1.90008 l 33.452433,-0.0718 a 0.26460565,0.26460565 0 0 1 0.264606,0.28105 l -0.0882,1.39479 a 0.38719132,0.38868627 1.8 0 1 -0.387191,0.36476 q -7.519584,0.003 -15.040664,0.006 -0.04933,0 -0.08671,-0.0269 a 0.11511093,0.11959578 63.5 0 0 -0.06727,-0.0209 z"
         id="path11139-2-3"
         style="fill:#c0bfbf;fill-opacity:1;stroke-width:0.149495" />
      <path
         fill="#4d4c4c"
         d="m 119.56554,220.77033 c -3.36213,0.39616 -4.48035,-2.14376 -4.48633,-4.96622 q -0.006,-2.26484 0.13305,-4.49381 a 0.19284819,0.19135324 2.8 0 1 0.19883,-0.17939 l 1.64294,0.0538 a 0.17191893,0.17341388 3.3 0 1 0.16594,0.18687 q -0.2646,3.36512 0.1196,6.57926 c 0.0733,0.61592 0.36925,1.06889 1.00012,1.13616 1.81337,0.19285 2.13329,-1.76254 2.18113,-3.10949 q 0.0792,-2.19159 -0.0508,-4.47886 a 0.39317111,0.39317111 0 0 1 0.39317,-0.4156 l 1.37983,0.002 a 0.15098967,0.15397956 76.8 0 1 0.13604,0.0822 q 0.0852,0.16444 0.10615,0.46792 0.13454,2.00323 0.0762,4.6134 c -0.0448,2.01669 -0.66675,4.24864 -2.99588,4.52222 z"
         id="path11141-6-8"
         style="fill:#807f7f;fill-opacity:1;stroke-width:0.149495" />
      <path
         fill="#4d4c4c"
         d="m 179.09285,220.67615 c -2.69838,0.72355 -4.1126,-1.76105 -3.63273,-4.08121 0.45895,-2.22149 2.25289,-3.33971 4.47737,-2.22598 a 0.18985829,0.18836335 12.1 0 0 0.27358,-0.1764 l -0.1181,-2.77761 a 0.31692881,0.31692881 0 0 1 0.31693,-0.33188 h 1.42318 a 0.17939366,0.17939366 0 0 1 0.17491,0.14202 q 0.0538,0.25265 0.0553,0.53071 0.0239,4.18286 0.0284,8.53615 a 0.28553492,0.28403997 79.5 0 1 -0.18238,0.2661 c -0.45746,0.17939 -1.33051,0.20331 -1.61305,-0.3259 a 0.35280754,0.35280754 0 0 0 -0.57107,-0.0733 c -0.19584,0.21377 -0.3244,0.43502 -0.63236,0.51725 z m -0.21369,-1.48514 a 1.8073912,1.3529272 87.2 0 0 1.26302,-1.87133 1.8073912,1.3529272 87.2 0 0 -1.4396,-1.73915 1.8073912,1.3529272 87.2 0 0 -1.26303,1.87133 1.8073912,1.3529272 87.2 0 0 1.43961,1.73915 z"
         id="path11143-7-5"
         style="fill:#807f7f;fill-opacity:1;stroke-width:0.149495" />
      <circle
         fill="#4d4c4c"
         cx="132.36827"
         cy="212.0787"
         r="0.97022069"
         id="circle11145-3-3"
         style="fill:#807f7f;fill-opacity:1;stroke-width:0.149495" />
      <circle
         fill="#4d4c4c"
         cx="159.10391"
         cy="212.08469"
         r="0.97171569"
         id="circle11147-4-1"
         style="fill:#807f7f;fill-opacity:1;stroke-width:0.149495" />
      <path
         fill="#4d4c4c"
         d="m 162.23283,220.28597 c -1.85822,-1.3933 -1.5084,-5.59709 0.94182,-6.29224 0.8865,-0.25115 1.6863,0.0105 2.49208,0.37972 a 0.12408062,0.12408062 0 0 0 0.1749,-0.11661 l -0.0987,-2.76116 q -0.0135,-0.39915 0.38569,-0.38421 l 1.44562,0.0553 a 0.17640377,0.17640377 0 0 1 0.16893,0.18238 q -0.12259,4.14997 0.0538,8.23118 c 0.0299,0.6817 -0.0239,1.2438 -0.84764,1.20941 q -0.70412,-0.0284 -1.07337,-0.6204 a 0.30347428,0.30496923 50.2 0 0 -0.48436,-0.0434 l -0.38122,0.42307 q -0.0508,0.0553 -0.12109,0.0807 -1.50541,0.51875 -2.65652,-0.34383 z m 2.27416,-1.09691 a 1.8088861,1.3529272 88 0 0 1.28897,-1.85499 1.8088861,1.3529272 88 0 0 -1.41523,-1.76057 1.8088861,1.3529272 88 0 0 -1.28898,1.85499 1.8088861,1.3529272 88 0 0 1.41524,1.76057 z"
         id="path11149-7-8"
         style="fill:#807f7f;fill-opacity:1;stroke-width:0.149495" />
      <path
         fill="#4d4c4c"
         d="m 186.35231,219.62669 q 0.0822,0.0882 0.36925,0.0852 2.47264,-0.0314 4.9423,-0.0867 0.0807,-0.003 0.13305,0.0568 l 0.30945,0.34234 a 0.13006041,0.13006041 0 0 1 0.0194,0.148 c -0.15847,0.30347 -0.37673,0.47539 -0.74449,0.47689 q -3.21413,0.004 -6.45817,0 a 0.47539321,0.43801953 31.4 0 1 -0.0658,-0.004 q -0.75495,-0.13305 -0.33786,-0.66525 2.73277,-3.48771 5.46703,-6.97393 0.1166,-0.14949 0.18687,-0.27208 a 0.22573703,0.22573703 0 0 0 -0.19435,-0.33786 q -2.4861,-0.0105 -4.99312,-10e-4 c -0.93733,0.003 -0.51127,-1.00909 0.17939,-1.01058 q 3.35167,-0.004 6.69886,0 a 0.37224185,0.30496923 81.9 0 1 0.31095,0.28553 q 0.0344,0.14501 -0.13604,0.36327 -2.79705,3.56695 -5.70023,7.23704 -0.14651,0.18388 0.0135,0.35729 z"
         id="path11151-8-9"
         style="fill:#807f7f;fill-opacity:1;stroke-width:0.149495" />
      <path
         fill="#4d4c4c"
         d="m 124.19839,220.64176 a 0.36327217,0.36476712 1.9 0 1 -0.33936,-0.36327 v -5.86767 a 0.27806018,0.27656523 80.2 0 1 0.18388,-0.26161 q 0.97471,-0.34982 1.70424,0.36177 a 0.23171682,0.23022187 50.2 0 0 0.29002,0.0269 c 4.19781,-2.85684 4.27704,3.62974 4.00496,5.73014 -0.0747,0.57406 -1.17801,0.3827 -1.58464,0.3827 a 0.42157511,0.42008016 2.2 0 1 -0.41859,-0.45147 c 0.0882,-1.25277 0.2078,-2.68343 -0.14052,-3.80614 -0.33935,-1.09131 -1.94194,-1.08234 -1.94493,0.16295 q -0.003,1.8044 -0.001,3.60881 c 0.001,0.69216 -1.29313,0.50678 -1.75357,0.47688 z"
         id="path11153-0-0"
         style="fill:#807f7f;fill-opacity:1;stroke-width:0.149495" />
      <path
         fill="#4d4c4c"
         d="m 239.41845,219.87635 v 0.49333 q -0.69814,0.63386 -1.24977,-0.11511 a 0.2945046,0.2945046 0 0 0 -0.39168,-0.0762 q -0.64731,0.39915 -1.40077,0.51576 c -1.94791,0.30198 -2.77462,-1.72218 -1.65939,-3.12145 0.70113,-0.87903 1.8941,-1.09281 3.00634,-1.09729 a 0.19733303,0.20480777 26.7 0 0 0.12408,-0.0434 q 0.52921,-0.40513 0.14352,-0.85959 c -0.6802,-0.80279 -2.14525,-0.5621 -3.11996,-0.6802 a 0.11810083,0.11810083 0 0 1 -0.0927,-0.0658 c -0.36327,-0.7684 1.99426,-1.02105 2.32315,-1.01507 2.68343,0.0448 1.96436,4.36226 2.31717,6.065 z m -3.44585,-0.0733 c 0.9179,0.2945 2.95551,-1.44711 2.16618,-2.36949 -0.44998,-0.52772 -1.68481,-0.0613 -2.14974,0.23171 q -0.50828,0.32291 -0.63236,0.80877 c -0.12408,0.49034 0.0523,1.14812 0.61592,1.32901 z"
         id="path11155-5-7"
         style="fill:#807f7f;fill-opacity:1;stroke-width:0.149495" />
      <path
         fill="#4d4c4c"
         d="m 172.29981,216.12553 c -0.58303,-1.16307 -1.56372,-0.73552 -2.51151,-0.36925 a 0.17341388,0.17191893 48.2 0 1 -0.14053,-0.009 c -0.53519,-0.29152 -0.75345,-1.11972 -0.0688,-1.42469 2.84937,-1.26771 4.93333,0.11063 4.91389,3.20218 q -0.009,1.42917 -0.009,2.82993 a 0.28702986,0.28702986 0 0 1 -0.25862,0.28554 q -0.89398,0.0852 -1.69826,-0.31544 -0.0777,-0.0389 -0.15847,-0.004 c -0.63086,0.2676 -1.30359,0.59499 -2.04658,0.44549 -1.02852,-0.2048 -1.77899,-1.14214 -1.69078,-2.20654 0.13454,-1.65341 2.17963,-2.28428 3.56096,-2.26185 a 0.11810083,0.11810083 0 0 0 0.10764,-0.17192 z m -1.71321,2.4248 c -0.5322,1.26323 2.41135,1.04348 1.84775,-0.7983 a 0.32739344,0.32739344 0 0 0 -0.27208,-0.23022 c -0.90893,-0.11362 -1.26771,0.2945 -1.57567,1.02852 z"
         id="path11157-1-5"
         style="fill:#807f7f;fill-opacity:1;stroke-width:0.149495" />
      <path
         fill="#4d4c4c"
         d="m 194.12753,215.10896 c -0.5038,-0.17939 -0.31095,-0.72206 0.0867,-0.88202 4.74347,-1.91951 4.36225,3.42044 4.18734,6.10088 q -0.004,0.0718 -0.0568,0.12259 c -0.40663,0.40065 -0.78336,-0.0389 -1.09729,-0.28404 a 0.13753514,0.1360402 50 0 0 -0.14501,-0.0135 c -1.18699,0.59797 -3.20667,1.02254 -3.7284,-0.70861 -0.60845,-2.01967 2.22298,-3.03026 3.65514,-3.105 a 0.27507028,0.27507028 0 0 0 0.2362,-0.3857 c -0.59797,-1.35592 -1.69527,-1.2438 -2.89571,-0.84315 a 0.37822164,0.37523175 45.2 0 1 -0.24218,-0.001 z m 0.7699,4.42953 c 0.75644,0.58901 1.70424,0.5038 2.14375,-0.40064 0.6518,-1.33798 0.16146,-2.17814 -1.3903,-1.76853 -0.87604,0.23172 -1.67583,1.4516 -0.75345,2.16917 z"
         id="path11159-9-7"
         style="fill:#807f7f;fill-opacity:1;stroke-width:0.149495" />
      <path
         fill="#4d4c4c"
         d="m 215.63534,223.49113 h -1.07936 q -0.78185,-0.22125 -1.56222,-0.44549 c -0.37971,-0.10913 -0.3827,-0.63984 -0.0523,-0.87604 q 0.0613,-0.0434 0.13305,-0.0269 c 0.97471,0.23321 1.97632,0.70861 2.92412,0.13305 0.82521,-0.50081 1.0659,-1.53232 1.1242,-2.46965 a 0.13155535,0.13155535 0 0 0 -0.20481,-0.11661 c -0.95378,0.64432 -2.11535,1.33798 -3.24104,0.72804 -1.8941,-1.02703 -1.92101,-4.89147 -0.21827,-6.13078 0.94929,-0.69066 2.2798,-0.45147 3.21862,0.14651 a 0.42008016,0.424565 42.3 0 0 0.48736,-0.0254 l 0.52024,-0.41111 a 0.26012081,0.25862587 67.5 0 1 0.41709,0.17342 q 0.31244,2.56682 0.17491,5.16952 c -0.0957,1.81338 -0.77737,3.59236 -2.64157,4.15147 z m -0.56768,-3.76164 a 1.8851284,2.4487235 3 0 0 2.0107,-2.34671 1.8851284,2.4487235 3 0 0 -1.75438,-2.54404 1.8851284,2.4487235 3 0 0 -2.0107,2.34671 1.8851284,2.4487235 3 0 0 1.75438,2.54404 z"
         id="path11161-9-8"
         style="fill:#807f7f;fill-opacity:1;stroke-width:0.149495" />
      <path
         fill="#4d4c4c"
         d="m 154.86872,218.29021 a 0.41410037,0.41410037 0 0 0 -0.24965,-0.10763 c -1.09431,-0.0837 -2.59523,-1.26623 -2.05257,-2.52497 q 0.58602,-1.35741 2.12582,-1.69976 c 0.83268,-0.18537 2.13329,0.006 2.06004,1.12121 -0.0179,0.26162 -0.21378,0.44998 -0.49184,0.44849 -0.64432,-0.003 -1.35741,-0.26461 -1.88812,0.27806 q -0.0598,0.0628 -0.0105,0.13155 c 0.49781,0.69067 1.52783,0.78934 2.20803,1.47103 0.64881,0.6518 0.89548,1.4501 0.31245,2.22 -0.89697,1.18549 -2.6924,1.30957 -4.03038,0.9179 q -0.36626,-0.10614 -0.43204,-0.42756 c -0.3259,-1.60707 1.62949,-0.92836 2.34408,-0.77438 0.84614,0.18388 0.35579,-0.82671 0.10464,-1.05394 z"
         id="path11163-3-0"
         style="fill:#807f7f;fill-opacity:1;stroke-width:0.149495" />
      <path
         fill="#4d4c4c"
         d="m 208.99927,216.24512 a 0.13753514,0.13903009 71.4 0 0 0.0897,-0.17939 c -0.48287,-1.32751 -1.53979,-1.47701 -2.74323,-0.99265 -0.75195,0.30198 -0.96872,-0.56658 -0.35131,-0.82969 q 2.15572,-0.9179 3.8166,0.61442 c 0.0912,0.0837 0.19285,0.31992 0.19883,0.444 q 0.19285,3.95414 0.22723,4.97369 c 0.009,0.27358 -0.18836,0.43204 -0.46044,0.33038 q -0.42457,-0.15995 -0.76542,-0.46343 a 0.12557556,0.12707051 54 0 0 -0.13305,-0.0209 q -0.42755,0.18687 -0.82521,0.39168 c -1.29462,0.66226 -2.35603,-0.0254 -2.96597,-1.19148 -0.85212,-1.62949 0.26012,-2.07349 1.61305,-2.42629 q 1.17353,-0.30497 2.29923,-0.65031 z m -2.54889,1.81337 c -1.24828,1.60408 2.53693,3.03026 2.64606,-0.32141 q 0.0105,-0.34384 -0.2362,-0.42157 -1.47103,-0.46344 -2.40986,0.74298 z"
         id="path11165-2-8"
         style="fill:#807f7f;fill-opacity:1;stroke-width:0.149495" />
      <path
         fill="#4d4c4c"
         d="m 201.9775,220.09013 c 0.0733,0.71757 -1.27519,0.82222 -1.27669,-0.11661 q -0.003,-2.62812 -10e-4,-5.25773 c 10e-4,-0.42755 0.0822,-0.6802 0.50529,-0.80727 a 0.32440354,0.32440354 0 0 1 0.39317,0.18986 l 0.31095,0.7699 a 0.18387851,0.18387851 0 0 0 0.30198,0.0613 c 0.39168,-0.39168 1.35891,-1.4785 1.8941,-0.61741 q 0.0374,0.0598 0.0284,0.12856 c -0.0718,0.57257 -1.11822,0.57107 -1.53082,1.05394 -1.02105,1.19147 -0.78934,2.99438 -0.62489,4.59547 z"
         id="path11167-4-7"
         style="fill:#807f7f;fill-opacity:1;stroke-width:0.149495" />
      <path
         fill="#4d4c4c"
         d="m 142.02713,220.04528 q -1.89859,-1.70873 -0.95827,-4.0827 0.53221,-1.34545 2.03014,-1.80291 c 2.62663,-0.80428 3.92125,0.97321 3.90182,3.31131 -0.004,0.51725 -0.34982,0.63386 -0.81774,0.63535 q -1.52634,0.006 -3.05268,0.003 a 0.11660588,0.12109072 14.5 0 0 -0.10764,0.0658 c -0.34683,0.6802 0.51426,1.05543 1.04646,1.07487 q 0.94182,0.0374 2.09891,-0.0777 c 0.49632,-0.0478 0.48586,0.6503 0.37673,0.91341 q -0.10465,0.24966 -0.47689,0.3857 c -1.2737,0.46642 -2.98392,0.52622 -4.04084,-0.42606 z m 0.91939,-4.03636 c -0.56958,0.79232 1.47252,0.71459 1.75806,0.6817 0.86557,-0.10016 -0.1779,-1.14812 -0.4156,-1.32752 -0.41709,-0.31692 -1.12868,0.34982 -1.34246,0.64582 z"
         id="path11169-7-5"
         style="fill:#807f7f;fill-opacity:1;stroke-width:0.149495" />
      <path
         fill="#4d4c4c"
         d="m 147.99047,220.54758 q -0.10016,-0.17192 -0.0972,-0.44699 0.0239,-2.10189 -0.0374,-5.60605 c -0.009,-0.55313 1.16008,-0.55761 1.52186,-0.26012 0.18089,0.1465 0.28105,0.43204 0.50679,0.61143 a 0.1330503,0.13155535 49.7 0 0 0.148,0.0135 q 0.19883,-0.11063 0.36776,-0.37523 0.48137,-0.75196 1.41123,-0.38869 0.0688,0.0269 0.10165,0.0912 c 0.23471,0.45746 0.13305,1.39479 -0.2661,1.6579 a 0.2122825,0.2122825 0 0 1 -0.14052,0.0329 q -0.75645,-0.0942 -1.19746,0.36028 c -0.66525,0.68468 -0.45147,3.16032 -0.3244,4.06327 a 0.30945407,0.31094902 86.2 0 1 -0.30945,0.3528 l -1.51738,-0.009 a 0.19882798,0.19733303 74.9 0 1 -0.16743,-0.0972 z"
         id="path11171-2-2"
         style="fill:#807f7f;fill-opacity:1;stroke-width:0.149495" />
      <path
         fill="#4d4c4c"
         d="m 226.63964,217.32597 a 3.2948636,3.2948636 0 0 1 -3.29486,3.29486 3.2948636,3.2948636 0 0 1 -3.29486,-3.29486 3.2948636,3.2948636 0 0 1 3.29486,-3.29486 3.2948636,3.2948636 0 0 1 3.29486,3.29486 z m -3.28184,2.54736 a 2.4860972,1.9748253 89.7 0 0 1.96177,-2.49641 2.4860972,1.9748253 89.7 0 0 -1.98781,-2.47572 2.4860972,1.9748253 89.7 0 0 -1.96178,2.49641 2.4860972,1.9748253 89.7 0 0 1.98782,2.47572 z"
         id="path11173-5-8"
         style="fill:#807f7f;fill-opacity:1;stroke-width:0.149495" />
      <path
         fill="#4d4c4c"
         d="m 227.62332,214.85482 a 0.27357534,0.27208039 28.7 0 1 -0.12109,-0.41111 c 0.46044,-0.65179 4.25611,-0.38569 5.0589,-0.32141 a 0.28702986,0.28702986 0 0 1 0.21677,0.4425 l -3.2261,4.93034 a 0.13155535,0.1330503 12.5 0 0 0.12856,0.20331 c 0.43653,-0.0643 3.92723,-0.5307 3.3457,0.72804 q -0.10315,0.22125 -0.296,0.22125 -3.71196,0.0135 -4.66274,-0.001 -0.24517,-0.004 -0.42307,-0.21378 a 0.17341388,0.17490882 26.8 0 1 -0.0419,-0.12856 q 0.0284,-0.33039 0.22275,-0.5935 1.47551,-1.99874 2.97943,-3.97656 0.2048,-0.27058 0.29001,-0.5038 a 0.19135324,0.19135324 0 0 0 -0.17939,-0.25713 c -0.8566,-0.004 -2.56084,0.17641 -3.29187,-0.1181 z"
         id="path11175-4-0"
         style="fill:#807f7f;fill-opacity:1;stroke-width:0.149495" />
      <rect
         fill="#4d4c4c"
         x="131.33377"
         y="214.07297"
         width="2.092926"
         height="6.5777678"
         rx="0.17490882"
         id="rect11177-1-5"
         style="fill:#807f7f;fill-opacity:1;stroke-width:0.149495" />
      <path
         fill="#4d4c4c"
         d="m 136.40911,220.57449 q -0.18686,-0.15846 -0.27357,-0.39766 -1.02553,-2.84338 -2.0122,-5.67183 a 0.26460565,0.26460565 0 0 1 0.2377,-0.35131 l 1.49644,-0.0703 a 0.44399932,0.44399932 0 0 1 0.44998,0.33038 q 0.51575,1.97034 1.01656,3.80464 0.0284,0.10166 0.0882,0.16146 a 0.09567662,0.09567662 0 0 0 0.15996,-0.0448 l 1.02105,-3.89733 a 0.48884773,0.48884773 0 0 1 0.47241,-0.36476 h 1.31555 a 0.27507028,0.27507028 0 0 1 0.25862,0.37074 l -2.1871,5.95438 a 0.26759555,0.2690905 9.4 0 1 -0.24517,0.1764 l -1.65342,0.0493 q -0.0822,0.003 -0.14501,-0.0493 z"
         id="path11179-2-0"
         style="fill:#807f7f;fill-opacity:1;stroke-width:0.149495" />
      <rect
         fill="#4d4c4c"
         x="158.09332"
         y="214.07297"
         width="2.092926"
         height="6.5777678"
         rx="0.28553492"
         id="rect11181-5-4"
         style="fill:#807f7f;fill-opacity:1;stroke-width:0.149495" />
      <path
         fill="#4d4c4c"
         d="m 72.805091,218.78952 c -0.388687,-0.55014 -0.321414,-1.60407 0.307959,-1.9808 0.505292,-0.30198 1.4202,-0.11063 1.947916,0.16594 a 0.15696946,0.1584644 54.4 0 1 -0.04933,0.296 l -1.550261,0.23769 a 0.20929261,0.20929261 0 0 0 -0.04933,0.39915 l 1.406745,0.592 q 0.06578,0.0284 0.09418,0.0942 c 0.904443,2.14674 -0.84913,2.59074 -2.457693,2.09292 a 0.20032292,0.19882798 32.7 0 1 -0.07475,-0.33935 c 0.603958,-0.54267 1.644442,0.0314 1.847754,-0.87455 a 0.14799977,0.14351493 31.7 0 0 -0.03139,-0.12408 q -0.485857,-0.56957 -1.234826,-0.48884 a 0.17191893,0.17042398 69 0 1 -0.156969,-0.0703 z"
         id="path11183-0-4"
         style="fill:#c0bfbf;fill-opacity:1;stroke-width:0.149495" />
      <path
         fill="#4d4c4c"
         d="m 84.226487,217.56217 q -0.04933,-0.38719 -0.42606,-0.29301 l -1.067392,0.2676 a 0.22723197,0.22573703 76.9 0 1 -0.276565,-0.17342 c -0.125576,-0.57854 0.877534,-0.63684 1.233331,-0.6802 1.116726,-0.13604 1.447109,0.77439 1.309574,1.70125 -0.118101,0.78934 -0.953776,0.67871 -1.154099,1.54727 a 0.13903009,0.13903009 0 0 0 0.171919,0.16594 c 0.479878,-0.13155 1.074867,-0.16893 1.201937,0.45447 a 0.11959578,0.12258567 68.3 0 1 -0.05681,0.12856 c -0.435029,0.26311 -2.290259,0.0762 -2.888238,0.0822 a 0.18238356,0.18238356 0 0 1 -0.13006,-0.31244 c 0.476888,-0.46941 2.164683,-2.23345 2.082461,-2.88824 z"
         id="path11185-6-1"
         style="fill:#c0bfbf;fill-opacity:1;stroke-width:0.149495" />
      <path
         fill="#4d4c4c"
         d="m 68.984006,220.89441 a 0.27507028,0.27357534 80.3 0 1 -0.306465,-0.21826 q -0.228727,-1.14663 -0.156969,-2.31867 0.0045,-0.0762 -0.04784,-0.13305 l -0.638343,-0.68917 a 0.33636312,0.33486817 53.3 0 1 0.07325,-0.51575 c 0.270585,-0.16146 1.479997,-0.47988 1.488967,0.0882 q 0.02392,1.5383 0.06877,3.07361 c 0.009,0.33636 -0.14501,0.66675 -0.481373,0.71309 z"
         id="path11187-6-8"
         style="fill:#c0bfbf;fill-opacity:1;stroke-width:0.149495" />
      <path
         fill="#4d4c4c"
         d="m 77.508195,219.66407 a 0.29001976,0.29001976 0 0 1 -0.237697,-0.38869 q 0.322908,-0.86408 0.8581,-1.63248 c 0.325898,-0.46941 1.212402,-1.23184 1.750583,-0.62489 q 0.05232,0.0598 0.04485,0.13754 -0.0882,0.97919 0.113616,1.921 c 0.134545,0.6219 0.08372,0.98966 -0.210787,1.50093 -0.369252,0.64283 -0.923878,-0.45147 -1.100282,-0.70412 a 0.19882798,0.19733303 75.6 0 0 -0.137535,-0.0822 z m 0.989655,-0.34982 a 0.28702986,0.28852481 32.7 0 0 0.387191,-0.0852 q 0.366262,-0.53818 0.180888,-1.17204 a 0.18985829,0.18985829 0 0 0 -0.315433,-0.0837 c -0.307959,0.30049 -0.844646,0.98667 -0.252646,1.34097 z"
         id="path11189-9-7"
         style="fill:#c0bfbf;fill-opacity:1;stroke-width:0.149495" />
    </g>
  </g>
</svg>
